<?xml version="1.0" encoding="utf-8"?>
<!-- Generator: Adobe Illustrator 22.1.0, SVG Export Plug-In . SVG Version: 6.00 Build 0)  -->
<svg version="1.1" id="Layer_1" xmlns="http://www.w3.org/2000/svg" xmlns:xlink="http://www.w3.org/1999/xlink" x="0px" y="0px"
	 viewBox="0 0 83 84" enable-background="new 0 0 83 84" xml:space="preserve">
<g>
	<g>
		<polygon fill="#00A651" points="21,72 24,72 24,81 83,81 83,84 21,84 		"/>
		<rect x="21" y="63" fill="#00A651" width="3" height="4"/>
		<polygon fill="#00A651" points="17,62 17,59 34,59 37,62 		"/>
		<polygon fill="#00A651" points="21,58 24,58 24,50 21,47 		"/>
		<polygon fill="#00A651" points="0,62 0,0 3,0 3,59 12,59 12,62 		"/>
		<path fill="#00A651" d="M3,81h10V71H3V81z M0,68h13V29l3,3v36h36l3,3H16v13H0V68z"/>
	</g>
</g>
</svg>
