<?xml version="1.0" encoding="utf-8"?>
<!-- Generator: Adobe Illustrator 22.1.0, SVG Export Plug-In . SVG Version: 6.00 Build 0)  -->
<svg version="1.1" id="Layer_1" xmlns="http://www.w3.org/2000/svg" xmlns:xlink="http://www.w3.org/1999/xlink" x="0px" y="0px"
	 viewBox="0 0 283.7 258.8" enable-background="new 0 0 283.7 258.8" xml:space="preserve">
<g>
	<g opacity="0.2">
		<path fill="#8076AA" d="M204.1,192c0.1-0.2,0.1-0.5,0.3-0.6c1.1-0.6,2.2-1.1,3.3-1.6c0.5-0.3,1-0.6,1.4-1c1.3-1.1,2.7-2.3,3.9-3.5
			c0.9-0.9,1.7-2,2.6-3.1c0.6-0.8,1.3-1.6,1.9-2.5c0.6-1,1.1-2,1.7-3.1c0.2-0.5,0.5-1,0.7-1.5c0.4-1,0.9-2.1,1.3-3.1
			c0-0.1,0.1-0.2,0.1-0.3c0.3-1.7,0.6-3.4,0.9-5.1c0.5-2.4,0.5-4.8,0.3-7.2c-0.2-3.7-0.2-7.5-1.1-11.2c-0.4-1.6-0.5-3.2-0.8-4.8
			c-0.2-1.2-0.5-2.3-0.8-3.4c-0.2-0.6-0.9-0.9-1.4-0.6c-0.5,0.3-0.6,0.8-0.2,1.3c0.1,0.1,0.2,0.3,0.2,0.5c0.3,1.4,0.6,2.8,0.9,4.3
			c0.4,1.9,0.8,3.9,1.2,5.8c0.1,0.6,0.1,1.3,0.2,1.9c0.3,4.5,0.4,9-0.1,13.5c-0.2,1.5-0.7,2.9-1.1,4.3c-0.2,0.7-0.4,1.5-0.6,2.2
			c-0.5,1.9-1.5,3.6-2.6,5.3c-0.7,1.2-1.6,2.2-2.5,3.2c-1,1.1-1.9,2.3-3,3.2c-1.2,1-2.5,1.9-3.8,2.8c-1,0.6-2,1.2-3,1.7
			c-0.1,0-0.1,0.1-0.2,0.1c-2.2,0.5-4.3,1.2-6.5,1.6c-1.2,0.2-2.6-0.2-3.8-0.5c-1.6-0.3-3-1-4.4-1.9c-0.6-0.4-1-1-1.5-1.5
			c0-0.1,0.1-0.1,0.1-0.2c0.4,0,0.8-0.1,1.1,0c1.4,0.7,2.7,0.2,3.9-0.3c1-0.5,1.4-1.7,1.8-2.8c0-0.1,0-0.3,0.1-0.4
			c0.4-0.4,0.8-0.8,0.5-1.4c-0.4-0.7-1-1.3-1.8-1.6c-1.2-0.5-2.4-0.9-3.8-0.8c-1.9,0-3.5,0.7-4.4,2.3c-0.8,1.5-1.4,3.2-0.6,5
			c0.5,1.1,1.1,2,2.1,2.6c0.8,0.5,1.6,1.1,2.4,1.7c0.1,0,0.1,0.1,0.1,0.2c-0.1,0-0.2,0.1-0.3,0.1c-1.4-0.2-2.1,0.8-2.9,1.7
			c-0.6,0.7-1.4,1.2-2.1,1.8c-0.7,0.6-1.3,1.1-2,1.7c-0.8,0.7-1.6,1.3-2.4,2c-0.7,0.6-1.3,1.3-2,1.9c-0.6,0.5-1.2,0.8-1.8,1.3
			c-1.1,0.8-2.1,1.7-3.2,2.6c-1,0.7-2.1,1.4-3.1,2.1c-0.6,0.5-1.1,1-1.8,1.5c-1,0.7-2,1.4-3,2c-0.7,0.4-0.8,1.1-0.1,1.6
			c1.2,0.9,2.3,2,3.6,2.4c1.3,0.4,2.1,1.5,3.4,1.8c0.7,0.2,1.4,0.8,2.1,1.1c0.3,0.1,0.6,0.2,0.9,0.2c0.6,0,0.9,0.4,1,1
			c-1,0.3-2,0.7-2.9,1c-1,0.4-2.1,0.8-3.1,1.3c-0.9,0.4-1.8,1-2.7,1.5c-0.3,0.1-0.7,0.1-0.9-0.1c-0.7-0.4-1.3-0.8-1.9-1.3
			c-0.7-0.5-1.3-1.1-1.9-1.7c-1.3-1.2-2.5-2.4-3.8-3.6c-0.2-0.2-0.7-0.3-0.9-0.2c-0.6,0.3-1,0.8-1.6,1.1c-0.5,0.3-0.9,0.7-1.5,0.8
			c-0.8,0.2-0.7,0.8-0.5,1.2c0.8,1.1,1.3,2.4,2.4,3.3c0.4,0.3,0.5,0.9,0.8,1.3c0.9,1.1,1.8,2.3,2.7,3.4c0.3,0.4,0.4,0.6,0,0.9
			c-1.4,0.9-2.2,2.4-3.3,3.6c-1,1.2-1.9,2.6-2.9,3.9c-0.1,0.1-0.5,0.1-0.5,0c-0.6-1-1.1-2.1-1.6-3.1c-0.4-0.8-0.8-1.5-1.2-2.3
			c-0.1-0.1-0.1-0.2-0.1-0.4c-0.2-0.6-0.5-1.3-0.6-1.9c-0.3-1.2-0.6-2.5-0.9-3.7c-0.2-0.6-0.4-1.1-0.7-1.6c-0.1-0.2-0.7-0.1-1,0
			c-0.7,0.3-1.4,0.7-2,1.2c-0.2,0.2-0.5,0.5-0.5,0.8c0.1,0.8,0.3,1.5,0.4,2.2c0.1,0.5,0.2,1,0.3,1.5c0.3,1.3,0.5,2.7,0.9,4
			c0.3,1.1,0.8,2.1,1.2,3.1c0.3,0.8,0.5,1.7,0.8,2.5c0.3,0.7,0.7,1.5,1.1,2.1c0.5,0.7,0.5,1.5,0,2.1c-0.6,1-1.2,2-1.8,3
			c-0.5,0.8-0.9,1.6-1.3,2.5c-0.3,0.5-0.5,1.1-0.7,1.6c-0.3,0.9-0.6,1.8-0.9,2.7c-0.4,1.1-0.8,2.3-1.2,3.4c-0.1,0.2,0,0.5-0.1,0.7
			c-0.3,1.1-0.7,2.2-1,3.4c-0.2-0.2-0.3-0.2-0.3-0.3c-0.3-1.2-0.7-2.4-1-3.6c-0.3-1.2-0.5-2.4-1.1-3.6c-0.5-0.8-0.6-1.8-1-2.7
			c-0.4-0.9-0.8-1.8-1.3-2.7c-0.3-0.6-0.5-1.1-0.8-1.7c-0.3-0.6-0.6-1.2-0.9-1.8c-0.3-0.6-0.8-1-1.1-1.6c-0.1-0.2,0-0.6,0.1-0.9
			c0.1-0.4,0.4-0.7,0.6-1c0.4-0.8,0.9-1.6,1.2-2.5c0.3-0.6,0.5-1.3,0.7-1.9c0.3-0.9,0.5-1.8,0.7-2.8c0.2-0.5,0.3-1.1,0.5-1.6
			c0-0.1,0.1-0.1,0.1-0.2c0.3-1.8,0.7-3.6,0.9-5.5c0.1-0.7-0.3-1.1-1-1.3c-0.8-0.2-1.4-0.7-2.4-1.2c-0.3,0.7-0.6,1.4-0.8,2.2
			c-0.3,1.1-0.7,2.1-0.8,3.2c-0.1,1.1-0.6,2-1.1,2.9c-0.4,0.8-0.6,1.7-1,2.5c-0.5,0.9-1,1.7-1.6,2.6c-1.2-1.7-2.3-3.2-3.5-4.7
			c-0.7-0.9-1.7-1.6-2.5-2.5c-0.3-0.3-0.6-0.7-0.7-1.2c0-0.2,0.4-0.6,0.7-0.9c0.7-0.8,1.4-1.7,2-2.5c0.8-1.1,1.4-2.4,2.5-3.3
			c0.4-0.4,0.8-1.1,0.8-1.6c0-0.3-0.5-0.8-0.9-1c-0.6-0.4-1.3-0.6-1.8-1.1c-0.9-0.7-1.5-0.7-2.3,0.1c-1.5,1.3-3,2.6-4.5,3.8
			c-0.8,0.6-1.6,1.2-2.4,1.8c-0.2,0.1-0.6,0.2-0.8,0.1c-0.5-0.3-1-0.7-1.5-0.9c-0.5-0.3-1.1-0.6-1.6-0.8c-1-0.4-2-0.6-2.9-1
			c-1-0.3-1.9-0.7-2.9-1.1c0.8-1,2-1.3,3.1-1.7c0.5-0.2,1-0.5,1.5-0.8c0.6-0.4,1.1-0.8,1.7-1.2c0.9-0.6,1.9-1.1,2.9-1.6
			c0.5-0.3,1-0.6,1.5-0.9c0.8-0.6,0.5-1.3-0.5-1.8c-1.7-1-3.3-2.1-4.8-3.5c-0.7-0.6-1.5-1-2.3-1.6c-1.4-1-2.7-2.1-4.1-3.2
			c-1.1-0.9-2.2-1.7-3.3-2.6c-0.9-0.7-1.7-1.6-2.5-2.3c-0.4-0.4-1-0.7-1.4-1.1c-0.9-0.8-1.8-1.8-2.7-2.6c-0.9-0.8-1.7-2-3.2-1.7l0,0
			c0.6-0.5,1.2-1,1.8-1.4c1.1-0.7,2.1-1.5,2.7-2.6c0.4-0.8,0.6-1.9,0.5-2.8c-0.1-1-0.4-2.2-1-3.1c-0.8-1.4-2.2-2.1-3.9-2.2
			c-1.5-0.1-2.9,0.1-4.2,0.8c-0.7,0.4-1.3,0.9-1.8,1.5c-0.2,0.3-0.3,0.9,0.2,1.2c0.2,0.1,0.3,0.5,0.3,0.8c0.2,1.1,0.7,2.2,1.7,2.7
			c1.1,0.6,2.4,0.9,3.8,0.4c0.3-0.1,0.7-0.1,1.1-0.1c-0.1,1.1-0.8,1.5-1.5,1.9c-0.6,0.4-1.3,0.7-1.9,1c-0.8,0.3-1.7,0.6-2.6,0.9
			c-2,0.7-3.9,0.5-5.8,0c-1.3-0.4-2.6-0.6-3.8-1c-1.1-0.4-2.1-1-3.1-1.6c-0.8-0.5-1.7-1-2.4-1.7c-1.1-0.9-2.2-1.9-3.3-2.9
			c-0.9-0.8-1.7-1.7-2.4-2.7c-1-1.3-1.8-2.7-2.7-4.1c-0.7-1.2-1.3-2.5-1.8-3.7c-0.5-1.2-0.7-2.5-1-3.8c-0.7-2.5-0.8-5.1-0.9-7.7
			c-0.1-1.7,0-3.4,0-5.1c0.1-1.4,0.1-2.9,0.3-4.3c0.3-2.1,0.8-4.2,1.2-6.4c0.1-0.5,0.1-0.9,0.2-1.4c0.3-1.3,0.7-2.5,1-3.8
			c0.1-0.5,0.3-1-0.4-1.2c-0.6-0.2-1.2,0.1-1.3,0.7c-0.4,1.8-0.9,3.5-1.3,5.3c-0.3,1.7-0.6,3.4-0.8,5c-0.3,2.9-0.5,5.9-0.7,8.8
			c-0.1,2-0.1,4,0.1,6c0.2,1.7,0.6,3.4,1,5.1c0.3,1.2,0.6,2.3,1,3.4c0.3,0.9,0.8,1.7,1.2,2.5c0.5,1.1,1,2.2,1.6,3.2
			c0.4,0.8,0.9,1.5,1.5,2.2c0.6,0.8,1.2,1.5,1.9,2.2c1.1,1.1,2.2,2.1,3.3,3.1c1,0.9,2,1.7,3,2.5c0.5,0.4,1.2,0.6,1.8,0.9
			c0.6,0.3,1.3,0.7,2,1c-0.4,0.6-1,0.4-1.5,0.2c-0.6-0.3-1.2-0.8-1.8-1.1c-0.5-0.3-1-0.4-1.5-0.8c-0.8-0.7-1.8-1.3-2.7-1.9
			c-0.5-0.3-1.1-0.6-1.7-0.9c0.9,2.3,0.6,4.7,0.5,7c0,0.7-0.7,1.4-1,2.1c-0.1,0.2-0.3,0.4-0.2,0.5c0.3,0.7,0.7,1.3,1,2
			c0.1,0.2,0.2,0.5,0.3,0.8c0.1,0.2,0,0.4,0.1,0.6c1.3,2.5,0.6,5.1,0.5,7.6c0,1-0.8,2-1.1,3c-0.3,1-1,1.7-1.7,2.3
			c-0.5,0.4-1,0.8-1.6,1.1c-0.4,0.3-0.9,0.5-1.3,0.6c-0.5,0.1-1.1,0.1-1.6,0.1c0-0.1-0.1-0.3-0.1-0.4c0.6-0.3,1.2-0.6,1.7-0.9
			c1.2-0.7,2.5-1,3.1-2.6c0.9-2.3,1.2-4.7,1-7.1c-0.1-1.4-0.6-2.8-1-4.3c-0.3-1.3-0.6-2.6-1-3.9c-0.3-1-0.8-1.9-1.2-2.9
			c-0.1-0.2-0.1-0.3-0.2-0.5c-0.5-1.6-1-3.3-1.5-4.9c-0.4-1.2-0.9-2.3-1.4-3.5c-0.6-1.5-1.3-2.9-1.8-4.4c-0.4-1-0.6-2.1-0.9-3.2
			c-0.1-0.4-0.3-0.8-0.4-1.2c-0.1-0.6-0.2-1.1-0.4-1.7c-0.1-0.4-0.3-0.8-0.4-1.3c-0.1-0.3-0.2-0.7-0.2-1c-0.1-2.3-0.8-4.6-0.5-7
			c0-0.2-0.4-0.6-0.4-0.5c-0.4,0.2-1,0.4-1,0.6c0,1.4,0.1,2.9,0.2,4.3c0,0.5,0.1,1,0.1,1.5c0.1,1,0.1,2,0.3,3c0.2,1.2,0.6,2.5,1,3.7
			c0.1,0.2,0.1,0.4,0.2,0.5c0.3,1.2,0.5,2.4,0.9,3.6c0.3,1,0.9,1.9,1.2,2.8c0.3,0.8,0.5,1.5,0.8,2.3c0.1,0.4,0.4,0.8,0.5,1.2
			c0.1,0.5,0.1,0.9,0.2,1.4c-0.1,0-0.2,0-0.2,0c-0.4-0.7-0.8-1.4-1.3-2.2c-0.2,0.2-0.4,0.3-0.5,0.4c-0.6,0.4-1.1,0.4-1.5-0.3
			c-0.5-0.8-0.9-0.9-1.6-0.3c-0.5,0.4-1.1,0.9-1.7,1.2c-1.3,0.8-2.8,1.2-4.3,1c-0.2,0-0.3-0.2-0.6-0.3c1-0.3,1.7-0.7,2.6-0.9
			c1.7-0.4,2.6-1.4,3-3.1c0.4-1.9,0.1-3.7,0-5.5c-0.1-1.8-0.1-3.6-0.1-5.5c0-3.5,0-6.9,0-10.4c0-0.4,0.3-0.9,0.4-1.3
			c0.1-0.5,0.2-1,0.2-1.5c0.1-1.6,0.3-3.2,0.4-4.8c0.1-0.8,0.2-1.5,0.3-2.3c0-0.1-0.2-0.3-0.2-0.4c-0.1,0.1-0.3,0.2-0.3,0.3
			c-0.5,0.9-1,2-1.6,2.8c-0.7,0.9-1.5,1.8-2.4,2.6c-0.5,0.4-1,0.7-1.6,1.1c-0.8,0.5-1.6,0.1-1.6-0.8c0-0.8,0-1.6,0.5-2.5
			c0.5-0.9,0.7-2.1,1-3.1c0.2-0.5,0.4-1.1,0.6-1.6c-0.1-0.1-0.2-0.1-0.3-0.2c-0.3,0.2-0.7,0.3-1,0.6c-0.6,0.6-1,1.2-1.6,1.8
			c-1.1,0.9-2.1,1.9-3.6,2.2c-0.5,0.1-1.3-0.5-1.3-1c0-1.4,0.5-2.6,1.1-3.8c0.4-0.7,0.7-1.4,1-2.1c0.3-0.6,0.6-1.1,0.9-1.7
			c0.3-0.5,0.6-0.9,1-1.4c-0.5-0.4-0.8-0.4-1.4,0c-0.8,0.7-1.8,1.3-2.7,1.8c-0.8,0.5-1.6,0.9-2.5,1.2c-0.7,0.2-1.5,0.3-2.3,0.3
			c-0.2,0-0.5-0.5-0.5-0.6c0.3-1,0.6-2,1.1-2.9c0.6-1.1,1.3-2.1,2-3.1c0.6-0.8,1.2-1.6,1.8-2.5c0.2-0.2,0.3-0.5,0.5-0.8
			c-0.8-0.1-1.2-0.2-1.8,0.4c-0.5,0.5-1.3,0.7-2,1c-1.3,0.6-2.7,1.2-4,1.8c-0.7,0.3-0.9-0.1-1.3-0.4c-0.4-0.4-0.1-0.6,0.1-0.9
			c0.8-1.4,1.6-2.8,2.5-4.1c0.5-0.8,1.2-1.4,1.8-2.1c0.1-0.2,0.2-0.4,0.2-0.6c-0.2-0.1-0.5-0.2-0.6-0.2c-1,0.4-2,0.8-2.9,1.2
			c-0.1,0-0.1,0.1-0.2,0.1c-1.4,0.4-2.7,0.8-4.1,1.1c-0.2,0-0.7-0.1-0.7-0.3c0-0.5-0.2-1.2,0.1-1.5c1-1.3,2-2.5,3.1-3.6
			c1.1-1.1,2.3-2,3.5-2.9c1.2-0.9,2.4-1.8,3.6-2.8c0.2-0.2,0.2-0.7,0.3-1c-0.4,0-0.8-0.2-1.1-0.1c-1.1,0.4-2.2,0.9-3.4,1.3
			c-0.9,0.4-1.8,0.8-2.7,1.1c-0.9,0.3-1.8,0.6-2.7,0.9c-1,0.3-1.9,0.7-2.9,0.9c-0.6,0.2-1.3,0.3-1.9,0.1c-0.4-0.1-0.2-1.8,0.1-2.4
			c0.9-1.6,2.3-2.7,3.8-3.7c0.9-0.6,1.9-1.3,2.8-2c0.2-0.1,0.3-0.4,0.4-0.5c-0.2-0.1-0.4-0.3-0.6-0.3c-1.1,0-2.2,0.1-3.2,0.1
			c-1.5,0.1-3,0.3-4.4,0.5c-1.7,0.2-3.3-0.3-5-0.6c-0.6-0.1-0.9-1-0.6-1.5c0.4-0.7,1-1.2,1.8-1.5c0.3-0.1,0.6-0.4,1-0.5
			c1.2-0.5,2.5-0.9,3.7-1.4c0.3-0.1,0.7-0.1,1-0.2c0.6-0.2,1.1-0.5,1.7-0.7c0,0,0-0.5-0.1-0.5c-0.4-0.1-0.8-0.2-1.1-0.2
			c-1.6-0.1-3.3-0.1-4.9-0.2c-1.4-0.1-2.8-0.3-4.2-0.5c-0.7-0.1-1.3-0.4-1.9-0.8c-0.6-0.3-0.6-1.7,0.1-2c1.2-0.6,2.5-1,3.7-1.6
			c0.8-0.4,1.6-0.6,2.5-0.7c0.2,0,0.5-0.6,0.7-0.9c-0.3-0.1-0.5-0.4-0.8-0.4c-1.6,0.1-3.2-0.4-4.6-0.9c-1.5-0.5-2.9-1.4-4.3-2.1
			c-0.1-0.1-0.1-0.6-0.1-0.6c0.4-0.3,0.9-0.5,1.4-0.6c1.4-0.3,2.8-0.5,4.2-0.8c0.2,0,0.3-0.2,0.7-0.4c-1.1-0.4-1.9-0.7-2.8-1.1
			c-0.8-0.3-1.6-0.5-2.3-0.8c-0.9-0.4-1.8-0.8-2.7-1.3c-1-0.6-1.9-1.2-2.8-1.9c-0.6-0.5-0.4-0.9,0.3-1.1c1-0.2,2-0.4,3-0.7
			c0.3-0.1,0.5-0.5,0.6-0.8c0-0.1-0.3-0.4-0.5-0.5c-1.1-0.6-2.2-1.2-3.2-1.9c-0.8-0.5-1.6-1-2.4-1.6c-0.6-0.5-1.2-1-1.6-1.6
			c-0.1-0.2,0.1-1,0.4-1.2c0.7-0.4,1.5-0.6,2.2-0.8c1-0.3,2-0.5,3-0.8c0.2,0,0.3-0.1,0.7-0.3c-0.8-0.3-1.4-0.7-2.1-0.9
			c-2.1-0.6-4.1-1.5-5.8-2.9c-0.3-0.2-0.5-0.5-0.7-0.8c-0.5-0.9,0-1.9,1.2-1.9c1.7-0.1,3.3,0,5,0c0.3,0,0.6,0,0.9,0
			c0.2,0,0.3-0.2,0.5-0.3c-0.1-0.1-0.2-0.2-0.4-0.3c-1.5-1.2-3.1-2.3-4.5-3.5c-1.5-1.2-2.9-2.5-4.4-3.8c-0.4-0.4-0.8-0.8-1.1-1.3
			C0.7,67.6,1,67,1.8,67c1.2,0,2.5,0.2,3.7,0.2C5.7,67.2,6,67,6,66.9c0.1-0.2,0-0.5-0.1-0.7C5,65.1,4,64,3.1,62.9
			c-0.6-0.8-1.3-1.6-1.8-2.5c-0.4-0.7-0.7-1.4-0.9-2.1c-0.1-0.3-0.2-0.7-0.3-1.3c0.6,0.1,1.2,0,1.6,0.2c0.9,0.5,1.6,1.2,2.4,1.8
			c0.5,0.3,1,0.5,1.5,0.8c0.9,0.6,1.8,1.2,2.7,1.8c0.7,0.4,1.4,0.8,2.1,1.1c0.2,0.1,0.4,0,0.6-0.1c0-0.2,0-0.5-0.1-0.7
			c-0.9-1.3-1.8-2.6-2.7-3.9c-0.9-1.3-1.7-2.6-2.5-3.9c-0.6-1-1.2-2.1-1.7-3.2c-0.3-0.6-0.6-1.3-0.9-1.9c-0.4-1.2-0.9-2.4-1-3.6
			c-0.2-1.9-0.2-3.8-0.2-5.7c0-0.5,0.1-1.1,0.2-1.7c0.8,0.3,1,0.8,1.2,1.4c0.3,0.9,0.8,1.7,1.2,2.5c0.5,0.9,1,1.8,1.6,2.7
			c0.8,1.2,1.6,2.3,2.5,3.4c0.5,0.7,1.1,1.3,1.7,2c0.5,0.6,1.1,1.2,1.7,1.8c0.6,0.6,1.2,1.2,1.9,1.8c0.7,0.7,1.5,1.3,2.2,1.9
			c0.1,0.1,0.3,0.3,0.6,0.4c0-0.3,0.1-0.6,0-0.9c-0.5-0.9-1.2-1.8-1.7-2.7c-0.6-1-1.1-2.1-1.7-3.1c-0.5-0.9-1.1-1.8-1.7-2.7
			c-0.7-1.2-1.3-2.3-1.9-3.5c-0.4-0.8-0.9-1.6-1.3-2.5c-0.3-0.7-0.6-1.5-0.9-2.3c-0.3-0.9-0.7-1.8-1-2.7c-0.1-0.2-0.2-0.3-0.2-0.4
			c-0.8-2.8-1.1-5.7-0.7-8.6c0.1-0.7,0.5-1.4,0.8-2.2c0.2,0,0.2,0.1,0.3,0.1c0.3,1.3,0.6,2.6,1,3.9c0.3,1,0.8,2,1.2,3
			c0,0.1,0.1,0.2,0.2,0.3c0.3,0.9,0.5,1.8,0.8,2.7c0.2,0.6,0.4,1.1,0.7,1.7c0.6,1.2,1.3,2.3,2,3.4c0.5,0.9,0.9,1.8,1.5,2.7
			c0.6,0.9,1.3,1.8,2,2.7c0.7,0.9,1.4,1.8,2.3,2.6c0.5,0.4,0.8,1.4,1.8,0.8c-0.4-0.9-0.7-1.9-1.1-2.8c-0.4-0.8-0.8-1.7-1.2-2.5
			c-0.3-0.6-0.6-1.3-0.8-2c-0.3-0.7-0.6-1.5-0.9-2.2c-0.1-0.3-0.4-0.5-0.5-0.8c-0.7-1.7-1.5-3.4-2.2-5.1c-0.1-0.2-0.1-0.5-0.1-0.7
			c-0.1-0.5-0.3-0.9-0.4-1.4c-0.1-0.2-0.1-0.3-0.2-0.5c-0.3-2.4-0.7-4.8-1-7.1c-0.2-1.5-0.4-3.1-0.4-4.6c0.1-1.8,0.2-3.6,0.7-5.3
			c0.4-1.5,0.9-3.1,2.5-4.1c0.1,0.3,0.2,0.6,0.2,0.8c0,0.9,0.1,1.8-0.2,2.6c-0.9,2.4-0.5,5-0.3,7.4c0.1,1.6,0.3,3.3,0.6,5
			c0.3,1.5,0.8,2.8,1.3,4.3c0.3,1,0.7,2,1,3c0.1,0.4,0.2,0.8,0.4,1.2c0.4,0.8,0.8,1.6,1.1,2.4c0.3,0.6,0.6,1.1,0.9,1.7
			c0.7,1.5,1.5,3,2.3,4.4c0.4,0.8,1,1.5,1.6,2.3c0.5-0.5,0.4-1,0.3-1.5c-0.2-0.7-0.4-1.5-0.6-2.2c-0.1-0.2-0.1-0.4-0.2-0.6
			c-0.1-0.3-0.3-0.5-0.3-0.8c-0.3-1.8-0.5-3.7-1-5.5c-0.5-1.6-0.3-3.2-0.7-4.8c-1-4.5-0.7-9.1-0.4-13.6c0.1-1.4,0.3-2.9,0.6-4.3
			c0.3-1.2,0.8-2.4,1.1-3.5c0.3-0.9,0.5-1.8,0.8-2.6c0.5-1.1,1.1-2.2,1.6-3.3c0.1-0.3,0.4-0.5,0.5-0.8c0.3-0.7,0.3-0.8,1.1-0.4
			c-0.2,1.4-0.3,2.8-0.6,4.2c-0.3,1.5-1,2.9-1.2,4.4c-0.3,2.4-0.3,4.9-0.3,7.3c0,0.8,0.2,1.5,0.2,2.3c-0.1,2.2,0.6,4.4,0.8,6.5
			c0.2,1.6,0.4,3.2,0.8,4.8c0.3,1.3,0.7,2.5,1,3.8c0.1,0.3,0.1,0.7,0.2,1c0.1,0.5,0.3,1,0.5,1.5c0.1,0.3,0.1,0.5,0.2,0.8
			c0.2,0.5,0.3,1,0.5,1.5c0.1,0.2,0.1,0.3,0.2,0.5c0.3,0.9,0.5,1.9,0.8,2.8c0.3,0.8,0.5,1.6,0.9,2.4c0.1,0.3,0.5,0.4,0.8,0.6
			c0.1,0,0.2-0.1,0.3-0.1c-0.1-0.3-0.1-0.7-0.2-1c0-0.1-0.2-0.3-0.3-0.4c-0.3-1.2-0.6-2.5-0.8-3.7c-0.3-1.4-0.4-2.9-0.8-4.2
			c-0.7-1.8-0.3-3.8-0.8-5.6c-0.7-2.5-0.4-5-0.4-7.5c0-1.1,0.3-2.2,0.5-3.2c0.1-0.5,0.2-0.9,0.2-1.3c-0.2-1.7,0.5-3.2,0.8-4.8
			c0.2-1.3,0.8-2.5,1.2-3.7c0-0.1,0.1-0.2,0.1-0.3c0.1-1.2,0.7-2.2,1.4-3.1c0.2-0.3,0.2-0.8,0.4-1.2c0.1,0,0.2,0,0.2-0.1
			C32.8,4.7,33,5,33,5.3c0,1,0.2,2-0.1,3c-0.9,3-0.3,6.1-0.7,9.2c-0.2,1.6-0.4,3.1-0.4,4.7c0.1,1.3,0.3,2.5,0.5,3.8
			c0.1,0.8,0,1.5,0.2,2.3c0.4,1.6,0.8,3.2,1.2,4.8c0.3,1,0.5,2.1,0.8,3.1c0.3,0.9,0.8,1.7,1.2,2.6c0.3,0.7,0.6,1.5,0.9,2.2
			c0.8,1.7,1.5,3.4,2.3,5.1c0.8,1.6,1.7,3.1,2.6,4.6c0.6,1.1,1.3,2.1,2,3.2c0.8,1.2,1.6,2.5,2.4,3.7c0.6,0.8,1.2,1.6,1.8,2.4
			c0.3,0.5,0.6,1,1,1.4c0.3,0.3,0.7,0.7,1.1,0.8c1.2,0.3,2.4,0.3,3.6,0.6c1.2,0.3,2.3,0.8,3.4,1.3c0.7,0.3,1.4,0.5,2.1,0.9
			c0.7,0.4,1.3,0.9,2,1.2c0.6,0.2,1.1,0.5,1.5,0.9c0.6,0.5,1.3,1,1.9,1.5c0.5,0.4,1.1,0.8,1.6,1.3c0.9,0.9,1.8,1.8,2.6,2.7
			c0.6,0.7,1.2,1.3,1.8,2c0.9,1.1,1.7,2.3,2.5,3.5c0.3,0.4,0.5,0.7,0.8,1.1c0.4,0.6,0.8,1.2,1.2,1.8c0.2,0.2,0.4,0.3,0.6,0.5
			c0.2-0.3,0.5-0.6,0.5-0.8c0.1-1.2,0.1-2.4,0-3.6c-0.2-1.4,0.8-2.1,1.7-2.7c1.7-1,3.4-1.9,5.1-2.8c0.7-0.4,1.4-0.5,2.1-0.9
			c0.7-0.3,1.4-0.7,2-1c0.3-0.1,0.6-0.3,0.8-0.4c0.4-0.2,0.7-0.3,1.1-0.4c0.5-0.2,0.9-0.4,1.4-0.6c0-0.7-0.4-1-1.1-1
			c-0.2,0-0.5-0.1-0.7-0.1c-1.1-0.1-2-0.9-3.3-0.5c-0.9,0.3-2-0.3-2.9,0c-1.5,0.5-3.3,0.5-4.6,1.7c-0.2,0.2-0.7,0.3-1.1,0.4
			c0-0.1,0-0.4,0.2-0.6c0.7-0.6,1.4-1.1,2-1.8c0.4-0.5,0.9-0.7,1.5-0.9c0.5-0.2,0.5-0.8,0.1-1.2c-0.1-0.1-0.2-0.4-0.1-0.6
			c0.4-0.6,0.2-1.2-0.5-1.4c-0.9-0.3-2-0.5-2.8-0.9c-0.9-0.4-1.7-1-2.5-1.6c-1-0.8-1.9-1.7-2.6-2.8c-0.6-0.9-1.3-1.8-1.1-3
			c0.1-0.7-0.3-0.9-0.9-1.2c-0.8-0.3-1.6-0.9-2.4-1.3c-0.9-0.5-1.8-0.9-2.6-1.5c-0.7-0.5-1.4-1.2-2-1.9c-0.9-1.1-1.8-2.2-2.6-3.3
			c-0.3-0.4-0.6-0.8-0.7-1.3c-0.3-0.8-0.8-1.6-0.9-2.5c-0.2-1.1-0.1-2.3,0-3.5c0.2-1.3,0.8-2.5,1.7-3.4c0.2-0.2,0.6-0.2,0.9-0.3
			c0,0.3,0.2,0.7,0.1,1c-0.2,0.5-0.6,1-0.8,1.5c-0.2,0.3-0.5,0.7-0.5,1.1c0,1.1-0.2,2.3,0.1,3.3c0.3,1.1,1.1,2,1.8,3
			c0.3,0.4,0.5,0.8,0.9,1.2c1.3,1.3,2.7,2.5,4.1,3.7c1,0.9,2.1,1.6,3.2,2.4c1,0.7,2.1,1.2,3.1,1.8c0.2,0.1,0.4,0.4,0.6,0.5
			c0.9,0.5,1.8,1,2.7,1.6c0.4,0.2,0.8,0.5,1.2,0.8c1,0.6,2.1,1.3,3.1,1.9c1,0.6,2.1,1.1,3.2,1.7c1.1,0.6,2.2,1.3,3.3,1.9
			c0.5,0.3,1,0.6,1.5,0.7c1.3,0.4,2.1,1.4,3.2,2.1c0.3,0.2,0.6,0.4,0.9,0.6c0.7,0.4,1.3,0.9,2.1,1.2c0.4,0.2,1,0.1,1.5,0
			c0.6-0.1,0.6-0.5,0.2-0.8c-1-0.7-1.9-1.4-2.9-2.1c-0.8-0.5-1.5-1.1-2.3-1.6c-0.8-0.4-1.4-1.2-2.4-1.3c-0.4-0.1-0.8-0.4-1.2-0.7
			c-1.3-0.7-2.5-1.4-3.8-2.2c-0.2-0.1-0.2-0.4-0.3-0.6l0,0c0.3,0,0.6,0.1,0.9,0c0.4-0.2,0.9-0.4,1-0.7c0.2-0.9,0.7-0.8,1.4-0.7
			c0.5,0.1,0.9,0.3,1.5,0.4c0.1-0.3,0.3-0.6,0.2-0.8c-0.1-1,0.2-2,0.6-2.9c0.2-0.6,0.7-1,1-1.5c0.8-1.3,2.3-1.5,3.4-2.2
			c0.6-0.4,1.5,0,1.7,0.6l0,0c-1.6-0.1-2.7,0.8-3.8,1.8c-1.2,1.1-1.4,3.9-0.5,5.2c1.6,2.3,3.5,4.3,5.5,6.1c0.8,0.7,1.4,1.6,2.2,2.3
			c0.3,0.3,0.8,0.6,1.2,0.6c0.8-0.1,1.5-0.4,2.2-0.6c0.1,0,0.1-0.1,0.2-0.1c1.3-0.2,2.4-1,3.9-1.1c1.2,0,2.3-0.7,3.5-1
			c0.1,0,0.2-0.1,0.4-0.2c1.3-0.3,2.6-0.5,3.8-0.8c1-0.2,2.1-0.5,2.9-1.2c0.1-0.1,0.2-0.1,0.3-0.1c2.2,0.2,4.2-0.5,6.3-0.9
			c1.4-0.3,2.9-0.4,4.3-0.6c1.2-0.2,1.3-0.5,0.9-1.6c-0.2-0.5-0.3-1-0.5-1.5c-0.1-0.2-0.4-0.5-0.6-0.4c-1.6,0.2-3.3,0.4-4.9,0.6
			c-1,0.1-2,0.1-3,0.2c-1.1,0.2-2.2,0.4-3.3,0.7c-0.2,0.1-0.3,0.4-0.6,0.8c-0.2-0.3-0.3-0.4-0.3-0.5c-0.3-0.9-0.5-1.8-0.9-2.7
			c-0.1-0.2-0.3-0.4-0.6-0.5c-0.4-0.1-0.8,0-1.2-0.1c-0.7,0-1.5-0.7-1.7-1.2c-0.3-1.1,0-1.8,0.8-2.3c0.3-0.2,0.7-0.5,0.8-0.8
			c0.1-0.3-0.1-0.7-0.2-1c-0.2-0.7-0.5-1.4-0.8-2c-0.2-0.4-0.4-0.5-0.8-0.2c-0.4,0.4-0.9,0.7-1.3,1c-0.2,0.1-0.5,0.2-0.7,0.2
			c-1.4,0.1-2.6-1.7-2-3c0.1-0.3,0.6-0.5,0.9-0.6c0.5-0.2,1-0.4,1.5-0.6c0.2-0.1,0.4-0.4,0.3-0.6c-0.2-0.5-0.5-1-0.8-1.4
			c-0.1-0.1-0.4,0-0.5,0c-0.3,0.1-0.5,0.4-0.7,0.5c-1.4,0.9-2.7,0.6-3.4-0.8c-0.2-0.3-0.2-0.8,0-1.2c0.5-1.1,2-2.2,3.3-1.2
			c0.2,0.1,0.4,0.2,0.8,0.3c0-0.7,0.1-1.2,0.1-1.7c0-0.5-0.4-0.5-0.7-0.2c-0.7,0.8-1.7,0.6-2.5,0.4c-0.7-0.1-1.3-1.2-1.1-2.1
			c0.1-0.5,0.5-1.1,1-1.4c0.9-0.7,1.9-0.2,2.9,0.1c0.3,0.1,0.5,0.4,0.8,0.7c0.3-0.3,0.7-0.6,1-1c0.1-0.1,0-0.4-0.1-0.5
			c-0.3-0.2-0.6-0.4-0.9-0.3c-0.7,0.1-1.6-0.5-1.7-1.2c0-0.4-0.1-0.9,0-1.3c0-0.3,0.2-0.6,0.4-0.7c0.7-0.5,1.5-1.1,2.3-0.5
			c0.7,0.5,1.6,1.1,1.6,2.2c0,0.1,0.4,0.4,0.5,0.4c0.8-0.4,1.5-0.9,2.2-1.4c0,0,0-0.2,0-0.3c-0.3-0.1-0.6-0.3-0.9-0.3
			c-0.7,0-0.9-0.5-1.2-1c-0.6-0.8,0-1.3,0.3-1.8c0.5-0.7,2-1,2.7-0.6c0.7,0.3,1.1,1.5,0.8,2.4c-0.3,1.1-0.2,1.2,1,1
			c0.3,0,0.7-0.1,1-0.1c0.7,0,1.1-0.3,0.9-1c-1.4-0.6-1.8-1.1-1.7-2.3c0.1-0.7,0.8-1.5,1.4-1.6c1.3-0.2,2.4,0.2,2.8,1.3
			c0.5,1.4-0.5,2.2-1.8,2.8c1.8,0.7,3-0.6,4.5-0.7c0-0.1,0-0.2,0-0.2c-0.5-0.3-1-0.6-1.4-0.9c-0.2-0.1-0.3-0.4-0.4-0.6
			c-0.1-0.3,0-0.7,0-1c0-1,1.2-2,2.2-1.8c1.2,0.2,2.3,1.5,1.9,2.4c-0.2,0.6-0.7,1-1,1.6c1.4,0.4,2.5-0.2,3.9-0.8
			c-0.3-0.2-0.5-0.4-0.7-0.4c-1.4-0.4-1.8-2-0.8-3c0.6-0.6,2-1,2.7-0.5c0.4,0.3,0.9,0.8,1,1.3c0.1,0.5-0.3,1-0.5,1.5
			c-0.1,0.2-0.2,0.4-0.1,0.5c0,0.1,0.3,0.3,0.4,0.2c0.8-0.1,1.6-0.2,2.4-0.3c0.1-0.7-0.2-1.1-0.8-1.2c-0.6-0.2-0.8-0.6-0.7-1.2
			c0.1-0.6-0.3-1.4,0.7-1.7c0.4-0.1,0.7-0.5,1.1-0.6c1-0.2,2.5,1.1,2.5,2.1c0,0.3-0.2,0.5-0.3,0.8c-0.1,0.3-0.2,0.6-0.3,1
			c0.3,0,0.6,0,0.8,0c0.7-0.1,1.4-0.3,2.1-0.4c0.8-0.1,1.3-0.6,1.3-1.4c0-1.1,0-2.3,0-3.4c0-0.5,0.1-0.7,0.6-0.9
			c0.3-0.1,0.5-0.5,0.7-0.8c0-0.1-0.3-0.5-0.6-0.6c-1.4-0.7-2-2.2-1.4-3.6c0.2-0.5,0.7-0.8,1.1-1.1c1-0.7,3.2-0.2,3.8,0.9
			c1,1.7,0.4,3.2-1.4,3.9c-0.1,0.1-0.3,0.2-0.5,0.3c0.5,0.6,1,1.1,1.4,1.6c0.2,0.3,0.3,0.6,0.3,0.9c0.1,0.9,0,1.8,0,2.6
			c0,1,0.4,1.4,1.4,1.5c0.5,0.1,1.1,0.1,1.6,0.3c0.6,0.2,0.7-0.1,0.7-0.5c0-0.2-0.2-0.5-0.2-0.7c-0.2-0.7-0.1-1.5,0.5-1.9
			c0.7-0.5,1.6-1.2,2.5-0.3c0.4,0.4,0.9,0.9,1.3,1.4c0.5,0.9-0.4,1.3-0.8,1.7c-0.5,0.4-0.6,0.7-0.4,1.3c0.3,0.1,0.6,0.2,0.9,0.2
			c0.4,0,0.8-0.1,1.3-0.1c-0.1-0.4-0.2-0.9-0.3-1.3c0-0.1-0.2-0.2-0.2-0.3c0.1-0.2,0.2-0.3,0.3-0.4c0.6-1.3,1.4-1.7,2.8-1.4
			c0.9,0.2,1.2,0.9,1.2,1.7c0,0.7,0,1.5-0.9,1.9c-0.3,0.1-0.5,0.3-0.7,0.5c0.3,0.2,0.6,0.3,0.8,0.5c0.6,0.5,1.4,0.5,2.1,0.5
			c0.2,0,0.4-0.1,0.7-0.2c-1.2-0.7-1.1-1.7-0.9-2.6c0.3-1.1,2.1-1.6,2.9-0.8c0.3,0.3,0.6,0.5,0.9,0.8c0.6,0.7,0.4,1.9-0.5,2.3
			c-0.3,0.2-0.7,0.4-0.9,0.7c-0.1,0.1,0,0.4,0.1,0.4c0.9,0.3,1.9,0.6,2.8,0.8c0.2,0,0.4-0.1,0.9-0.1c-1.1-0.9-1.5-1.9-1.2-3.1
			c0.1-0.4,0.6-0.8,1-1c1.1-0.6,2.8,0.3,3.2,1.6c0.2,0.6-0.8,1.8-2,2.3c-0.1,0.6,0.2,0.9,0.8,1c0.5,0.1,1.1,0.1,1.6,0.1
			c0.4,0,0.6-0.2,0.6-0.7c-0.1-0.5-0.1-1-0.1-1.5c0-0.7,0.7-1.4,1.4-1.4c0.9,0,1.7-0.1,2.3,0.8c0.5,0.6,0.5,1.2,0.3,1.7
			c-0.1,0.4-0.7,0.7-1.1,1c-0.3,0.2-0.6,0.3-0.8,0.5c0.2,0.3,0.4,0.7,0.7,0.9c0.5,0.3,1.1,0.4,1.8,0.7c0.1-0.5,0.1-0.8,0.1-1
			c0.2-1.2,1.2-1.9,2.4-1.7c0.8,0.1,1.9,1.2,1.9,1.9c0.1,0.9-0.6,1.7-1.7,1.9c-0.5,0.1-1.1,0.1-1.1,0.8c0,0.7,0.5,1.1,1.1,0.9
			c0.7-0.3,1.4-0.7,2.2-1c0.2,0.1,0.5,0.4,0.7,0.4c0.9-0.1,1.2,0.7,1.2,1.2c0.1,0.6-0.1,1.3-0.5,1.8c-0.5,0.9-1.5,0.7-2.4,0.6
			c-0.3,0-0.7,0-1,0.1c0.1,0.4,0.1,0.8,0.2,1.2c1.4-0.7,2.9-0.5,3.3,0.3c0.3,0.5,0.1,2.3-0.2,2.6c-1.4,1.1-2.3,0.8-3.5-0.4
			c-0.7,0.2-1,0.6-1.1,1.3c-0.1,0.5,0.2,0.7,0.6,0.8c0.7,0.2,1.3,0.4,1.9,0.6c0.1,0,0.2,0.1,0.2,0.2c0,0.8,0.3,1.6,0,2.2
			c-0.3,0.5-0.9,1.1-1.8,1.1c-0.8,0-1.3-0.5-1.7-1c-0.5-0.7-1-0.7-1.5,0c-0.4,0.6-0.7,1.2-1,1.9c-0.4,0.8-0.2,1.2,0.5,1.8
			c0.4,0.3,0.9,0.8,1,1.3c0.1,0.5-0.1,1.1-0.5,1.5c-0.3,0.5-0.8,0.9-1.6,0.8c-0.9-0.1-1.8,0.7-1.9,1.7c-0.1,0.7,0.1,1.4-0.7,1.9
			c-0.3,0.2-0.2,1-0.3,1.5c-0.1,0-0.2,0-0.2,0c0-0.5-0.1-0.9,0-1.4c0.1-0.5,0-0.8-0.6-0.9c-1.1-0.2-2.1-0.5-3.2-0.7
			c-0.5-0.1-1.1,0.1-1.6,0.1c-0.3,0-0.6,0.1-0.8,0c-1.1-0.9-2.5-0.7-3.7-0.8c-0.7-0.1-1.4,0.1-2.1,0.2c-0.3,0-0.6-0.1-0.9-0.2
			c-0.5-0.2-0.9-0.4-1.4-0.5c-1-0.1-1.9-0.1-2.9-0.2c-1,0-1.5,0.4-1.5,1.5c0,0.1,0,0.1,0,0.2c0,1.7,0,1.8,1.7,2.1
			c1,0.2,2.1,0.3,3.2,0.4c1.1,0.2,2.3,0.4,3.4,0.5c1,0.1,1.9,0.3,2.9,0.2c0.4-0.1,0.8-0.7,1.1-1.2c0.2-0.5,0.2-1,0.3-1.6
			c0.1,0,0.2,0,0.3,0c0,0.6,0,1.2-0.1,1.8c-0.3,1.1,0.3,1.6,1.3,1.7c1.5,0.1,3.2,0.1,4.5,0.8c1.5,0.7,3.1,0.7,4.6,1.3
			c1.3,0.5,2.7,0.9,4.1,1.3c0.1,0,0.2,0,0.2,0.1c1.6,0.1,3,0.7,4.5,1.2c0.7,0.2,1-0.3,1.4-0.7c1-0.9,1.9-1.8,2.8-2.8
			c0.8-0.9,1.6-1.9,2.4-2.8c0.6-0.6,1.1-1.3,1.7-2c0.9-1,0.9-2.4,0.6-3.6c-0.4-1.5-1.6-2.4-2.6-3.3c-0.2-0.2-0.6-0.1-0.9-0.2
			c-0.4,0-0.7-0.1-1.3-0.1c0.7-0.9,1.5-0.7,2.1-0.5c0.8,0.3,1.8,0.7,2.4,1.3c1.3,1.3,2.7,2.8,2.4,4.9c-0.1,0.8,0.3,1.1,1.1,0.9
			c0.1,0,0.2-0.1,0.3-0.1c0.8-0.3,1.5-0.2,1.8,0.6c0.3,0.8,0.8,0.7,1.4,0.7c0.1,0,0.2,0,0.3,0l0,0c-0.2,0.9-1.1,0.9-1.7,1.3
			c-1,0.7-2.1,1-3.2,1.6c-0.9,0.5-1.8,1.3-2.7,1.9c-0.8,0.5-1.6,0.9-2.3,1.4c-0.7,0.6-1.4,1.3-2.1,1.9c0.4,0.4,0.7,1,0.9,0.9
			c0.6-0.1,1.1-0.5,1.7-0.8c0.5-0.3,0.9-0.7,1.4-1c1.1-0.6,2.2-1.2,3.2-1.8c1-0.6,1.8-1.2,2.8-1.8c1.1-0.6,2.4-1.1,3.5-1.7
			c0.4-0.2,0.8-0.5,1.2-0.7c1.7-1.1,3.4-2.1,5.1-3.2c1-0.6,2.1-1.1,3.1-1.7c1.3-0.8,2.6-1.8,3.9-2.7c0.8-0.6,1.7-1,2.4-1.7
			c1.2-1,2.3-2,3.3-3.2c0.9-1,1.7-2.1,2.3-3.2c0.7-1.2,1.4-2.5,1-3.9c-0.2-0.8-0.7-1.5-1.1-2.3c-0.2-0.4-0.6-0.7-0.7-1
			c-0.1-0.2,0-0.6,0.2-0.8c0.2-0.1,0.6-0.1,0.8,0c0.3,0.1,0.5,0.4,0.7,0.6c0.4,0.7,0.7,1.4,1,2.1c0.1,0.3,0.1,0.6,0.3,0.9
			c0.6,1,0.4,2,0.2,3c-0.1,0.5-0.2,1-0.5,1.5c-0.4,0.8-0.8,1.6-1.2,2.4c-0.3,0.5-0.5,1-0.8,1.4c-1,1.3-1.9,2.7-3.3,3.7
			c-1.4,1.1-3,1.9-4.5,2.7c-0.5,0.2-0.9,0.5-1.4,0.8c-0.3,0.9-0.5,1.9-0.9,2.8c-0.1,0.4-0.4,0.7-0.7,1c-0.8,0.8-1.3,1.9-2.4,2.4
			c-0.8,0.4-1.4,1.1-2.2,1.5c-1.1,0.5-2.2,0.9-3.3,1.3c-0.8,0.2-0.9,0.6-0.8,1.2c0.2,0.6,0.1,1-0.7,1.1c0,0.1,0,0.2,0,0.2
			c0.4,0.3,0.9,0.6,1.3,0.9c0.8,0.6,1.5,1.2,2.3,1.8c0.3,0.2,0.5,0.6,0.7,0.8c-0.1,0.1-0.1,0.2-0.2,0.3c-0.7-0.3-1.4-0.7-2.1-1
			c-0.3-0.1-0.6-0.3-0.9-0.4c-0.8-0.2-1.6-0.5-2.5-0.6c-1-0.1-2-0.2-3-0.1c-1,0.1-2.1,0.4-3.1,0.7c-0.4,0.1-0.5,0.5-0.1,0.7
			c0.4,0.3,0.8,0.4,1.2,0.6c0.3,0.1,0.6,0.3,0.9,0.4c0.2,0.1,0.4,0.2,0.6,0.3c0.9,0.4,1.8,0.9,2.8,1.3c0.6,0.3,1.2,0.5,1.7,0.8
			c1.2,0.5,2.4,1,3.5,1.6c1.4,0.7,2.8,1.4,4.1,2.2c0.3,0.2,0.5,0.8,0.6,1.2c0.1,1.8,0,3.6,0,5.4c0,0.3,0.2,0.7,0.4,1.3
			c0.5-0.8,0.9-1.3,1.3-1.9c0.6-0.9,1.2-1.7,1.8-2.6c0.4-0.5,0.7-1.1,1-1.7c0.5-0.7,1-1.3,1.5-1.9c1.1-1.3,2.1-2.7,3.4-3.9
			c1.2-1.2,2.6-2.1,3.9-3.2c0.8-0.7,1.7-1.3,2.6-1.9c0.9-0.6,1.8-1,2.8-1.5c1.1-0.5,2.2-1,3.3-1.4c0.3-0.1,0.7-0.1,1.1-0.2
			c1.5-0.2,2.9-0.4,4.4-0.6c0.8-0.1,1.3-0.7,1.7-1.3c0.8-1.2,1.6-2.4,2.4-3.6c0.8-1.1,1.6-2.2,2.3-3.4c0.4-0.7,0.8-1.4,1.2-2
			c0.8-1.3,1.6-2.6,2.4-3.9c0.5-0.8,0.8-1.6,1.3-2.5c0.5-1,1.1-2.1,1.6-3.1c0.4-1,0.8-2,1.2-3c0.3-0.8,0.8-1.6,1.1-2.4
			c0.1-0.2,0.1-0.4,0.2-0.5c0.5-1.5,0.9-3.1,1.3-4.6c0.1-0.4,0-0.9,0.1-1.2c0.8-1.9,0.4-3.9,0.9-5.8c0.6-2.1,0.6-4.3,0.3-6.4
			c-0.4-3-0.3-6-0.7-9c-0.1-1.4-0.6-2.7-0.6-4.1c0-0.2,0-0.4,0-0.6c0-0.1,0.2-0.3,0.3-0.3c0.1,0,0.2,0.2,0.3,0.3
			c0.4,0.9,0.9,1.8,1.3,2.8c0.4,1,0.7,1.9,1,2.9c0.3,1.2,0.3,2.4,0.8,3.5c0.6,1.5,0.4,3.1,0.8,4.6c0.8,3,0.4,6,0.4,9
			c0,1.3-0.3,2.6-0.5,3.9c-0.1,0.8-0.1,1.7-0.3,2.5c-0.3,1.7-0.7,3.4-1,5.1c-0.3,1.4-0.6,2.9-1,4.3c-0.1,0.4-0.4,0.8-0.6,1.3
			c0.7,0.2,1,0.1,1.2-0.5c0.4-1.2,0.9-2.3,1.3-3.5c0.4-1.1,0.6-2.2,0.9-3.3c0.3-1.2,0.7-2.3,1-3.5c0.2-0.6,0.3-1.2,0.4-1.8
			c0.1-0.4,0.2-0.7,0.3-1.1c0.1-0.2,0.2-0.5,0.2-0.7c0.3-2.2,0.4-4.5,1.1-6.6c0.6-2.3,0.4-4.5,0.8-6.8c0.5-2.7-0.1-5.4-0.4-8.1
			c-0.2-1.5-0.9-3-1.2-4.5c-0.2-1.2-0.2-2.5-0.3-3.8c0-0.1,0.2-0.4,0.3-0.4c0.2,0,0.4,0.1,0.5,0.3c0.7,1.2,1.4,2.4,2.1,3.7
			c0.4,0.7,0.5,1.6,0.8,2.4c0.4,1.4,0.9,2.8,1.3,4.2c0.1,0.2,0.1,0.4,0.1,0.6c0.2,1.3,0.4,2.7,0.7,4c0,0.1,0.1,0.2,0.1,0.3
			c0,3.9,0,7.7-0.1,11.6c0,1.7-0.4,3.4-0.7,5.1c-0.1,0.8-0.4,1.5-0.6,2.2c-0.3,1.7-0.6,3.4-1,5.1c-0.3,1.2-0.7,2.3-1,3.5
			c-0.1,0.3,0,0.7-0.1,1.1c0.1,0,0.2,0.1,0.3,0.1c0.5-0.7,1.1-1.4,1.6-2.1c0.5-0.7,0.9-1.5,1.3-2.3c0.3-0.5,0.5-1,0.7-1.5
			c0.3-0.7,0.7-1.5,1-2.2c0.2-0.5,0.5-1,0.7-1.5c0.5-1.2,0.9-2.3,1.4-3.5c0.4-1,0.9-1.9,1.2-2.9c0.4-1.3,0.7-2.7,0.9-4
			c0.3-1.6,0.5-3.1,0.6-4.7c0.1-2.1,0-4.2-0.1-6.4c-0.1-1.1-0.4-2.1-0.5-3.2c0-0.3,0.1-0.6,0.2-1c1,0.8,1.5,1.7,2,2.7
			c0.8,1.7,0.8,3.5,1.2,5.2c0.4,2,0.4,4.1-0.2,6.1c-0.3,0.9-0.2,2-0.3,2.9c-0.1,0.8-0.3,1.6-0.5,2.4c-0.1,0.2-0.2,0.5-0.2,0.7
			c-0.3,1.3-0.5,2.6-0.8,3.8c-0.2,0.9-0.6,1.7-1,2.5c-0.4,0.9-0.7,1.8-1.1,2.7c-0.3,0.7-0.7,1.4-1.1,2.1c-0.4,0.7-0.7,1.5-1,2.2
			c-0.5,1.3-1,2.7-1.6,3.9c-0.3,0.6-0.5,1.1-0.6,1.8c0,0.2,0.1,0.4,0.1,0.5c0.2,0.1,0.5,0,0.6-0.1c1-0.9,2-1.7,2.8-2.7
			c1-1.2,1.9-2.6,2.8-4c0.7-1.1,1.1-2.3,1.7-3.4c0.3-0.6,0.8-1.2,1.2-1.9c0.3-0.5,0.5-1.1,0.7-1.7c0.3-0.9,0.7-1.8,1-2.7
			c0.6-1.7,1.2-3.5,1.8-5.2c0.2-0.6,0.3-1.3,0.5-2c0.9,0.4,1,1.1,1,1.8c0,2,0.2,4.1-0.1,6.1c-0.3,1.8-1.1,3.5-1.6,5.3
			c-0.1,0.3-0.1,0.7-0.3,0.9c-0.6,1.4-1.3,2.7-2,4c-0.2,0.4-0.4,0.9-0.6,1.3c-0.6,1.1-1.1,2.2-1.8,3.3c-0.3,0.6-0.8,1.2-1.2,1.8
			c-0.3,0.5-0.5,1.1-0.9,1.6c-0.7,1.1-1.5,2.1-2.1,3.3c-0.3,0.6-1.1,1.1-0.6,2.1c0.6-0.5,1.2-1,1.8-1.6c1.2-1.2,2.4-2.5,3.6-3.7
			c1.1-1.1,2.2-2.2,3.2-3.4c0.9-1.1,1.6-2.4,2.4-3.6c0.4-0.6,0.8-1.2,1.2-1.8c0.4-0.7,0.6-1.4,0.9-2.2c0.3-0.6,0.6-1.2,0.9-1.8
			c0.1,0,0.3,0,0.4,0.1c0.1,0.8,0.2,1.5,0.3,2.3c0.1,2.8-0.1,5.5-1,8.1c-0.4,1.2-1,2.4-1.8,3.5c-0.7,0.9-1.1,2.1-1.7,3.1
			c-0.5,0.8-1,1.7-1.5,2.5c-0.8,1.2-1.7,2.5-2.6,3.7c-0.2,0.2-0.4,0.4-0.5,0.6c-0.1,0.2-0.1,0.4-0.2,0.6c0.2,0.1,0.5,0.2,0.6,0.1
			c0.7-0.3,1.4-0.7,2.1-1.1c0.6-0.3,1.1-0.7,1.7-1.1c1-0.7,1.9-1.4,2.9-2c0.8-0.5,1.7-1,2.6-1.4c0.3-0.2,0.8,0,1.4,0
			c-0.5,1-0.8,1.8-1.2,2.6c-0.5,1-1.1,2-1.7,2.9c-0.6,0.9-1.3,1.7-2,2.5c-0.3,0.4-0.7,0.7-1,1.1c-0.5,0.5-0.5,0.5-0.3,1.2
			c1.4-0.1,2.8-0.2,4.1-0.2c0.3,0,0.7,0.1,0.7,0.3c0.1,0.4,0.1,0.9-0.1,1.1c-1.5,1.5-3,2.9-4.5,4.3c-0.9,0.8-1.9,1.7-2.9,2.4
			c-0.8,0.7-1.7,1.2-2.6,1.9c-0.1,0.1-0.2,0.2-0.3,0.3c0.1,0.1,0.3,0.3,0.4,0.3c0.2,0.1,0.4,0,0.7,0c1.4,0,2.8,0.1,4.1,0
			c1.2-0.1,2.1,0.4,3,1c-0.9,1.5-2.1,2.6-3.7,3.3c-1.2,0.5-2.5,1-3.7,1.5c-0.5,0.2-1,0.5-1.7,0.9c0.2,0.1,0.4,0.3,0.5,0.3
			c1.2,0.3,2.4,0.5,3.6,0.9c0.6,0.2,1.2,0.5,1.7,0.8c0.7,0.4,0.6,1.4-0.2,2c-1.1,0.8-2.2,1.4-3.3,2.3c-1.1,0.9-2.2,1.5-3.5,2
			c-0.2,0.1-0.4,0.4-0.4,0.5c0.2,0.3,0.4,0.7,0.7,0.8c0.4,0.2,0.8,0.1,1.2,0.2c0.7,0.2,1.4,0.4,2,0.7c0.2,0.1,0.3,0.6,0.2,0.8
			c-0.4,0.5-0.9,1-1.5,1.3c-0.8,0.5-1.6,0.9-2.4,1.3c-0.5,0.3-1.1,0.5-1.6,0.7c-0.9,0.3-1.7,0.5-2.6,0.9c-0.8,0.3-1.5,0.6-2.3,0.9
			c0,0.1,0,0.2,0,0.3c0.3,0.1,0.7,0.2,1,0.3c1.4,0.3,2.9,0.5,4.3,0.8c0.4,0.1,0.7,0.5,1.1,0.9c-3.2,2-6.4,3.3-10.1,3.4
			c0.2,1,0.7,1.3,1.5,1.3c0.5,0,1,0.3,1.4,0.4c0.1,0,0.2,0.1,0.4,0.2c1.3,0.5,2.5,1,3.7,1.6c0.3,0.1,0.4,0.7,0.4,1.1
			c-0.1,0.4-0.4,0.8-0.7,1c-1.6,0.9-3.5,0.7-5.2,1.1c-1.4,0.3-2.9,0.2-4.4,0.3c-0.8,0-1.6,0.1-2.7,0.2c0.5,0.7,0.9,1,1.6,1.1
			c1.3,0.3,2.6,0.5,3.8,1c1.2,0.5,2.6,0.6,3.5,1.8c0.2,0.3,0.5,0.4,0.8,0.6c0.5,0.6,0.2,1.4-0.6,1.7c-2,0.6-4,0.7-6.1,0.5
			c-2.1-0.2-4.2-0.4-6.2-0.6c-0.3,0-0.6,0.1-0.9,0.2c-0.1,0.1-0.1,0.2-0.2,0.3c0.4,0.3,0.7,0.6,1.1,0.8c1.3,0.8,2.6,1.5,3.8,2.5
			c1.2,1,2.5,2.2,2.6,4c0.1,1.6-0.3,1.7-1.8,1.2c-0.5-0.1-1-0.3-1.5-0.5c-0.9-0.4-1.8-0.7-2.7-1.1c-0.8-0.3-1.5-0.6-2.3-0.9
			c-1.6-0.6-3.2-1.1-4.7-1.7c-0.3-0.1-0.5-0.4-0.8-0.4c-0.3-0.1-0.7,0.1-1,0.1c0.1,0.4,0.1,0.9,0.3,1.1c1.4,1.2,3,2.3,4.4,3.5
			c1.1,0.9,2.3,1.8,3.3,2.9c0.8,0.8,1.5,1.7,2.2,2.6c0.3,0.4,0.4,1,0.4,1.6c0,0.7-0.7,1-1.5,0.7c-1.1-0.4-2.2-0.8-3.3-1.2
			c-0.8-0.3-1.5-0.8-2.3-1.2c-0.4-0.2-0.8-0.1-1.2-0.1c-0.1,0-0.3,0.4-0.2,0.5c0.8,1,1.6,2,2.4,3c0.4,0.5,0.7,1.1,1,1.7
			c0.4,0.6,0.7,1.1,1,1.7c0.1,0.2,0.1,0.7,0.1,0.8c-0.4,0.1-0.5,1.2-1.2,0.4c-0.1-0.1-0.3-0.2-0.4-0.2c-1.7-0.3-3-1.3-4.5-2
			c-0.7-0.4-1.4-0.7-2.2-1c-0.1-0.1-0.5,0.1-0.5,0.2c-0.1,0.1,0,0.4,0.2,0.5c0.8,1,1.6,1.9,2.3,3c0.6,1,1.1,2.1,1.7,3.1
			c0.4,0.9,0.8,1.8,1.1,2.6c-0.7,0.7-2.6,0.7-3.2,0.1c-0.1-0.1-0.3-0.3-0.4-0.3c-1.4-0.1-2.1-1.2-3.2-1.8c-0.5-0.3-0.9-0.7-1.4-1
			c-0.3-0.1-0.6-0.1-1.2-0.1c0.6,1,1,1.8,1.4,2.6c0.4,0.8,0.9,1.7,1.3,2.6c0.3,0.7,0.7,1.4,0.9,2.2c0.2,0.7,0.3,1.6,0.2,2.3
			c0,0.2-0.7,0.5-1,0.5c-1,0-1.8-0.6-2.6-1.1c-1-0.8-2-1.6-2.8-2.7c-0.2-0.2-0.6-0.3-0.9-0.5c-0.1,0.1-0.2,0.1-0.3,0.2
			c0.3,0.7,0.5,1.3,0.8,2c0.1,0.3,0.3,0.6,0.4,1c0.3,1.1,0.6,2.2,0.8,3.3c0,0.2,0.1,0.3,0,0.5c-0.1,0.4-0.1,1.1-0.3,1.2
			c-0.4,0.1-0.9-0.1-1.3-0.3c-0.5-0.2-0.9-0.5-1.3-0.7c-1.4-0.8-2.1-2.1-2.8-3.5c-0.4-0.8-1-1.6-1.5-2.3c-0.5,0.3-0.6,1-0.4,1.9
			c0.3,1,0.6,2.1,0.6,3.2c0.1,2.2-0.1,4.4-0.1,6.6c0,1.3,0.1,2.6,0.1,4c-0.1,3.1-0.2,6.3-0.3,9.4c-0.1,2-0.1,3.9-0.1,5.9
			c0,1.3,0.5,2.4,1.6,3.2c1,0.8,2.2,1,3.4,1.3c0.2,0,0.3,0.1,0.5,0.1c-0.7,1.3-5.4,0.1-7.1-2.4c-0.3,0.3-0.9,0.6-1,0.9
			c-0.2,0.6-0.6,0.6-1.1,0.6c-0.2,0-0.4-0.1-0.7,0c-0.6,0-1.3,0-1.2,0.9c0,0.1-0.1,0.2-0.2,0.3c-0.5-0.4-0.5-1.2,0-1.7
			c0.1-0.1,0.2-0.3,0.3-0.5c0.4-0.9,0.7-1.9,1.1-2.8c0-0.1,0.1-0.2,0.2-0.3c0.3-1.1,0.6-2.2,0.9-3.3c0.4-1.2,0.8-2.3,1.1-3.5
			c0-0.1,0.1-0.3,0.1-0.4c0.3-2,0.7-4.1,1-6.1c0.2-1.7,0.3-3.3,0.5-5c0.1-0.7,0-1.4-0.6-1.9c-0.2-0.2-0.7-0.2-1-0.1
			c-0.1,0-0.3,0.5-0.3,0.7c0.6,2.2-0.1,4.4-0.2,6.6c-0.1,1.5-0.5,3.1-0.9,4.6c-0.4,1.6-0.9,3.2-1.4,4.8c-0.2,0.7-0.7,1.4-1,2
			c-0.1,0.2-0.1,0.5-0.2,0.8c-0.1,0.4-0.3,0.8-0.5,1.2c-0.1,0.2-0.2,0.4-0.3,0.6c-0.7,1.7-1.3,3.3-1.9,5c-0.3,0.9-0.5,1.8-0.8,2.7
			c-0.1,0.3-0.3,0.7-0.4,1c-0.1,0.2-0.2,0.3-0.3,0.5c-0.5,1.9-0.9,3.8-1.6,5.6c-0.4,1.2-0.4,2.4-0.8,3.5c-0.7,1.8-0.6,3.7-0.3,5.4
			c0.3,1.6,0.4,3.4,1.9,4.5c0.7,0.5,1.3,1.1,2.3,1.2c0.4,0.1,0.8,0.4,1.1,0.7c0.3,0.3,0.1,0.6-0.3,0.6c-1.2,0.1-2.2-0.5-3.1-1.1
			c-1.2-0.8-2.1-2-2.8-3.3c-0.4-0.7-0.6-1.5-0.7-2.3c-0.3-2.4-0.6-4.8,0-7.1c0.2-0.9,0.6-1.9,1.1-2.7c0.6-1.1,0.6-2.2-0.2-3.2
			c-0.1-0.1-0.3-0.3-0.3-0.4c-0.1-1.2-0.2-2.5-0.2-3.8c0-0.7,0.1-1.4,0.2-2.1c0.1-0.5,0.2-1,0.4-1.6c-0.9,0.5-1.9,0.7-2.5,1.6
			c-0.3,0.4-0.7,0.7-1.1,0.8c-1.2,0.5-2.1,1.5-3.5,1.8C205.4,191.5,204.8,192,204.1,192L204.1,192z M135,206.9c0,0.2,0,0.5,0,0.7
			c0.1,0.6,0.1,1.2,0.8,1.6c0.4,0.3,0.8,0.5,1.2,0.3c0.2-0.1,0.3-0.7,0.3-1c0-26.4,0-52.8,0-79.2c0-1.8-0.2-2-2-2
			c-15.6,0-31.3,0-46.9,0c-0.3,0-0.6,0-0.8,0c-1.1,0-1.6,0.5-1.3,1.6c0.3,0.8,0,1.5-0.1,2.2c0,0.1,0,0.2,0,0.3
			c0,3.6-0.1,7.3-0.1,10.9c0,2.1,0,4.2,0,6.4c0,1,0.2,1.7,1.2,2c0.4,0.1,0.8,0.4,1,0.7c0.2,0.2,0.2,0.7,0.1,1
			c-0.1,0.2-0.5,0.3-0.7,0.3c-1.5,0.1-1.5,0.1-1.5,1.6c0,2.2,0,4.4-0.1,6.6c0,1.4,0.6,2.7,1.1,3.9c0.4,1.1,1.1,2.1,1.8,3.1
			c0.8,1.3,1.7,2.6,2.5,3.9c0.6,0.9,1.2,1.7,1.9,2.6c0.5,0.7,1.1,1.3,1.6,2c0.9,1,1.8,1.9,2.7,2.9c1,1.1,2,2.3,3.1,3.4
			c0.9,0.9,1.8,1.6,2.7,2.5c0.5,0.5,1,1.1,1.6,1.6c1.3,1.1,2.7,2.2,4,3.2c1.5,1.3,3,2.6,4.6,3.8c1.6,1.3,3.2,2.5,4.8,3.7
			c1.8,1.3,3.7,2.5,5.5,3.8c1.4,1,2.8,1.9,4.2,2.9c1.7,1.2,3.5,2.4,5.2,3.5C134.8,208.6,134.8,208.6,135,206.9z M147.1,208.3
			c0.4-0.1,0.9,0,1.3-0.2c1.1-0.6,2.1-1.3,3.2-2c1.3-0.9,2.6-1.8,4-2.7c1.2-0.8,2.3-1.5,3.5-2.3c1-0.7,1.9-1.4,2.9-2.1
			c1.7-1.2,3.4-2.4,5-3.7c1-0.8,2.1-1.6,3.1-2.5c1.4-1.1,2.7-2.2,4-3.4c0.6-0.5,1.1-1.1,1.6-1.7c0.4-0.4,0.9-0.7,1.3-1.1
			c0.4-0.3,0.7-0.9,1.1-1c1.3-0.5,1.8-1.8,2.8-2.6c1.2-1,2.3-2.1,3.4-3.1c0.6-0.6,1.2-1.1,1.7-1.8c0.5-0.8,1.5-1.3,1.7-2.3
			c0,0,0.1-0.1,0.1-0.1c0.8-0.8,1.6-1.6,2.4-2.5c0.4-0.5,0.8-1.1,1.2-1.7c0.6-0.9,1.2-1.7,1.7-2.6c0.6-1,1.2-2.1,1.7-3.2
			c0.7-1.3,1.5-2.6,1.3-4.2c-0.1-0.4,0-0.9,0-1.3c0-2.1,0-4.2,0-6.3c0-0.6-0.2-1-0.9-0.9c-0.3,0-0.6,0-0.9-0.1
			c-0.1-0.1-0.3-0.5-0.2-0.6c0.5-0.5,1-1,1.5-1.4c0.5-0.3,0.5-0.6,0.5-1.1c0-5.1,0-10.2,0-15.3c0-1.5-0.2-3.1-0.3-4.6
			c0-0.1,0.1-0.1,0.1-0.2c0.6-1.6,0.2-2.3-1.4-2.3c-16,0-31.9,0-47.9,0c-0.9,0-1.3,0.3-1.3,1.3c0,0.7,0,1.5,0,2.2
			c0,25.3,0,50.6,0,76c0,0.7,0,1.5,0,2.2c0,0.6,0.6,0.8,1,0.5C146.4,209.1,146.8,208.7,147.1,208.3z M135,68.4
			C135,68.4,135,68.4,135,68.4c0-0.3,0.1-0.7-0.1-1c-0.1-0.3-0.5-0.7-0.8-0.6c-1.9,0.1-3.8,0.4-5.7,0.5c-0.9,0.1-1.8,0.1-2.7,0.2
			c-0.7,0.1-1.4,0-2.1,0.2c-1.7,0.4-3.4,0.8-5.2,1.2c-1.7,0.4-3.5,0.7-5.2,1c-0.5,0.1-1,0.3-1.5,0.5c-1.4,0.4-2.7,0.7-4.1,1.1
			c-1.6,0.5-3.1,1-4.7,1.6c-1.2,0.4-2.4,0.7-3.5,1.1c-0.1,0-0.1,0.1-0.1,0.1c-0.9,0.4-1.7,0.8-2.6,1.2c-1.4,0.6-2.9,1.1-4.3,1.7
			c-1.7,0.8-3.3,1.6-5,2.4c-1.1,0.5-1.2,0.6-1.2,1.9c0,11.1,0,22.2,0,33.3c0,0.4,0,0.7,0.1,1.1c0,0.5,0.1,1.1,0,1.6
			c-0.3,1.2,0,1.6,1.2,1.6c16.2,0,32.4,0,48.6,0c1.2,0,1.4-0.2,1.4-1.4c0-16.5,0-32.9,0-49.4c0-0.2,0-0.4,0-0.7
			c0-0.2-0.1-0.5-0.2-0.5c-0.6-0.1-1.2-0.2-1.7-0.1c-0.2,0.1-0.3,0.7-0.4,1.1C135,68.1,135,68.3,135,68.4z M145,92.8
			C145,92.8,145,92.8,145,92.8c0,8.4,0,16.8,0,25.2c0,0.9,0.5,1,1.2,1c16.1,0,32.3,0,48.4,0c1.3,0,1.4-0.1,1.3-1.4
			c0-0.5-0.3-0.9-0.3-1.3c0-0.7,0.3-1.3,0.3-2c0-11,0-22,0-32.9c0-0.3,0-0.6,0-0.8c-0.1-0.3-0.2-0.6-0.5-0.7
			c-0.6-0.3-1.2-0.6-1.8-0.8c-1.4-0.6-2.8-1.3-4.2-1.9c-0.7-0.3-1.4-0.7-2.1-0.9c-0.8-0.3-1.7-0.5-2.5-0.8c-1.5-0.6-2.9-1.3-4.4-1.8
			c-1.7-0.6-3.4-1.1-5.1-1.6c-2.1-0.6-4.2-1.3-6.4-1.9c-1.3-0.4-2.5-0.7-3.8-1c-1.8-0.4-3.6-0.5-5.4-1c-2.3-0.6-4.7-0.6-7-1
			c-1.7-0.3-3.6,0-5.4,0c-0.1,0-0.2,0-0.3-0.1c-1.3-0.6-1.9-0.2-1.9,1.2C145,76.4,145,84.6,145,92.8z M73.3,86.7
			c-0.6-0.4-1.1-0.7-1.5-1c-1.3-0.8-2.7-1.4-4.1-1.7c-2.5-0.4-4.8,0-6.6,2c-0.1,0.1-0.2,0.3-0.2,0.5c0,0.1,0.3,0.3,0.4,0.3
			c0.5,0,0.9,0,1.4,0c1.1,0.1,2.2,0,3.3,0.3c1.2,0.3,2.3,0.8,3.4,1.3c0.9,0.4,1.8,0.9,2.6,1.5c0.8,0.6,1.6,1.4,2.3,2.2
			c1.4,1.5,2.4,3.3,3.3,5c0.9,1.8,1.6,3.8,2.1,5.7c0.4,1.7,1.1,3.4,0.9,5.2c-0.1,1.6,0.1,3.1-0.1,4.7c-0.2,2-0.5,4-0.9,6
			c-0.2,0.9-0.4,1.9-0.7,2.8c-0.6,1.5-1.2,2.9-1.9,4.4c-0.5,1-1,1.9-1.7,2.8c-1.5,2.1-3.7,3.3-6,4.2c-1.5,0.6-3.1,0.5-4.7,0.1
			c-0.5-0.1-0.8-0.9-0.5-1.1c0.7-0.5,0.7-1.2,1-1.8c0.5-1-0.4-2.9-1.4-3.5c-1.4-0.8-2.8-0.7-4.3-0.7c-1.8,0-3.5,1.8-3.5,3.7
			c0,1.8,0.5,3.4,1.7,4.7c1.2,1.2,2.6,2.1,4.3,2.4c0.5,0.1,1,0.2,1.5,0.3c0.9,0.1,1.9,0.4,2.8,0.2c2.2-0.4,4.5-0.5,6.4-1.9
			c0.9-0.6,1.9-1.1,2.7-1.7c1.5-1.2,2.4-2.8,3.4-4.4c0.3-0.5,0.6-1.1,0.9-1.6c0.3-0.9,0.7-1.7,0.9-2.6c0.6-2,1.3-3.9,1.7-6
			c0.3-1.3,0.3-2.6,0.3-3.9c-0.1-4.1,0.3-8.3-0.7-12.4c-0.4-1.7-0.5-3.4-0.9-5.1c-0.2-1.1-0.5-2.2-0.7-3.3c0-0.1-0.1-0.2-0.2-0.3
			c-0.2-0.3-0.3-0.7-0.5-1c-0.1-0.3-0.2-0.6-0.3-0.9c-0.2-0.4-0.3-0.8-0.5-1.2c-0.1-0.2-0.1-0.4-0.2-0.6c-0.6-1.2-1.2-2.3-1.8-3.5
			c-0.6-1.1-1-2.3-1.7-3.3c-1-1.6-2.2-3.1-3.3-4.7c-1.2-1.9-2.7-3.6-4.2-5.3c-1-1.2-2.1-2.2-3.2-3.3c-0.3-0.3-0.7-0.6-1.1-0.9
			c-0.8-0.6-1.6-1.3-2.4-1.8c-1-0.6-2-1.3-3.1-1.8c-0.8-0.4-1.6-0.6-2.4-0.8c-1.1-0.3-2.2-0.8-3.3-1c-1.2-0.2-2.5-0.3-3.7-0.3
			c-1.6,0-3.2,0.1-4.8,0.6c-1.4,0.4-2.7,0.7-3.9,1.5c-0.4,0.2-0.7,0.5-1.1,0.7c-1.3,0.7-2.3,1.9-3.1,3.1c-0.6,1.1-1.2,2.3-1.4,3.6
			c-0.4,2.1-0.1,4.2,0.8,6.1c0.2,0.5,0.6,1,1,1.4c0.7,0.8,1.6,1.5,2.3,2.3c0.9,1,2,1.6,3.2,1.9c1.9,0.6,3.8,0.5,5.6-0.1
			c0.9-0.3,1.8-0.9,2.6-1.5c1.2-1,1.5-2.4,1.4-4c-0.1-1.9-1.5-4.3-3.3-4.8c-1.7-0.5-3.5-0.5-5,0.7c-0.6,0.5-1.2,1-1,1.9
			c0,0.2-0.1,0.5-0.1,0.7c-0.7-0.2-1-0.5-1.2-1.1c-0.2-1.2,0.1-2.2,0.8-3.1c0.9-1.4,2.4-2,3.8-2.7c0.7-0.3,1.5-0.4,2.3-0.6
			c0.9-0.3,2-0.3,2.9-0.3c1.7,0,3.4-0.3,5,0.7c0.1,0.1,0.4,0,0.6,0.1c1,0.3,1.9,0.6,2.9,0.9c0.5,0.2,1,0.4,1.5,0.7
			c0.9,0.6,1.8,1.2,2.7,1.9c1,0.8,2.2,1.5,3,2.4c1.4,1.5,2.7,3.2,3.9,4.9c1.1,1.6,2.1,3.2,3.1,4.8C73.3,86.2,73.3,86.4,73.3,86.7z
			 M240.8,77.6c-0.2-0.7-0.2-1.5-0.6-1.9c-0.9-1.1-2.1-1.7-3.5-1.7c-0.8,0-1.7-0.1-2.4,0.3c-1.1,0.6-2,1.4-2.6,2.5
			c-0.8,1.5-0.8,3.8,0.1,5.2c0.8,1.3,2,2.1,3.4,2.5c2.7,0.7,5.4,0.7,7.7-1.1c0.5-0.3,1-0.6,1.4-1c0.6-0.5,1.2-1.1,1.6-1.7
			c0.7-1,1.2-2.1,1.7-3.2c1-2.3,0.3-4.5-0.3-6.6c-0.3-1.1-1.1-2.2-1.9-3.1c-0.8-0.9-1.8-1.6-2.8-2.3c-0.6-0.4-1.4-0.7-2.1-0.9
			c-1.1-0.4-2.1-0.8-3.2-1c-1.5-0.2-3-0.2-4.5-0.2c-1,0-2,0.1-2.9,0.3c-1.3,0.3-2.5,0.7-3.7,1.1c-0.8,0.3-1.7,0.6-2.5,1
			c-0.7,0.3-1.3,0.8-2,1.2c-0.6,0.4-1.1,0.7-1.6,1.1c-0.9,0.7-1.8,1.5-2.6,2.3c-1.3,1.4-2.7,2.8-3.9,4.2c-0.8,1-1.5,2-2.3,3
			c-0.6,0.8-1.4,1.5-1.9,2.3c-0.6,0.9-1.1,1.9-1.6,2.8c-0.2,0.4-0.4,0.8-0.7,1.2c-0.4,0.7-0.9,1.3-1.2,2c-0.6,1.2-1,2.5-1.6,3.6
			c-0.9,1.8-1.6,3.6-2.1,5.5c-0.1,0.3-0.2,0.6-0.3,0.9c-0.4,1.5-0.7,3.1-1,4.6c-0.2,0.8-0.3,1.7-0.4,2.5c-0.1,0.5-0.3,1.1-0.3,1.6
			c-0.1,2-0.3,4-0.3,5.9c0,1.7,0.1,3.5,0.2,5.2c0,1.5,0,3,0.7,4.4c0.1,0.2,0.1,0.5,0.1,0.8c0.2,1.1,0.4,2.2,0.8,3.2
			c0.5,1.4,1.2,2.6,1.9,3.9c0.3,0.6,0.5,1.1,0.9,1.6c0.5,0.9,1,1.8,1.7,2.5c0.8,0.8,1.8,1.4,2.7,2.2c1.2,1,2.6,1.5,4,1.8
			c2.3,0.6,4.7,0.9,7.2,0.4c1.9-0.5,3.7-1.2,5-2.5c1.5-1.5,1.9-3.4,1.5-5.4c-0.3-1.8-1.5-2.9-3.3-3c-1-0.1-1.9,0-2.9,0.1
			c-1.8,0.3-3.1,1.7-2.7,3.7c0.1,0.8,0.1,1.6,1,2.1c0.4,0.2,0.2,1-0.3,1.1c-0.7,0.1-1.4,0.3-2,0.3c-1.4,0.1-2.8-0.1-4-0.9
			c-1-0.6-2-1.1-2.9-1.8c-1.2-1-2.3-2.1-3-3.6c-0.6-1.2-1.2-2.4-1.7-3.6c-0.4-1.1-0.7-2.3-1-3.4c-0.4-1.5-0.9-2.9-1-4.4
			c-0.4-3.8-0.8-7.7,0.4-11.5c0.4-1.3,0.6-2.6,1-3.8c0.4-1.2,1-2.4,1.5-3.6c0.4-0.8,0.8-1.7,1.3-2.5c0.6-0.9,1.4-1.6,2.1-2.4
			c1.1-1.2,2.3-2.2,3.8-2.9c0.7-0.3,1.3-0.7,2-0.9c1.2-0.4,2.5-0.8,3.8-1.1c1-0.2,2-0.1,3-0.1c0.2,0,0.4-0.2,0.5-0.3
			c-0.1-0.2-0.2-0.3-0.3-0.5c-1.3-1.4-3-2-4.8-2c-0.9,0-1.9,0.3-2.8,0.4c-1.2,0.1-2.2,0.8-3.2,1.4c-0.3,0.2-0.6,0.4-0.9,0.6
			c-0.2,0.1-0.4,0.2-0.6,0.2c0-0.2-0.1-0.5-0.1-0.7c0.2-0.5,0.5-0.9,0.8-1.3c1.1-1.5,2.2-3,3.2-4.5c1.1-1.6,2.4-3.2,3.9-4.5
			c1.1-0.9,2.2-1.7,3.3-2.6c0.5-0.4,1-0.7,1.6-1c1.1-0.6,2.2-1.2,3.3-1.6c0.8-0.3,1.6-0.5,2.4-0.6c1.5-0.2,3.1-0.3,4.6-0.3
			c0.9,0,1.9,0.2,2.8,0.3c0.3,0,0.6,0.5,0.9,0.4c1.4-0.1,2.3,0.6,3.3,1.4c1.5,1.1,2.6,2.4,2.5,4.5C241.9,77,241.5,77.4,240.8,77.6z
			 M201.1,95.5c0.2-0.9,0.4-1.5,0.6-2.1c0.3-1.1,0.9-2.1,0.9-3.2c0.1-4.2,0.1-8.3,0.1-12.5c0-0.8-0.3-1.3-1.1-1.6
			c-1.1-0.4-2.2-1-3.3-1.5c-0.5-0.2-1.1-0.5-1.6-0.7c-0.7-0.4-1.5-0.8-2.2-1.1c-0.9-0.4-1.9-0.8-2.8-1.2c-0.7-0.3-1.3-0.6-2-0.9
			c-0.9-0.3-1.9-0.6-2.9-0.9c-1.2-0.4-2.4-1-3.7-1.4c-0.9-0.3-1.7-0.7-2.6-1c-0.9-0.3-1.8-0.7-2.7-1c-1.2-0.4-2.4-0.6-3.6-0.9
			c-1.6-0.4-3.2-0.8-4.8-1.2c-0.3-0.1-0.7-0.1-1-0.2c-1.2-0.4-2.5-0.8-3.7-1.2c-1.2-0.3-2.3-0.5-3.5-0.7c-1.8-0.3-3.6-0.6-5.5-0.8
			c-1.6-0.2-3.2-0.4-4.7-0.5c-2.6-0.1-5.1-0.3-7.7-0.3c-4.6,0.1-9.1-0.3-13.7,0.5c-1.7,0.3-3.4,0.4-5,0.7c-2.1,0.3-4.2,0.7-6.3,1
			c-0.4,0.1-0.9,0-1.3,0.2c-1.5,0.4-2.9,0.8-4.4,1.2c-1.3,0.3-2.6,0.5-3.8,0.8c-0.2,0-0.3,0.2-0.4,0.2c-1.1,0.4-2.2,0.8-3.4,1.2
			c-1.2,0.4-2.3,0.7-3.5,1c-0.7,0.2-1.4,0.3-2,0.6c-0.9,0.3-1.7,0.8-2.6,1.1c-0.7,0.3-1.4,0.5-2.2,0.8c-0.4,0.1-0.8,0.2-1.2,0.4
			c-0.8,0.3-1.5,0.7-2.3,1c-1.4,0.6-2.8,1.1-4.2,1.7c-1.9,0.9-3.7,1.8-5.6,2.8c-0.9,0.5-1.9,0.8-1.9,2.1c0,3.6,0,7.1,0,10.7
			c0,0.4,0.1,0.9,0.3,1.3c0.3,0.9,0.8,1.7,0.8,2.6c0.1,0.9,0.2,1.4,1.2,1.5c0-0.5-0.1-1-0.1-1.5c0-4.4,0-8.8,0-13.2
			c0-0.5,0.2-1.2,0.5-1.4c0.8-0.6,1.7-1.1,2.6-1.5c0.7-0.3,1.5-0.5,2.2-0.9c1.6-0.7,3.2-1.5,4.8-2.2c0.6-0.3,1.3-0.5,1.9-0.8
			c1.7-0.7,3.2-1.6,5.1-1.9c0.3,0,0.5-0.2,0.8-0.3c1-0.4,1.9-0.8,2.9-1.1c0.5-0.2,0.9-0.3,1.4-0.4c1.7-0.5,3.3-1.1,5-1.6
			c1.4-0.4,2.8-0.7,4.2-1c1.5-0.4,2.9-0.8,4.4-1.1c2.5-0.5,5-1,7.6-1.4c2.7-0.4,5.3-0.6,8-0.9c0.4,0,0.8,0,1.2,0
			c3.1,0,6.2-0.2,9.3-0.1c3.1,0.1,6.1-0.1,9.2,0.6c1.8,0.4,3.8,0.4,5.7,0.8c1.7,0.4,3.6,0.4,5.4,0.8c2.5,0.5,5,1.3,7.5,1.9
			c0.7,0.2,1.5,0.3,2.2,0.5c1.1,0.3,2.1,0.7,3.1,1c1.2,0.4,2.5,0.7,3.7,1.1c0.1,0,0.1,0.1,0.2,0.1c0.9,0.4,1.7,0.7,2.6,1.1
			c1.1,0.4,2.2,0.7,3.3,1.1c1.4,0.5,2.8,1.1,4.1,1.7c0.9,0.4,1.8,0.8,2.7,1.3c1.2,0.6,2.5,1.1,3.7,1.7c0.8,0.4,1.5,0.8,2.3,1.2
			c0.3,0.2,0.6,0.4,0.9,0.7c0.6,0.6,0.3,1.4,0.3,2.1c0,4.5,0,8.9,0,13.4c0,0.4,0,0.9,0.1,1.3C200.6,95,200.9,95.2,201.1,95.5z
			 M196.5,151.6c0,0.1,0,0.2,0,0.3c0.3,0.1,0.6,0.2,0.8,0.3c0.4,0.1,0.8,0.1,1.2,0.3c1,0.3,2.1,0.7,3.1,1.1c0.8,0.3,1.7,0.7,2.4,1.2
			c1.7,1.4,3.2,3,3.9,5.2c0.6,1.7,1.2,3.4,1.2,5.2c0,2.1,0.2,4.2-0.5,6.2c-0.4,1.1-0.6,2.3-1.1,3.3c-0.5,1.1-1.2,2.2-1.9,3.3
			c-0.7,1.1-1.5,2.3-2.4,3.2c-1.2,1.1-2.3,2.4-3.9,3.1c-0.3,0.1-0.5,0.4-0.7,0.7c-0.1,0.3-0.1,0.7-0.1,1c0,0.1,0.4,0.2,0.5,0.1
			c0.5-0.2,1.1-0.5,1.5-0.8c1.4-1.1,2.7-2.2,4.2-3.2c2-1.4,3.4-3.4,5-5.2c0.7-0.9,1.1-2,1.8-3c1.2-1.9,1.8-4,2.5-6.1
			c0.5-1.5,0.6-3.1,0.7-4.7c0.3-2.9-0.2-5.7-0.6-8.5c-0.1-0.7-0.6-0.7-1.1-0.6c-0.2,0-0.3,0.2-0.5,0.2c-1,0.3-1.2,0.2-1.2-0.9
			c0-0.9,0.1-1.8,0-2.6c-0.1-2-0.3-4-1.3-5.8c-0.4-0.7-0.8-1.5-1.2-2.3c-0.3-0.6-0.8-0.5-1.3-0.3c-0.4,0.2-0.8,0.6-1.2,0.9
			c-0.5,0.5-1.1,0.9-1.7,1.4c-2.5-2.9-4.3-6-5.1-9.6c-0.2,0.3-0.3,0.5-0.4,0.6c-0.9,0.8-1.1,1.9-1.2,3c-0.2,1.7-0.3,3.3,0.5,4.9
			c0.6,1.3,1.1,2.6,1.7,3.8c0.5,0.9,1.1,1.7,1.7,2.5c0.4,0.5,0.2,0.7-0.3,0.8c-0.4,0-0.7,0-1.1,0C199.2,151,197.9,151.3,196.5,151.6
			z M83.2,135.1c-0.1,0-0.2,0-0.2,0.1c-0.1,0.4-0.3,0.7-0.4,1.1c-0.3,1-0.6,2.1-1,3c-0.7,1.4-1.6,2.7-2.5,4.1
			c-0.6,0.9-1.3,1.3-1.8,0.8c-0.6-0.5-1.1-1-1.7-1.6c-0.6-0.6-1.3-0.7-1.8,0c-0.6,0.9-1.2,1.8-1.5,2.8c-0.4,1.4-0.6,2.9-0.7,4.3
			c-0.1,1.3-0.1,2.5-0.1,3.8c0,0.6-0.2,0.8-0.8,0.7c-0.4-0.1-0.8-0.3-1.2-0.3c-0.3,0-0.8,0.2-0.9,0.4c-0.3,1-0.5,2-0.5,3
			c-0.1,2.3-0.1,4.6,0,6.9c0.1,1.3,0.3,2.6,0.7,3.8c0.5,1.6,1.3,3.1,1.9,4.7c0.8,2,2,3.8,3.4,5.3c1.2,1.4,2.6,2.6,3.9,3.9
			c1.6,1.6,3.6,2.7,5.6,3.9c0.4,0.2,0.7,0.1,0.6-0.4c0-0.3-0.2-0.7-0.4-0.9c-0.5-0.4-1-0.7-1.5-1.2c-0.8-0.7-1.7-1.5-2.5-2.3
			c-0.9-1-1.9-2-2.7-3.2c-0.6-1-1.3-1.9-1.7-3.1c-0.5-1.7-1.4-3.3-1.7-5.1c-0.3-1.7-0.3-3.5-0.2-5.2c0.1-1.5,0.6-3,0.9-4.5
			c0-0.1,0-0.1,0.1-0.2c0.8-1.8,1.8-3.4,3.3-4.7c1.4-1.3,3-1.9,4.6-2.5c1-0.4,2.2-0.6,3.3-0.8c0.2,0,0.3-0.2,0.6-0.3
			c-0.4-0.2-0.6-0.3-0.8-0.3c-1.4-0.2-2.8-0.5-4.2-0.7c-0.2,0-0.4-0.1-0.7-0.2c0.1-0.2,0.1-0.5,0.2-0.7c0.4-0.6,0.8-1.2,1.2-1.9
			c0.5-0.9,1-1.8,1.5-2.8c0.8-1.3,1.3-2.7,1.3-4.2c0-1.4,0.1-2.8-0.7-4.1C83.8,136.4,83.6,135.7,83.2,135.1z M205.8,140.7
			c0.7-0.4,1.1-0.8,1.6-1c0.3-0.1,0.7-0.1,0.9,0c1.8,1,2.9,2.6,3.6,4.4c0.8,2,1.3,4.1,1.4,6.3c0.1,1.3,0,1.3,1.3,1.1
			c0.9-0.2,1.2,0.1,1.4,0.9c0.2,1,0.5,2,0.6,3c0.2,2.4,0.2,4.8,0.3,7.2c0,0.9-0.1,1.8-0.3,2.7c-0.3,1.2-0.7,2.5-1,3.7
			c-0.3,1-0.5,2-0.9,3c-0.8,1.6-1.6,3.2-2.6,4.7c-0.8,1.3-1.6,2.5-2.6,3.6c-1.5,1.7-3.1,3.2-5.1,4.3c-1,0.5-1.9,1.2-2.8,1.7
			c-0.7,0.4-1.6,0.4-2.3,0.8c-1.4,0.8-2.6,1.8-3.6,3.2c0.4,0,0.6,0,0.8,0c1.3-0.2,2.6-0.3,3.8-0.5c0.1,0,0.2,0,0.3-0.1
			c1.4-0.6,2.7-1.2,4.1-1.9c1.1-0.6,2.4-1.1,3.3-2.1c1.1-1.2,2.4-2.1,3.6-3.2c1.3-1.3,2.4-2.9,3.4-4.5c0.5-0.9,1-1.9,1.5-2.8
			c0.7-1.4,1.4-2.8,1.9-4.2c0.4-1.3,0.6-2.8,0.8-4.2c0.2-0.9,0.4-1.8,0.5-2.7c0.1-3.4,0.2-6.9-0.5-10.3c-0.2-1-0.1-2.2-0.3-3.2
			c-0.3-1.6-0.7-3.2-1.1-4.8c-0.5-1.8-0.9-3.6-1.4-5.4c-0.3-1-1-1.6-2.1-1.7c-0.3,0-0.6,0-0.9-0.2c-0.9-0.4-1.8-0.9-2.8-1.3
			c-1.4-0.5-2.7-1.3-3.8-2.3c-1-0.9-2.2-1.8-2.7-3.1c-0.1-0.2-0.5-0.2-0.8-0.2c-0.2,0-0.4,0.2-0.4,0.4c-0.1,0.4-0.2,0.8-0.3,1.2
			c-0.6,1.4,0,2.7,0.5,3.8C203.7,138.3,204.9,139.4,205.8,140.7z M86.7,190.3c0.1-0.1,0.1-0.2,0.2-0.3c-0.8-0.7-1.6-1.5-2.5-2.2
			c-0.4-0.3-1-0.6-1.5-0.8c-1.2-0.6-2.5-1.1-3.7-1.7c-0.9-0.5-1.7-1.1-2.5-1.8c-1-0.8-2.2-1.5-3-2.5c-1.4-1.7-2.6-3.5-3.8-5.3
			c-0.9-1.4-1.5-3-2.1-4.5c-0.4-0.8-0.6-1.7-0.8-2.5c-0.4-1.5-1-2.9-1.2-4.4c-0.4-4-0.3-8,0.7-12c0.2-0.8,0.5-1,1.3-0.9
			c0.4,0.1,0.8,0.2,1.2,0.3c0.1-0.3,0.2-0.6,0.2-0.8c0-2.4,0.7-4.8,1.6-7c0.7-1.7,1.8-3.3,3.6-4.2c0.2-0.1,0.5-0.1,0.7,0
			c0.6,0.2,1.1,0.5,1.6,0.8c3.4-2.6,4.2-6.1,2.9-8.9c-0.3,0.1-0.8,0-1,0.3c-0.6,0.6-0.9,1.3-1.5,1.9c-1.1,1-2.3,2-3.6,2.8
			c-0.7,0.5-1.6,0.9-2.4,1.2c-1,0.4-2,0.6-2.9,1c-0.6,0.3-1.5,0.6-1.7,1.1c-0.6,1.6-1.1,3.3-1.5,5c-0.5,1.9-0.9,3.9-1.3,5.9
			c-0.3,1.9-0.5,3.9-0.7,5.9c-0.4,4.6-0.3,9.2,1.1,13.8c0.6,2,1.5,3.9,2.4,5.8c0.2,0.5,0.5,1,0.9,1.5c0.6,0.9,1.2,1.7,1.8,2.5
			c0.8,1.1,1.5,2.2,2.5,3.2c1,1,2.2,1.9,3.3,2.8c0.3,0.3,0.7,0.6,1.1,0.7c1.2,0.6,2.3,1.1,3.5,1.6c1.3,0.6,2.6,1.3,4.1,1.3
			c0.2,0,0.5,0,0.7,0.1C85.2,190,85.9,190.2,86.7,190.3z M183.7,188.7c0.1,0,0.1-0.1,0.2-0.1c-0.4-0.4-0.7-0.9-1.2-1.1
			c-0.2-0.1-0.8,0.3-1.1,0.6c-1.3,1.2-2.6,2.5-3.9,3.7c-1.6,1.4-3.3,2.7-4.9,4c-1.7,1.3-3.4,2.7-5.1,4c-0.8,0.6-1.6,1.1-2.4,1.6
			c-1.6,1.1-3.1,2.3-4.7,3.4c-0.8,0.6-1.6,1.1-2.4,1.6c-0.9,0.6-1.7,1.2-2.6,1.8c-1.3,0.9-2.7,1.8-4,2.7c-0.5,0.3-1,0.6-1.5,0.9
			c-1,0.6-2.1,1.1-3.1,1.7c-0.7,0.4-1.4,0.8-2.1,1.2c-0.5,0.3-1.1,0.8-1.6,1c-0.8,0.4-1.5,1.3-2.5,1c-0.4-0.1-0.8-0.4-1.2-0.6
			c-1-0.5-2.1-1-3.1-1.6c-1.5-0.9-3-1.8-4.5-2.7c-1.2-0.8-2.4-1.6-3.5-2.4c-1.5-1-3.1-2.1-4.6-3.1c-1.7-1.2-3.4-2.3-5.1-3.5
			c-1.7-1.2-3.3-2.4-5-3.6c-1.2-0.9-2.4-1.8-3.5-2.7c-1.5-1.2-3-2.4-4.4-3.6c-1.8-1.5-3.6-3-5.3-4.5c-0.5-0.4-0.8-0.6-1.3-0.3
			c-0.4,0.3-0.5,1.5-0.1,1.9c0.8,0.7,1.6,1.4,2.3,2.1c0.7,0.7,1.5,1.4,2.2,2c1,0.8,2.1,1.6,3.1,2.4c1.3,1.1,2.6,2.2,3.9,3.3
			c0.8,0.6,1.7,1.1,2.5,1.7c1.1,0.8,2.1,1.7,3.2,2.5c1.7,1.2,3.4,2.4,5.2,3.6c0.5,0.3,1,0.6,1.5,1c0.8,0.5,1.6,0.9,2.3,1.5
			c1.7,1.1,3.4,2.3,5.1,3.4c1,0.6,2,1.2,2.9,1.8c1,0.6,1.9,1.2,2.9,1.8c1.1,0.7,2.3,1.3,3.4,1.9c0.6,0.3,1.2,0.9,1.9,0.5
			c1.9-1,3.7-2.1,5.6-3.2c1.5-0.9,3-1.9,4.5-2.8c1.4-0.9,2.9-1.8,4.3-2.8c0.3-0.2,0.6-0.5,1-0.7c0.9-0.6,1.9-1.1,2.8-1.8
			c1.2-0.8,2.3-1.7,3.5-2.5c1.3-0.9,2.5-1.7,3.8-2.6c1.4-1,2.7-2,4-3.1c1.1-0.9,2.3-1.7,3.4-2.6c0.7-0.5,1.3-1.1,1.9-1.7
			c1-0.8,2.1-1.7,3.1-2.5c1-0.9,2.1-1.7,3-2.6C182.9,189.9,183.9,189.8,183.7,188.7z M123.7,41.2c-0.5-1.4-0.9-2.5-1.4-3.5
			c-0.6-1.2-1.3-2.3-1.9-3.4c-0.5-1.1-1.5-1.7-2.5-2.1c-1.4-0.6-2.8-0.3-4.3,0.4c-1.7,0.9-2.3,2.3-2.4,3.9c-0.1,1.1,0.3,2.3,0.8,3.3
			c0.7,1.5,1.7,2.9,2.5,4.3c0.5,0.8,1.1,0.9,1.9,0.5c1.4-0.7,2.9-1.3,4.4-1.9C121.9,42.2,122.9,41.7,123.7,41.2z M166.4,31.9
			c-1.4-0.1-2.5,0.5-3.2,1.6c-1,1.4-1.7,3-2.5,4.5c-0.4,0.7-0.8,1.4-1.1,2.2c-0.2,0.6-0.3,1.2,0.4,1.6c0.6,0.3,1.2,0.6,1.8,0.9
			c1.6,0.7,3.2,1.3,4.8,2c0.6,0.2,1.1,0.5,1.6-0.2c0.5-0.8,0.9-1.5,1.4-2.2c1-1.5,1.8-3.1,2-4.9c0.1-1.5,0-2.9-1.3-4
			C169.2,32.3,167.9,31.9,166.4,31.9z M132.3,27.8c0-0.1,0-0.2-0.1-0.3c-0.9,0.3-1.9,0.7-2.8,0.8c-1.2,0.2-2.2,0.8-3,1.6
			c-1.2,1.2-1.8,2.6-1.7,4.2c0,0.6,0,1.2,0.2,1.7c0.2,0.8,0.5,1.6,0.8,2.3c0.3,0.8,0.9,1.4,1.1,2.2c0.2,0.7,0.6,0.9,1.2,0.9
			c0.4,0,0.8-0.1,1.2-0.2c1.9-0.6,3.8-1.3,5.7-1.9c0.5-0.1,0.6-0.3,0.5-0.8c-0.3-1.1-0.5-2.2-0.8-3.2c-0.7-1.8-0.7-3.5-0.5-5.4
			c0.1-0.4,0.2-0.9,0.4-1.3c0.3-0.5,0.1-0.7-0.4-0.8C133.4,27.8,132.8,27.8,132.3,27.8z M147.7,39c0.1,0,0.4,0.2,0.7,0.3
			c1.1,0.4,2.2,0.8,3.4,1.1c1.1,0.3,2.3,0.7,3.5,0.9c0.3,0.1,0.7-0.2,0.8-0.4c0.3-0.7,0.5-1.4,0.8-2.1c0.7-1.3,1.3-2.6,1.3-4.1
			c0-1.5,0.1-3.1-1.1-4.3c-0.5-0.5-1.2-0.8-1.7-1.3c-1-0.8-2.3-1.1-3.5-1.3c-0.8-0.1-1.6,0-2.4,0c-0.6,0-0.8,0.1-0.7,0.8
			c0.2,1,0.5,2.1,0.4,3.1C148.8,34,148.3,36.4,147.7,39z M144.2,36.9c0.9-1.1,1.8-2.1,2-3.7c0.1-1.4-0.4-2.6-1-3.8
			c-0.5-0.9-1-1.1-1.6-0.7c-0.4,0.2-0.8,0.5-1.2,0.7c-0.7,0.3-2.2,0.1-2.7-0.4c-0.5-0.5-1-0.4-1.4,0.2c-0.4,0.6-0.8,1.2-1.1,1.9
			c-1,2,0.1,4.3,1.3,5.5c0.2,0.2,0.7,0.3,1,0.2c0.5-0.2,0.9-0.6,1.4-0.7c0.5-0.1,1-0.2,1.5,0C143,36.1,143.5,36.5,144.2,36.9z
			 M79.4,159.4c0.1,1.6-0.2,3.3,0.5,4.9c0.2,0.5,0.4,1,0.6,1.5c0.3,0.8,0.6,1.7,0.9,2.5c0.2,0.6,0.6,1.1,0.9,1.6
			c0.5,0.9,1.1,1.7,1.7,2.6c0.4,0.7,0.8,1.4,1.3,2.1c0.5,0.8,1.1,1.6,1.7,2.4c0.7,0.8,1.3,1.9,2.7,1.5c0.7-0.2,0.9-0.6,0.5-1.1
			c-0.3-0.4-0.7-0.8-1-1.2c-0.8-1.1-1.5-2.2-2.3-3.3c-1-1.5-1.9-3.1-2.8-4.7c-0.3-0.5-0.5-1.1-0.8-1.6c-0.6-1.2-1.3-2.4-1.3-3.8
			c-0.1-1.8-0.1-3.6-0.1-5.4c0-0.6,0.1-1.3-0.1-1.9c-0.1-0.3-0.5-0.9-0.8-0.9c-0.7,0-1.5,1.2-1.5,1.9
			C79.4,157.4,79.4,158.4,79.4,159.4z M202.8,159.3C202.7,159.3,202.7,159.3,202.8,159.3c0-1-0.2-1.9,0-2.9c0.2-1.1-0.5-1.5-1.2-2
			c-0.5-0.4-0.9-0.2-1,0.5c0,0.3-0.1,0.5-0.1,0.8c0,1.9,0,3.9,0,5.8c0,0.6-0.2,1.2-0.3,1.8c-0.2,0.8-0.5,1.6-0.8,2.3
			c-0.5,1.2-1,2.4-1.7,3.6c-0.6,1.1-1.3,2.1-1.9,3.1c-0.5,0.8-1,1.7-1.6,2.4c-0.5,0.7-1.1,1.4-1.7,2.1c-0.4,0.5-0.6,1.1,0,1.3
			c0.5,0.2,1.5,0.3,1.8,0c0.9-0.8,1.5-1.8,2.2-2.8c0.7-1,1.3-2.1,2-3.1c1-1.5,1.9-3,2.5-4.6c0.2-0.6,0.5-1.2,0.8-1.8
			c0.7-1.3,1.3-2.6,1.2-4.2C202.7,160.8,202.8,160,202.8,159.3z M65.3,92.6c-0.1,0.2-0.2,0.4-0.2,0.4c0.3,0.7,0.6,1.4,0.9,2
			c0.6,1.3,1.4,2.6,1.8,3.9c0.4,1.2,0.6,2.5,0.8,3.8c0.2,1,0.5,2.1,0.5,3.1c0.1,3,0.1,6.1,0,9.1c-0.1,2.3-0.5,4.7-0.8,7
			c0,0.1,0,0.1,0,0.2c-0.4,1.8-0.8,3.6-1.2,5.4c-0.1,0.5-0.4,0.9-0.4,1.4c-0.1,0.7-0.2,1.4-0.2,2c0.1,0.7,0.7,0.6,1.1,0.4
			c0.2-0.1,0.3-0.5,0.4-0.8c0.5-2.1,0.9-4.2,1.4-6.3c0-0.1,0-0.2,0.1-0.3c0.4-2,1-3.9,1.2-5.9c0.4-4.6,0.5-9.2,0.1-13.9
			c0-0.3-0.2-0.6-0.3-1c-0.4-1.3-0.8-2.6-1.2-3.9c-0.2-0.6-0.5-1.3-0.7-1.9c-0.3-0.6-0.5-1.3-0.9-1.8C66.9,94.6,66.1,93.7,65.3,92.6
			z M217.5,93c-1.4,0.8-2.1,2-2.6,3.2c-0.3,0.6-0.6,1.2-0.8,1.8c-0.4,1-0.9,1.9-1.2,2.9c-0.4,1.7-0.7,3.5-0.9,5.3
			c-0.2,1.6-0.3,3.2-0.4,4.8c0,0.8,0.2,1.7,0.3,2.5c0.2,1.8,0.2,3.7,0.5,5.5c0.3,2.1,0.7,4.2,1.2,6.3c0.2,0.8,0.5,1.6,0.7,2.4
			c0.3,1.1,0.5,2.1,0.8,3.2c0.1,0.2,0.4,0.5,0.5,0.5c0.3-0.1,0.7-0.3,0.8-0.5c0.1-0.4,0.1-0.8,0-1.2c-0.1-0.4-0.4-0.8-0.5-1.2
			c-0.5-2-1-4-1.3-6.1c-0.4-2.2-0.7-4.3-0.8-6.5c-0.1-3.3-0.1-6.6,0-9.9c0-1.2,0.4-2.3,0.6-3.5c0.3-1.3,0.5-2.6,0.9-3.9
			c0.2-0.8,0.5-1.6,0.9-2.3c0.5-0.9,1.1-1.8,1.7-2.7C217.7,93.5,217.5,93.2,217.5,93z M213,90.1c0-0.1-0.1-0.2-0.1-0.3
			c-0.2,0-0.5,0-0.6,0.1c-0.8,0.6-1.5,1.3-2.3,2c-0.3,0.3-0.6,0.6-0.8,0.9c-0.6,0.8-1.2,1.6-1.7,2.4c-0.6,1-1.3,2-1.8,3.1
			c-0.4,1-0.7,2-1,3c-0.4,1.2-0.8,2.4-1,3.6c-0.8,4.8-0.4,9.6,0.6,14.3c0,0.1,0,0.2,0.1,0.3c0.4,1.2,0.8,2.4,1.2,3.5
			c0.1,0.2,0.3,0.4,0.4,0.7c0.1-0.3,0.3-0.5,0.2-0.8c-0.2-0.8-0.5-1.6-0.6-2.4c-0.3-2-0.6-4-0.7-6c-0.3-4.3-0.2-8.6,1.1-12.7
			c0.4-1.4,0.9-2.7,1.6-3.9c0.8-1.4,1.5-2.8,2.3-4.2c0.2-0.4,0.5-0.9,0.8-1.3C211.6,91.7,212.3,90.9,213,90.1z M69.6,90
			c0.4,0.6,0.8,1.2,1.3,1.8c0.8,1.1,1.7,2.2,2.5,3.3c0.3,0.4,0.6,0.9,0.8,1.3c0.5,1.2,1,2.4,1.5,3.7c0.4,1,0.9,1.9,1.2,3
			c0.3,1.2,0.6,2.5,0.7,3.8c0.1,2.2,0.2,4.4,0.1,6.5c-0.1,2.3-0.5,4.6-0.7,6.8c0,0.3-0.1,0.5-0.1,0.8c-0.2,0.9-0.5,1.9-0.7,2.8
			c0.1,0,0.2,0.1,0.2,0.1c0.2-0.1,0.4-0.1,0.4-0.2c0.3-0.8,0.6-1.5,0.8-2.3c0.4-1.5,0.7-2.9,1-4.4c0.2-0.7,0.4-1.5,0.5-2.2
			c0.1-1.6,0.1-3.3,0.1-5c0-1.5,0-2.9-0.2-4.4c-0.2-1.5-0.6-2.9-1-4.3c-0.3-1-0.6-2-1-2.9c-0.5-1.1-1.2-2.2-1.9-3.3
			c-0.6-0.9-1.3-1.8-2-2.6c-0.7-0.8-1.6-1.3-2.2-2.1C70.4,89.7,70.1,89.6,69.6,90z M138.6,57.1c0,0,0-0.1,0-0.1c0.6,0,1.2,0,1.7,0
			c0.5,0,0.7-0.2,0.8-0.7c0-0.7,0-1.4,0.1-2.1c0.1-0.7-0.3-0.9-1-1c-2.2-0.2-4.4,0.5-6.7,0.2c-1-0.1-2.1,0.1-3.1,0.1
			c-1,0-1.6,0.6-1.3,1.7c0.1,0.7,0.4,1.3,0.7,1.9c0.1,0.2,0.4,0.4,0.6,0.4c0.8-0.1,1.7-0.3,2.5-0.4
			C134.7,57.1,136.7,57.1,138.6,57.1z M44.5,72.4c0.3,0,0.5,0,0.7-0.1c1.3-0.2,2.5-0.5,3.8-0.7c2.3-0.2,4.6,0.2,6.8,0.9
			c0.8,0.3,1.7,0.5,2.5,1c1.5,1,3,2,4.3,3.2c1.4,1.3,2.6,2.7,3.8,4.2c0.8,0.9,1.6,1.8,2.7,2.3c0.3,0.1,0.6,0,1,0
			c-0.1-0.3-0.2-0.6-0.3-0.9c-0.1-0.1-0.2-0.3-0.3-0.4c-0.8-1-1.5-2.1-2.4-3.1c-1-1.1-2.1-2.2-3.3-3.2c-1.1-0.9-2.3-1.8-3.4-2.6
			c-0.5-0.3-1-0.5-1.5-0.8c-0.7-0.4-1.4-0.9-2.2-1.1c-1.9-0.4-3.7-1-5.7-0.8c-1.4,0.2-2.9-0.5-4.2,0.6
			C45.6,70.9,45.2,71.7,44.5,72.4z M212.8,83.4c1.1-0.1,2-0.7,2.7-1.5c0.8-1,1.5-2.1,2.4-2.9c1.3-1.3,2.8-2.5,4.2-3.7
			c2-1.8,4.4-2.6,6.9-3.2c2.2-0.5,4.4-0.5,6.6-0.2c0.3,0,0.7,0.1,1,0c0.2,0,0.3-0.2,0.5-0.3c-0.1-0.1-0.2-0.3-0.4-0.3
			c-0.3-0.1-0.7,0-0.9-0.2c-0.6-0.6-1.3-0.5-2-0.5c-1.4,0-2.7,0-4.1,0c-0.5,0-0.9,0.1-1.4,0.2c-0.5,0.1-1.1,0.3-1.6,0.4
			c-0.2,0.1-0.5,0-0.6,0.1c-2,1-4.1,1.8-5.7,3.4c-1.3,1.3-2.8,2.5-4.1,3.8c-0.9,1-1.8,2-2.6,3.1C213.3,82,212.4,82.4,212.8,83.4z
			 M61.4,80.1c0-0.3,0-0.7-0.2-1c-0.4-1.2-2.7-2.3-3.8-2c-0.4,0.1-0.8,0.4-1.2,0.5c-1,0.3-1.9,1.4-1.9,2.4c0,1,1,2.2,2,2.5
			c1,0.3,1.9,0.4,2.9,0.1C60.7,82.2,61.4,81.5,61.4,80.1z M221.3,80.1c-0.1,0.6,0.2,1.1,0.7,1.7c0.5,0.6,1.1,0.8,1.8,0.9
			c1,0.1,2,0,2.9-0.3c0.6-0.2,1-0.7,1.3-1.4c0.5-1.2-0.1-3-1.3-3.4c-1.2-0.5-2.3-0.8-3.6-0.2C221.9,78,221.3,78.6,221.3,80.1z
			 M54.9,96.4c0-0.1-0.1-0.3-0.1-0.4c-0.6,0.1-1.3,0-1.8,0.2c-1.3,0.6-2.5-0.1-3.5-0.6c-0.8-0.3-1.6-1.4-2-2.3
			c-0.4-0.9-0.5-2.2-0.1-3c0.9-1.9,2.7-2.8,4.5-3.5c0.8-0.3,1.6-0.7,2.4-1c0-0.1-0.1-0.3-0.1-0.4c-1.2,0.2-2.5,0.4-3.7,0.7
			c-0.8,0.2-1.7,0.7-2.3,1.2c-0.9,0.8-1.8,1.7-2.2,2.8c-0.4,1-0.3,2.2-0.1,3.3c0.1,0.7,0.6,1.4,1.1,1.8c0.8,0.7,1.8,1.1,2.7,1.6
			c1.2,0.7,2.5,0.5,3.7,0.2C53.9,97.1,54.4,96.7,54.9,96.4z M227.6,96.4c1.2,0.4,2.2,1.1,3.4,1c1.3-0.1,2.3-0.5,3.4-1
			c0.6-0.3,1.2-0.8,1.7-1.3c1-1.3,1.1-2.8,0.8-4.3c-0.1-0.7-0.6-1.4-1.1-1.9c-0.5-0.6-1.1-1.2-1.7-1.6c-0.8-0.5-1.7-0.9-2.6-1.2
			c-0.6-0.2-1.3-0.3-2-0.4c-0.3-0.1-0.7-0.1-1.1-0.1c0.4,0.5,0.8,1,1.3,1.1c1.4,0.3,2.6,1,3.8,1.8c1,0.7,1.9,1.6,2,2.9
			c0.1,1.8-0.6,3.2-2.2,4.1c-1.1,0.7-2.3,1.1-3.7,0.7C229.1,96,228.4,95.7,227.6,96.4z M144.8,57C144.8,57,144.8,57,144.8,57
			c0.6,0,1.2,0,1.8,0c0.6,0,0.9-0.3,0.9-0.8c0-0.7,0-1.3,0.1-2c0.1-0.6-0.2-0.8-0.7-0.8c-1.3,0-2.7-0.1-4-0.1c-0.4,0-1,0.3-1,0.6
			c-0.1,0.7-0.1,1.5,0,2.2c0.1,0.6,0.6,0.9,1.3,0.9C143.6,57,144.2,57,144.8,57z M201.1,124.6c-0.2,0.3-0.5,0.5-0.5,0.7
			c-0.1,0.6-0.1,1.3-0.1,1.9c0,1.2,0,2.3,0,3.5c0,0.4,0.1,0.9,0.7,0.8c0.8-0.1,1.7-1.6,1.5-2.5c-0.4-1.3-0.8-2.6-1.2-4
			C201.3,125.1,201.2,124.9,201.1,124.6z M212.7,126.9c0-0.8-0.9-1.6-1.9-1.6c-0.9,0-1.9,0.9-2,1.6c-0.1,0.7,1,1.7,1.9,1.8
			C211.6,128.7,212.7,127.8,212.7,126.9z M68.6,90.6c0-0.9-0.7-1.6-1.7-1.7c-0.8,0-2.1,0.8-2,1.6c0.1,0.9,0.9,1.8,1.9,1.8
			C67.8,92.3,68.5,91.6,68.6,90.6z M70,127c0,0.9,0.9,1.7,1.9,1.7c1,0,1.8-0.8,1.8-1.9c0-0.9-0.7-1.5-1.7-1.5
			C71.1,125.3,70,126.2,70,127z M214.2,90.5c0,0.9,0.8,1.7,1.8,1.7c1,0,1.8-0.8,1.9-1.7c0.1-0.8-1.1-1.7-1.8-1.7
			C215,88.9,214.2,89.6,214.2,90.5z M208.9,103.8c0.5,0,0.8,0,1-0.1c0.5-0.1,1.4-1.3,1.2-1.7c-0.2-0.4-0.4-1-0.8-1.1
			c-0.9-0.3-1.9-0.5-2.6,0.3c-0.3,0.3-0.6,1.2-0.4,1.5C207.7,103.3,208.2,104.1,208.9,103.8z M73.3,103.8c0.4,0,0.6,0,0.8-0.1
			c1.1-0.2,1.6-1.3,1-2.2c-0.5-0.8-2.4-1.1-3-0.4c-0.4,0.4-1,1-0.5,1.6C72.1,103.3,72.6,104,73.3,103.8z M74,116.5
			c1.1,0,2-0.7,2.1-1.6c0-0.6-1.2-1.6-2-1.6c-1,0-1.9,0.7-1.9,1.6C72.1,115.8,72.9,116.5,74,116.5z M73.3,119.5
			c-1.3,0-1.9,0.5-1.9,1.5c0,0.9,0.8,1.6,1.9,1.5c1.2,0,1.8-0.5,1.8-1.5C75.1,120,74.5,119.5,73.3,119.5z M208.6,116.5
			c0.9,0,2.1-0.9,2.1-1.5c0-0.6-1.3-1.6-2.1-1.6c-0.8,0-1.9,1-1.9,1.6C206.7,115.8,207.6,116.5,208.6,116.5z M211.7,97.5
			c0.9,0,1.5-0.2,1.7-0.7c0.1-0.5,0.1-1.2-0.1-1.6c-0.3-0.7-1.8-0.9-2.6-0.5c-0.5,0.2-0.8,0.5-0.8,1.1
			C209.8,96.9,210.4,97.4,211.7,97.5z M74.4,110.3c1.2,0,1.9-0.6,1.9-1.4c0-1-0.7-1.6-2.2-1.5c-1.2,0-1.6,0.4-1.6,1.5
			C72.6,109.9,73.2,110.4,74.4,110.3z M209.5,119.5c-1.3,0-1.8,0.4-1.8,1.5c0,1.1,0.4,1.5,1.6,1.5c1.3,0,2.1-0.5,2.1-1.5
			C211.4,120,210.7,119.5,209.5,119.5z M71,97.5c1.3,0,1.8-0.4,1.8-1.6c0-0.9-0.4-1.4-1.9-1.4c-1.1,0-1.7,0.5-1.7,1.4
			C69.2,97,69.7,97.5,71,97.5z M208.2,107.4c-1.3,0-1.8,0.5-1.8,1.5c0,1,0.7,1.5,2,1.4c1.1,0,1.7-0.5,1.7-1.5
			C210.1,107.8,209.5,107.4,208.2,107.4z M81.7,126.9c-0.1-0.1-0.1-0.1-0.2-0.2c-0.3,0.2-0.7,0.2-0.8,0.5c-0.3,0.6-0.5,1.3-0.7,1.9
			c-0.4,1.1-0.2,1.3,1.3,2.3C82,129.9,81.4,128.4,81.7,126.9z"/>
		<path fill="#8076AA" d="M195.9,56.3c0.1-0.2,0.1-0.6,0.2-0.6c1.3,0,1.8-1.6,3.1-1.7c0.3,0,0.5-0.5,0.7-0.7
			c0.9-0.9,1.9-1.7,2.8-2.7c1.1-1.2,2.1-2.5,2.9-3.8c1-1.7,1.1-3.7,0.8-5.6c-0.1-0.7-0.7-1.4-1.2-2.1c-0.4-0.6-0.9-1.2-1.5-1.7
			c-0.6-0.5-1.4-0.9-2.2-1c-2-0.3-3.9,0.2-5.6,1.2c-1.8,1.1-3,4.4-2.1,6.3c0.3,0.7,0.8,1.3,1.6,1.8c1.2,0.9,2.4,0.5,3.6,0.5
			c0.4,0,0.9-0.6,1.2-1.1c0.4-0.6,0-1.3-0.5-1.8c-0.1-0.1-0.2-0.1-0.5-0.2c0.7-0.4,1.2-0.6,1.6-0.2c0.8,0.8,0.8,1.7,0.4,2.3
			c-0.5,0.6-1,1.2-1.2,2.1c-0.1,0.4-0.7,0.9-1.2,0.9c-0.8,0.1-1.7,0.2-2.5,0c-1-0.3-1.9-0.9-2.4-1.8c-0.4-0.6-0.6-1.2-1-1.8
			c-0.8-1.1-0.8-2.4-0.6-3.6c0.2-1.3,0.8-2.6,2-3.4c0.9-0.6,1.6-1.5,2.5-1.8c1.4-0.4,2.8-1.4,4.3-0.4c0.7,0.4,1.7,0.5,2.4,1
			c1.3,0.9,2.3,2,3.1,3.5c0.6,1.2,0.7,2.3,0.9,3.4c0.2,1-0.1,2.3-0.6,3.2c-0.6,1.3-1.5,2.6-2.5,3.8c-0.7,0.9-1.7,1.6-2.6,2.3
			c-1.1,0.9-2.2,1.8-3.4,2.5C197.6,55.7,196.8,56.4,195.9,56.3C195.8,56.3,195.9,56.3,195.9,56.3z"/>
		<path fill="#8076AA" d="M83.6,56.2c-1,0-1.7-0.6-2.4-1.2c-0.5-0.3-1-0.6-1.4-0.9c-0.9-0.6-1.8-1.2-2.7-1.9c-0.6-0.5-1.1-1-1.7-1.6
			c-0.4-0.4-0.7-0.7-1-1.2c-0.8-1.3-1.7-2.5-2.2-3.8c-0.5-1.4-0.5-3,0.2-4.4c0.4-0.7,0.6-1.5,1-2.1c0.5-0.7,1-1.4,1.6-2
			c0.6-0.5,1.3-1.2,2-1.3c1.4-0.2,2.7-1.5,4.2-0.4c0.7,0.5,1.7,0.5,2.5,1c0.9,0.6,1.7,1.5,2.5,2.2c0.9,0.8,0.6,2,1.1,2.9
			c0.2,0.3-0.1,0.9-0.2,1.4c0,0.2-0.2,0.4-0.2,0.5c-0.1,1.7-1.2,2.9-2.3,3.9c-0.6,0.6-1.6,1.1-2.7,0.9c-0.4-0.1-0.8,0-1.2,0
			c-1.2,0-1.8-0.7-1.9-1.9c0-0.3-0.3-0.5-0.4-0.8c-0.2-0.5-0.5-1-0.5-1.4c0-0.6,0.2-1.2,1-1.4c0.2,0,0.5,0.1,0.7,0.1
			c-0.1,0.2-0.1,0.5-0.2,0.7c-0.2,0.4-0.5,0.8-0.5,1.2c-0.1,0.6,0.7,1.5,1.4,1.5c0.9,0,1.9,0.1,2.8,0c0.5-0.1,1.2-0.5,1.5-0.9
			c0.8-1.1,1.4-2.2,1.4-3.6c0-1-0.5-1.8-1-2.6c-0.9-1.4-2.2-2.2-3.8-2.6c-1.4-0.3-2.8-0.5-4.2,0.2c-0.6,0.3-1.1,0.5-1.6,0.9
			c-0.4,0.3-0.9,0.7-1.1,1.2c-0.4,0.7-0.7,1.5-1,2.3c-0.3,0.7-0.7,1.3-0.5,2.1c0.3,0.9,0.3,2,0.7,2.8c0.7,1.4,1.6,2.7,2.6,3.8
			c1.2,1.4,2.6,2.7,3.9,4c0.4,0.3,0.8,0.6,1.3,0.8c0.6,0.3,1.2,0.6,1.8,1C83.5,55.7,83.5,56,83.6,56.2L83.6,56.2z"/>
		<path fill="#8076AA" d="M56.2,198.6c0.4-0.3,0.7-0.7,1-0.8c0.7-0.4,1.1-1.5,0.6-2.2c-0.9-1.2-3.2-1.9-4.6-1.4
			c-1.3,0.6-2.5,1.4-2.9,2.7c-0.4,1.2-0.5,2.6,0.3,3.9c0.4,0.7,0.8,1.4,1.3,1.9c1,1.1,2.4,1.4,3.8,1.3c0.7,0,1.4,0.1,2.2,0.1
			c-0.1,0.2-0.2,0.3-0.2,0.3c-1.5,0.1-3.1,0.4-4.6,0.1c-1.6-0.4-2.9-1.5-3.6-3.1c-0.4-0.9-0.5-1.9-0.8-2.8c-0.1-0.3,0.1-0.6,0.1-0.9
			c0.1-0.4,0.3-0.9,0.4-1.3c0.2-0.3,0.3-0.7,0.6-1c0.4-0.5,0.8-1.1,1.4-1.4c0.6-0.4,1.5-0.4,2-0.9c1-0.8,2.1-0.4,3.2-0.4
			c1,0,2.4,1.3,2.6,2.2c0,0.1,0,0.1,0,0.2c-0.2,0.8-0.4,1.7-0.7,2.4C58.1,198.4,57,199,56.2,198.6z"/>
		<path fill="#8076AA" d="M224.8,204.3c0.3-0.1,0.5-0.2,0.8-0.2c0.8,0,1.6-0.1,2.4,0c1.5,0.2,2.4-0.8,3.2-1.8
			c0.3-0.3,0.6-0.6,0.8-0.9c0.8-1.2,0.8-2.6,0.5-3.9c-0.3-1.1-1-2-2-2.7c-1.1-0.7-2.4-0.9-3.7-0.6c-1.2,0.2-2.3,1.6-2.1,2.8
			c0,0.2,0.2,0.5,0.3,0.6c0.2,0.2,0.6,0.2,0.9,0.3c0.2,0.1,0.4,0.4,0.6,0.6c-0.7,0.5-2.1-0.1-2.4-1.1c-0.2-0.6-0.5-1.1-0.6-1.7
			c-0.1-0.3-0.1-0.8,0.1-1.1c0.3-0.5,0.6-1,1-1.4c1.1-0.9,2.6-0.9,3.7-0.5c1.6,0.5,3.4,1.1,4.3,2.8c0.4,0.8,0.6,1.7,0.7,2.6
			c0.1,1.7-0.2,3.4-1.4,4.7c-0.4,0.5-1.1,0.7-1.6,1.1c-0.2,0.1-0.5,0.3-0.7,0.4c-0.2,0.1-0.3,0.2-0.5,0.2c-1.3,0-2.6,0-4,0
			c-0.2,0-0.4-0.1-0.6-0.2C224.8,204.4,224.8,204.3,224.8,204.3z"/>
		<path fill="#8076AA" d="M63.3,191.3c0.1,0.6,0.3,1.2,0.3,1.8c0,1.8,0,3.6-0.1,5.4c-0.1,1-0.5,2-1.3,2.8c-0.5,0.6-1,1.2-1.6,1.8
			c-0.2,0.2-0.6,0.1-0.9,0.2c0.7-1,1.4-2,2.1-2.9c0.1-0.1,0.1-0.2,0.1-0.3c0.6-1.7,1-3.4,0.8-5.2c-0.1-1.1,0-2.1,0.1-3.2
			c0-0.1,0.1-0.2,0.1-0.3C63.1,191.4,63.2,191.3,63.3,191.3z"/>
		<path fill="#8076AA" d="M222.8,203.2c-0.2-0.1-0.5-0.1-0.7-0.2c-0.7-0.6-1.4-1.2-1.9-1.9c-0.4-0.5-0.8-1.2-0.9-1.8
			c-0.2-1.4-0.4-2.8-0.4-4.2c0-1.1,0.2-2.1,0.3-3.2c0-0.3,0.2-0.7,0.3-1c0.1,0,0.2,0,0.3,0c0,0.3,0.1,0.7,0.1,1c0,1.4-0.1,2.9,0,4.3
			c0,0.8,0.3,1.5,0.5,2.3c0,0.1,0.1,0.3,0.1,0.4c0.2,1.5,1,2.6,2.1,3.6c0.1,0.1,0.2,0.3,0.3,0.5
			C222.9,203.1,222.8,203.2,222.8,203.2z"/>
		<path fill="#8076AA" d="M95.3,48.3c2.6,0,3.8,2.2,3,4.4c-0.3,0.9-2.1,1.7-2.9,1.3c-0.3-0.2-0.4-0.7-0.6-1c0.3-0.1,0.6-0.4,0.8-0.3
			c1,0.1,1.4-0.5,1.5-1.2c0.1-0.5-0.2-1.2-0.5-1.6C96.3,49.2,95.8,48.8,95.3,48.3L95.3,48.3z"/>
		<path fill="#8076AA" d="M184.7,52.8c-0.2,1-0.6,1.4-1.5,1.3c-0.8-0.1-1.3-0.6-1.8-1.2c-0.2-0.3-0.4-0.6-0.5-1
			c-0.4-1.3,1.3-3.1,2.2-3.5c0.3-0.1,0.7,0,1.2,0.1c-0.6,0.5-1,1-1.5,1.3c-0.8,0.5-0.8,1.3-0.5,1.9c0.2,0.6,0.7,1,1.5,1
			C184.1,52.6,184.4,52.8,184.7,52.8z"/>
		<path fill="#8076AA" d="M232.4,187.5c0.4-0.4,0.8-0.8,1.1-1.1c0.2-0.2,0.5-0.4,0.5-0.5c0-0.7,0.2-1.5-0.1-2.1
			c-0.2-0.4-1.1-0.4-1.7-0.5c-0.3,0-0.5,0.2-0.8,0.2c-0.3,0-0.6-0.1-0.8-0.2c0.1-0.4,0.2-1,0.4-1.1c1.7-0.7,3.6-0.1,3.8,2.1
			c0.1,1.1-0.2,2-0.9,2.8C233.5,187.6,233.1,187.7,232.4,187.5z"/>
		<path fill="#8076AA" d="M48.6,185.2c-0.1,0.9,0.2,1.6,1.2,1.9c0.1,0,0.1,0.3,0.2,0.4c-0.2,0-0.4,0.2-0.5,0.1
			c-1.7-0.8-2.2-3.4-1-4.9c1-1.1,2.6-1.2,3.4-0.1c0.2,0.2,0.2,0.6,0.1,0.8c0,0.1-0.4,0.1-0.7,0.1c-0.2,0-0.4-0.1-0.6-0.1
			C49.3,183,48.6,183.5,48.6,185.2z"/>
		<path fill="#8076AA" d="M201.5,192.8c-0.6,0.7-1.3,0.4-2,0.5c-0.7,0-1.4,0-2.1,0c-0.2,0.6-1.5,1-2.1,0.5c-0.6-0.4-1-0.5-1.5,0
			c-0.1,0.1-0.5-0.1-0.8-0.2c-0.4-0.1-0.7-0.2-1-0.3c-0.3-0.1-0.6-0.1-1-0.3c2.2-0.7,4.5,0.4,6.7,0c-0.4,0-0.8-0.1-1.2-0.1
			c0,0,0,0,0,0C198.1,192.8,199.8,192.8,201.5,192.8z"/>
		<path fill="#8076AA" d="M86.5,192.8c1.8,0,3.5,0,5.3,0c0,0.1,0.1,0.1,0.1,0.2c-0.2,0.1-0.4,0.3-0.6,0.3c-1,0-1.9,0-2.9,0.1
			c-0.2,0-0.3,0-0.4,0.1c-0.9,0.7-1.7,0.7-2.6,0c-0.1-0.1-0.3-0.1-0.5-0.1c-1,0-1.9,0-2.9-0.1c-0.2,0-0.5-0.1-0.7-0.1
			c0-0.1,0-0.2,0-0.3c0.2-0.1,0.5-0.2,0.7-0.2c1.1,0,2.2,0.1,3.3,0.2c0.8,0.1,1.7,0.2,2.5,0.4c0-0.1,0-0.2,0-0.3
			C87.3,192.9,86.9,192.9,86.5,192.8C86.5,192.9,86.5,192.8,86.5,192.8z"/>
		<path fill="#8076AA" d="M62.3,191.2c-0.1-0.8-0.1-1.5-0.2-2.3c0.1,0,0.2,0,0.3,0c0.5,0.7,0.1,1.5,0.3,2.3
			C62.7,191.1,62.5,191.2,62.3,191.2z"/>
		<path fill="#8076AA" d="M220,190.6c-0.1-0.7-0.2-1.4,0.2-2c0.1,0,0.2,0,0.3,0c-0.1,0.7-0.1,1.4-0.2,2
			C220.3,190.6,220.2,190.6,220,190.6z"/>
		<path fill="#8076AA" d="M93.7,191.9c0,0.2,0,0.3,0.1,0.5c-0.5,0-1.1,0.1-1.6,0.1c0-0.1,0-0.3-0.1-0.4
			C92.6,192.1,93.2,192,93.7,191.9C93.7,192,93.7,191.9,93.7,191.9z"/>
		<path fill="#8076AA" d="M204.1,192c-0.1,0.2-0.2,0.4-0.3,0.5c-0.5,0.1-1,0.1-1.5,0C202.8,191.9,203.4,191.9,204.1,192L204.1,192z"
			/>
		<path fill="#8076AA" d="M189.1,192c0.5,0.1,1,0.1,1.5,0.2c0,0.1,0,0.2,0,0.3c-0.5,0-1,0-1.5,0C189.1,192.3,189.1,192.2,189.1,192z
			"/>
		<path fill="#8076AA" d="M125.6,178.3c-4.8,0-9.5,0-14.3,0c0-0.1-0.1-0.2-0.1-0.3c0.3-0.2,0.5-0.4,0.8-0.5c1.1-0.2,2.2-0.4,3.3-0.5
			c0.5-0.1,0.7-0.3,0.7-0.8c0-7.4,0.1-14.8,0.1-22.2c0-1.1-0.1-2.3-0.2-3.4c0-0.2-0.4-0.6-0.6-0.6c-1.1-0.3-2.3-0.4-3.5-0.7
			c-0.2-0.1-0.4-0.3-0.6-0.5c0.2-0.1,0.4-0.3,0.7-0.3c4.4,0,8.7,0,13.1,0c0.2,0,0.4,0.2,0.6,0.3c-0.2,0.2-0.4,0.4-0.6,0.5
			c-1.1,0.2-2.1,0.5-3.2,0.6c-0.6,0.1-0.7,0.3-0.7,0.8c0,4.5-0.1,8.9-0.1,13.4c0,3,0,5.9,0,8.9c0,1.1,0.1,2.3,0.2,3.4
			c0,0.2,0.3,0.5,0.6,0.6c1.1,0.2,2.1,0.3,3.2,0.5c0.3,0.1,0.5,0.3,0.8,0.5C125.7,178.2,125.6,178.2,125.6,178.3z"/>
		<path fill="#8076AA" d="M169,178.3c-4.8,0-9.6,0-14.4,0c0-0.1-0.1-0.2-0.1-0.3c0.3-0.1,0.5-0.4,0.8-0.4c1.1-0.2,2.3-0.4,3.4-0.6
			c0.5-0.1,0.7-0.2,0.7-0.8c0-2.4,0.1-4.7,0.1-7.1c0-5.1,0-10.2,0-15.3c0-1-0.1-2-0.1-3c0-0.6-0.2-0.8-0.8-0.8c-1-0.1-2-0.3-3.1-0.5
			c-0.2,0-0.5-0.1-0.7-0.2c-0.1-0.1-0.3-0.2-0.3-0.3c0-0.1,0.2-0.3,0.3-0.3c0.2-0.1,0.5,0,0.7,0c4.1,0,8.2,0,12.2,0
			c0.4,0,0.8,0.1,1.1,0.2c0,0.1,0,0.2,0,0.4c-0.9,0.2-1.8,0.6-2.7,0.7c-2,0.3-2,0.2-2,2.2c0,7.5,0,15,0,22.5c0,0.6,0.1,1.2,0.1,1.8
			c0,0.5,0.2,0.6,0.7,0.7c1,0.1,2.1,0.3,3.1,0.5c0.3,0.1,0.5,0.3,0.7,0.4C169,178.1,169,178.2,169,178.3z"/>
		<path fill="#8076AA" d="M97.8,80.5c4.4,0,8.8,0,13.2,0c0,0.1,0,0.2,0.1,0.3c-1.2,0.4-2.4,0.7-3.8,1.2c0.7,1.2,1.4,2.2,2.1,3.3
			c0.3,0.5,0.7,0.9,1,1.3c1,1.4,2,2.9,3,4.3c0.4,0.6,0.9,0,1.1-0.3c0.9-1.2,1.7-2.4,2.5-3.6c0.8-1.1,1.6-2.2,2.3-3.3
			c0.4-0.5,0.6-1.1,1-1.7c-1-0.4-1.9-0.8-2.9-1.1c0-0.1,0-0.2,0-0.3c0.3-0.1,0.6-0.2,0.9-0.2c2.6,0,5.2,0,7.8,0
			c0.3,0,0.6,0.2,0.9,0.3c-0.2,0.3-0.5,0.6-0.8,0.8c-0.2,0.1-0.5,0.2-0.7,0.2c-1.4,0-2.1,1-2.9,1.9c-1.5,1.7-2.9,3.4-4.4,5.1
			c-1.1,1.3-2.2,2.5-3.3,3.8c-0.1,0.1-0.1,0.3,0,0.5c0.7,1,1.4,2,2.1,3.1c0.9,1.2,1.7,2.5,2.6,3.7c0.6,0.8,1.3,1.7,1.9,2.5
			c0.6,0.8,1.1,1.7,1.7,2.5c0.6,0.9,1.3,1.7,1.9,2.6c0.5,0.7,1,1.4,1.6,2.2c0.4,0.6,0.9,1.2,1.3,1.8c-1.2,0.8-1.6,0.7-2.7-0.3
			c-1.1-1-2.3-2-3.4-3c-1.3-1.3-2.5-2.7-3.7-4.1c-1-1.1-1.9-2.3-2.9-3.5c-1-1.2-1.9-2.3-2.9-3.5c-0.3-0.3-1-0.2-1.2,0.1
			c-0.8,1.2-1.7,2.4-2.5,3.6c-0.9,1.4-1.7,2.9-2.6,4.4c-0.6,0.9-1.1,1.8-1.7,2.8c-0.4,0.7-0.3,0.9,0.5,1.1c0.7,0.1,1.3,0.3,2,0.5
			c0.3,0.1,0.5,0.3,0.7,0.5c-0.3,0.1-0.6,0.3-0.8,0.3c-1.5,0-3.1-0.1-4.6-0.1c-1.5,0-3,0.1-4.5,0.1c-0.2,0-0.5-0.2-0.7-0.3
			c0.2-0.2,0.4-0.5,0.6-0.5c1.6-0.3,2.9-1,3.9-2.4c1-1.4,2.2-2.6,3.3-3.9c0.8-1,1.5-2.1,2.3-3.2c0.8-1.1,1.8-2.1,2.5-3.2
			c0.4-0.6,1.3-1.1,0.9-2.1c-0.2-0.4-0.5-0.8-0.8-1.2c-0.7-0.9-1.4-1.9-2.1-2.8c-1.2-1.6-2.4-3.2-3.6-4.7c-0.6-0.7-1.2-1.3-1.8-2
			c-0.2-0.2-0.2-0.5-0.4-0.7c-0.6-1-1.6-1.3-2.6-1.6c-0.5-0.1-0.9-0.4-1.4-0.7C97.8,80.8,97.8,80.6,97.8,80.5z"/>
		<path fill="#8076AA" d="M154,80.5c4.4,0,8.8,0,13.1,0c0,0.1,0,0.2,0.1,0.3c-1.2,0.4-2.4,0.7-3.8,1.2c0.9,1.2,1.7,2.3,2.4,3.4
			c0.6,0.8,1,1.7,1.6,2.5c0.7,1,1.4,2,2.2,3c0.1,0.1,0.6,0,0.8-0.2c0.4-0.4,0.7-0.8,1-1.2c1-1.4,2-2.7,2.9-4.1
			c0.7-1.1,1.3-2.2,2-3.4c-1-0.4-2-0.8-3-1.2c0-0.1,0-0.2,0-0.3c0.3-0.1,0.7-0.2,1-0.2c2.6,0,5.2,0,7.9,0c0.3,0,0.5,0.2,0.8,0.3
			c-0.2,0.2-0.3,0.6-0.6,0.7c-0.4,0.2-0.8,0.5-1.2,0.4c-0.8-0.1-1.2,0.5-1.7,0.9c-0.7,0.7-1.3,1.5-2,2.2c-0.7,0.8-1.4,1.7-2.1,2.5
			c-1.1,1.3-2.3,2.7-3.4,4c-0.1,0.1-0.1,0.2-0.2,0.3c-1.1,1.2-1.1,1.2-0.2,2.4c1.4,2,2.8,4.1,4.3,6.1c1.1,1.5,2.2,3,3.3,4.4
			c1.2,1.6,2.3,3.2,3.4,4.8c0.5,0.7,0.9,1.3,1.4,2c-0.9,0.7-2,0.6-2.7-0.2c-0.7-0.9-1.7-1.5-2.5-2.3c-0.8-0.8-1.6-1.7-2.4-2.5
			c-0.8-0.8-1.6-1.7-2.4-2.6c-0.6-0.7-1.2-1.5-1.8-2.2c-0.8-1-1.7-2-2.5-2.9c-0.4-0.4-0.7-0.9-1-1.3c-0.5-0.7-0.9-0.7-1.4,0
			c-1.2,1.8-2.5,3.7-3.7,5.6c-1.1,1.7-2.1,3.5-3.2,5.2c-0.4,0.6,0,0.7,0.4,0.8c0.7,0.2,1.5,0.3,2.2,0.5c0.3,0.1,0.5,0.3,0.7,0.5
			c-0.3,0.1-0.5,0.3-0.8,0.3c-2.2,0-4.5-0.1-6.7-0.1c-0.9,0-1.7,0.1-2.6,0.1c-0.2,0-0.4-0.2-0.6-0.3c0.2-0.2,0.3-0.4,0.5-0.5
			c0.7-0.2,1.4-0.2,2-0.6c0.7-0.4,1.2-1,1.7-1.6c1.1-1.3,2.2-2.7,3.3-4c0.9-1.1,1.7-2.3,2.5-3.4c0.8-1,1.7-2.1,2.5-3.1
			c0.3-0.4,0.7-0.8,0.9-1.2c0.1-0.4,0.1-0.9-0.1-1.2c-0.9-1.3-1.8-2.5-2.7-3.8c-1.4-1.9-2.8-3.7-4.2-5.6c-0.7-1-1.5-2-2.4-2.8
			c-0.5-0.4-1.3-0.5-1.9-0.8c-0.4-0.2-0.8-0.3-1.2-0.5C153.9,80.8,154,80.7,154,80.5z"/>
	</g>
</g>
</svg>
