<?xml version="1.0" encoding="utf-8"?>
<!-- Generator: Adobe Illustrator 22.1.0, SVG Export Plug-In . SVG Version: 6.00 Build 0)  -->
<svg version="1.1" id="Layer_1" xmlns="http://www.w3.org/2000/svg" xmlns:xlink="http://www.w3.org/1999/xlink" x="0px" y="0px"
	 viewBox="0 0 255.7 119.7" enable-background="new 0 0 255.7 119.7" xml:space="preserve">
<g>
	<g>
		<path fill="#A3D291" d="M55.1,10.4c0,1.2,0,2.4,0.1,3.5c0.1,1.2,0.1,2.4,0.2,3.6c0.1,1.2,0.1,2.6,0.2,4c0,1.4,0.1,3,0.1,4.7
			c0,2.1,0,4.3-0.1,6.4c-0.1,2.1-0.2,4.1-0.5,6c-0.2,1.9-0.6,3.7-1,5.3c-0.4,1.6-0.9,3-1.6,4.1l-3.7,4.6c-0.9,1.2-1.9,2.3-3,3.5
			c-1.1,1.2-2.2,2.2-3.4,3c-1.2,0.8-2.6,1.4-4,1.6c-1.4,0.3-2.9,0.1-4.6-0.6c-4.5-1.9-8-3.8-10.5-5.7c-2.5-1.9-4.2-3.6-5-5.3
			c-1.5,1.1-2.6,2.3-3.2,3.4c-0.4,0.7-0.7,1.4-0.8,2.1c-0.1,0.7-0.1,1.4,0,2c0,0.1,0,0.2,0.1,0.2c0.7,0.6,1.6,1.2,2.7,1.7
			c1,0.5,2.2,0.9,3.4,1.2c0.2-0.1,0.5-0.2,0.9-0.1s0.7,0.1,1,0.3s0.6,0.3,0.9,0.5c0.2,0.2,0.4,0.4,0.4,0.5c-0.4,0.2-0.7,0.2-1.1,0.2
			c-0.4,0-0.7-0.1-1.1-0.2c-0.3-0.1-0.6-0.2-0.8-0.4c-0.2-0.2-0.3-0.3-0.3-0.5C19,59.6,18,59.2,17,58.8s-1.8-0.9-2.6-1.5
			c0.2,0.5,0.5,1.1,0.8,1.6c0.3,0.5,0.7,1,1.1,1.5c0.7,0.7,1.5,1.4,2.4,1.9c1,0.5,2.1,1,3.4,1.3c0.2-0.2,0.5-0.2,0.8-0.3
			c0.3,0,0.7,0,1,0.1s0.6,0.2,0.9,0.3c0.3,0.1,0.4,0.3,0.5,0.4c-0.3,0.2-0.6,0.4-1.1,0.4c-0.4,0-0.8,0-1.2,0c-0.4,0-0.7-0.1-0.9-0.2
			c-0.3-0.1-0.4-0.2-0.3-0.4c-1.2-0.4-2.3-0.8-3.3-1.4c-1-0.6-1.8-1.2-2.5-1.9c-1.1-1.2-1.8-2.4-2-3.7c-0.1-0.1-0.2-0.2-0.4-0.3
			c-0.1-0.1-0.2-0.2-0.3-0.3c-1.1-1.1-1.7-2.2-2-3.5c-0.2-0.6-0.2-1.2,0-1.8c0.1-0.6,0.4-1.3,0.7-1.9c0.5-0.7,1.2-1.5,2.1-2.2
			c0.9-0.8,2-1.4,3.4-2l0.6-0.3v0l3.4-4.5c0.6-0.9,1.7-1.6,3.2-2c1.5-0.4,3.4-0.5,5.6-0.3c2.2,0.2,4.8,0.8,7.6,1.7s5.9,2.2,9.2,4
			V27.7c-0.8-0.5-1.5-1.1-2.1-1.7c-0.6-0.6-1.1-1-1.3-1.2l3.4-2.9V12l-0.5,0.3c-1.4,0.4-2.7,0.5-3.9,0.2c-1.2-0.3-2.3-0.8-3.4-1.5
			c-1-0.7-2-1.4-2.9-2.1c-0.9-0.7-1.7-1.3-2.4-1.6c-0.4-0.1-0.7,0-1,0.1c-0.3,0.1-0.7,0.3-1,0.6c-0.4,0.3-0.8,0.6-1.1,1
			c-0.3,0.4-0.6,0.9-0.7,1.4C30,11.2,29.9,12,30,12.7c0.1,0.9,0.2,1.6,0.6,2.3c0.3,0.7,0.8,1.2,1.4,1.7c0.9,0.8,2.1,1.4,3.4,1.7
			c1.4,0.3,2.6,0.2,3.9-0.2c0.3-0.1,0.6-0.2,1-0.5c0.4-0.2,0.9-0.5,1.4-0.8c0.5-0.3,1-0.5,1.4-0.7c0.5-0.2,0.9-0.3,1.2-0.3
			c-0.1,0.3-0.3,0.6-0.6,1c-0.3,0.4-0.6,0.7-0.9,1c-0.3,0.3-0.8,0.5-1.4,0.5c-0.7,0.3-1.6,0.5-2.7,0.6c-1.1,0.1-2.1,0.1-3.3,0
			c-1.4-0.3-2.6-0.8-3.8-1.7c-1.1-0.9-1.8-2.2-2.1-3.9c-0.1-0.8-0.1-1.6,0.1-2.5c0.2-0.9,0.6-1.8,1-2.6c0.5-0.8,1.1-1.5,1.8-2.2
			c0.7-0.6,1.6-1.1,2.5-1.4l1-0.3c0.6-0.4,1.1-0.6,1.6-0.6c0.5,0,1,0.2,1.5,0.5c0.5,0.3,1,0.6,1.5,1.1c0.5,0.4,1.1,0.9,1.7,1.3
			c0.6,0.4,1.3,0.8,2.1,1.2c0.8,0.3,1.7,0.5,2.7,0.6V7.6V5.7c0-0.4,0.1-0.8,0.3-1.3c0.2-0.4,0.5-0.9,1-1.4c0.5-0.5,1.1-1,1.8-1.5
			C51,1,52,0.5,53.2,0c0.1,0.3,0.1,0.6,0,0.9c-0.1,0.3-0.1,0.6,0,0.9c0.2,0.7,0.2,1.3,0.2,1.8c0,0.5-0.2,0.9-0.4,1
			c-0.2-0.3-0.4-0.4-0.6-0.4c-0.2,0-0.4,0-0.5,0.1c-1.1,0.4-1.9,0.8-2.6,1.5C48.6,6.4,48.2,7,48,7.8c-0.1,0-0.1,0.1-0.1,0.1
			c0,0-0.1,0.1-0.1,0.2v0.2c0.8-0.1,1.6-0.2,2.4-0.4c0.9-0.2,1.8-0.5,2.8-1l-5.3,4.6v10.5c0.2,0.2,0.4,0.3,0.6,0.6
			c0.2,0.2,0.5,0.4,0.8,0.6c0-2,0-3.9,0-5.7s0-3.4,0-4.8c0-0.4,0-0.8,0.1-1.1c0.1-0.3,0.2-0.5,0.4-0.6l6-6.1
			c0.3-0.3,0.5-0.4,0.8-0.6c0.4-0.1,0.5-0.1,0.5,0.1c0,0.2-0.2,0.3-0.3,0.5l-0.8,1c-0.2,0.3-0.3,0.6-0.4,1.1
			c-0.1,0.4-0.2,0.9-0.2,1.4c0,0.5,0,0.9,0,1.3C55.1,9.9,55.1,10.2,55.1,10.4z M18.1,48.7c-0.6-1.4-0.7-2.6-0.3-3.6h0
			c-2.7,1.2-4.5,2.7-5.4,4.3c-0.3,0.5-0.5,1.1-0.6,1.7c-0.1,0.6-0.1,1.2,0,1.7c0.3,1.2,0.9,2.3,1.9,3.3c0.1,0.1,0.1,0.1,0.1,0.1
			c0,0,0.1,0,0.1,0.1c-0.2-1.3,0.1-2.7,0.8-4.1C15.5,51,16.6,49.8,18.1,48.7z M21.3,43.8c1.1-0.3,2.3-0.4,3.6-0.5
			c1.3-0.1,2.6-0.1,3.9-0.1c1.8,0.1,3.6,0.3,5.2,0.6c-2.8-0.9-5.3-1.4-7.5-1.5c-2.2-0.1-4,0.1-5.4,0.6C21,43.1,21.1,43.4,21.3,43.8z
			 M36.3,44.6c-1.2-0.3-2.5-0.5-3.7-0.7c-1.3-0.2-2.6-0.3-4-0.4c-1.2,0-2.4,0-3.7,0.1c-1.2,0.1-2.4,0.3-3.5,0.5
			c0.2,0.4,0.4,0.7,0.7,1.1c0.3,0.4,0.6,0.8,1,1.3c2.7-0.8,5.5-1.2,8.5-1.2c1.6,0,3.2,0.1,4.7,0.3c1.5,0.2,3,0.4,4.3,0.8
			C39,45.6,37.6,45,36.3,44.6z M42.5,47.3c-1.5-0.5-3.2-0.9-5.1-1.2c-1.9-0.3-3.8-0.4-5.9-0.4c-1.4,0-2.9,0.1-4.2,0.2
			c-1.4,0.2-2.7,0.4-4.1,0.8c1.3,1.4,3,2.8,5.3,4.3c2.3,1.5,5.1,3,8.6,4.5c1.1,0.4,2.1,0.7,3,0.7c1,0,1.9-0.1,2.8-0.4
			c0.9-0.3,1.7-0.7,2.5-1.2c0.8-0.5,1.5-1.1,2.3-1.8c0.3-1.5,0.5-3.2,0.7-5.2c0.2-2,0.3-4.1,0.4-6.3c0.1-2.2,0.2-4.5,0.2-6.9
			c0-2.4,0.1-4.7,0.1-7l-0.9,0.8c-0.1-0.1-0.2-0.1-0.2-0.1c0,0-0.1-0.1-0.3-0.1v15.3c0,0.1,0,0.2,0,0.3c0,0.1,0,0.2,0,0.3
			c-0.1,0.3-0.3,0.6-0.6,1.1c-0.3,0.4-0.6,0.8-0.9,1.2c-0.3,0.4-0.7,0.8-1,1.2c-0.3,0.4-0.5,0.7-0.7,0.9
			C43.8,47.9,43.2,47.6,42.5,47.3z"/>
		<path fill="#A3D291" d="M69.2,43.2c-1.4-0.7-2.3-1.8-2.6-3.2l-2.4,3.2c-1.9-1-2.8-2.5-2.8-4.5v-0.3c0-0.1,0-0.2,0-0.3
			c0-0.1,0-0.3,0-0.5v-1.7v-5.6l0.8-0.6c-0.7-1.8-0.9-3.3-0.6-4.7c0.4-1.4,1.3-2.5,2.8-3.2c0.8-0.2,2-0.7,3.5-1.4
			c0.3-0.2,0.5-0.3,0.6-0.4c0.1-0.1,0.2-0.1,0.3,0c1,0.3,1.5,2.1,1.4,5.5c0,0.3,0,1.4-0.1,3.4c0,2-0.1,5.1-0.2,9.1
			c0,1.2,0.6,1.8,1.8,1.6h0.2c0,0,0,0,0,0L69.2,43.2z M66.5,24.2l-2.1,0.5c-1.4,0.5-2.1,1.6-2.1,3.2c0,0.4,0,0.9,0.1,1.4
			c0.6-0.6,1.3-1.2,2-1.9c0.7-0.7,1.4-1.1,2.1-1.4V24.2z M66.5,39.7c0-0.3,0-0.6,0-1c0-0.4,0-0.9,0-1.5l0-10.1
			c-1.2,0.9-1.8,2.7-1.8,5.2V38h0.1v0.1C64.7,39.3,65.3,39.9,66.5,39.7z"/>
		<path fill="#A3D291" d="M81.1,29.1c-0.6-0.5-1-1.6-1.1-3.2c0-1.3-0.4-2-1.1-2.1c-0.1-0.1-0.3-0.1-0.5,0c0,0-0.1,0-0.2,0
			c-0.1,0-0.2,0.1-0.4,0.1v11.9c0,2.5,0.6,3.6,1.9,3.2c0.8-0.3,1.4-0.8,2-1.7l0.5-1.1c0.5-1.2,0.4-2.9-0.3-5.1
			c0.1,0.1,0.3,0.3,0.5,0.7c0.2,0.4,0.5,0.9,0.8,1.6v0c0.3,1,0.3,2.1,0.1,3.2c-0.3,1.5-1.5,3.6-3.6,6.2l-0.3,0.4
			c0-0.1-0.1-0.1-0.3-0.2c-0.2,0-0.4-0.2-0.7-0.3c-1.9-0.8-3.1-2-3.6-3.6c0-0.3-0.1-0.6-0.1-1.1c0-0.5,0-1.1,0-1.8V25.1l0.2-0.2
			c0.6-0.4,1.5-1,2.6-1.8c1.1-0.8,2.6-1.9,4.4-3.2c0.4,0.2,0.6,0.4,0.8,0.8c0.2,0.5,0.4,1.9,0.5,3.9c0,0.7,0.2,1.2,0.5,1.4
			L81.1,29.1z"/>
		<path fill="#A3D291" d="M110.2,54.5c-0.2,0.1-0.3,0.1-0.5,0.1c-0.1,0-0.3,0-0.4,0.1c-1.3,0.1-2.7-0.2-4.1-0.9
			c-1.4-0.7-2.9-1.8-4.4-3.5c-1.2-1.3-2.3-2.7-3.2-4.1c-0.9-1.4-1.7-2.8-2.4-4.2c-0.4-0.9-1-2.1-1.7-3.5c-0.7-1.4-1.5-3.1-2.4-5.2
			v1.2c-0.1,0.3-0.1,0.5-0.1,0.7s0,0.3,0,0.4v2.4c0,1.2,0.6,1.8,1.8,1.6H93c0,0,0,0,0,0l-2.7,3.4c-1.3-0.7-2.2-1.8-2.6-3.1
			c-0.1-0.6-0.1-1.6-0.1-2.9v-1.8c0-1,0-1.8,0-2.2c0-0.5,0-0.6,0-0.6v-7.5c-0.1,0-0.1,0-0.1-0.1l0.1-0.1v-5.2l0-5.2
			c0.1-0.1,0.3-0.4,0.7-1.1c0.4-0.7,1-1.7,1.7-3c1-1.9,2.4-2.8,4.1-2.8c0.3,0,0.8,0.1,1.4,0.2c-2.3,0.6-3.7,1.8-4.3,3.6
			c-0.2,0.6-0.3,1.6-0.3,2.8c0,0.4,0,1.4,0,2.7c0,1.4,0,3.2,0.1,5.5l3.6-2.7c0.8,0.5,1.2,2.1,1.3,4.8c0,0.7,0.2,1.2,0.5,1.5l0,0.1
			c-0.5,0.4-1,0.8-1.6,1.2c-0.5,0.5-1,1-1.5,1.6l3.8,10.6c1.2,3.5,2.6,6.3,4.1,8.4c1.5,2.1,3,3.7,4.7,4.7c0.4,0.3,1,0.5,1.7,0.8
			C108.3,53.8,109.2,54.1,110.2,54.5z M92.8,27.9c0.1-2.7-0.3-4.1-1.2-4.2c-0.2,0-0.4,0-0.5,0.1h0V31c0.4-0.4,0.7-0.8,0.9-1.3
			C92.3,29.2,92.5,28.6,92.8,27.9z"/>
		<path fill="#A3D291" d="M105.1,21.9c0.1,1.2,0.1,2.3,0.1,3.4c0,1.1,0,2.2,0,3.4c0,1.2,0,2.5-0.1,3.8c0,1.4-0.1,2.9-0.2,4.6
			c0,0.3,0,0.6,0,1c0,0.4,0.1,0.7,0.3,0.9c0.4,0.5,0.8,0.8,1.1,0.7c0.3,0,0.5,0,0.6,0l-2.6,3.4c-1.5-0.7-2.4-1.8-2.6-3.1
			c-0.1-0.4-0.2-1.4-0.2-2.9l0.1-11.9c0-0.8-0.1-1.3-0.3-1.7c-0.2-0.4-0.6-0.6-1.3-0.5c-0.1,0-0.2,0-0.2,0l3.9-2.8
			C104.5,20.3,104.9,20.9,105.1,21.9z M103.4,17.9c-0.2-0.1-0.3-0.2-0.5-0.4c-0.2-0.2-0.4-0.5-0.6-0.7c-0.2-0.3-0.5-0.5-0.7-0.7
			c-0.3-0.2-0.5-0.4-0.8-0.4c-0.2,0-0.3,0-0.4,0.1h-0.2l3.6-2.9c0.2,0.1,0.4,0.2,0.6,0.4c0.2,0.2,0.5,0.5,0.7,0.7
			c0.2,0.3,0.5,0.5,0.7,0.7c0.3,0.2,0.5,0.4,0.8,0.4c0.1,0.1,0.2,0.1,0.3,0c0.1,0,0.2,0,0.3,0L103.4,17.9z"/>
		<path fill="#A3D291" d="M118.5,26.3l-0.9,0.7c-2,1.6-3.4,3.7-4.5,6.1v2.7c0,2.5,0.6,3.6,1.9,3.2c0.7-0.2,1.4-0.7,2-1.7l0.5-1.1
			c0.3-0.6,0.3-1.4,0.3-2.3c-0.1-0.9-0.3-1.8-0.6-2.9l1.4,2.3v0c0.3,1,0.4,2.1,0.1,3.2c-0.4,2.1-1.6,4.2-3.6,6.2l-0.4,0.4l-1-0.5
			c-0.9-0.4-1.7-1-2.3-1.5c-0.6-0.6-1-1.3-1.2-2.1c0-0.3-0.1-0.6-0.1-1.1c0-0.5,0-1.1,0-1.9V25.1c-0.1-0.1-0.1-0.2,0-0.2l6.9-5
			c0.4,0.2,0.6,0.4,0.8,0.8c0.1,0.3,0.2,0.8,0.3,1.4c0.1,0.7,0.1,1.5,0.2,2.5c0,0.5,0.2,1,0.6,1.5L118.5,26.3z M115,27.9
			c0-1.7-0.1-2.9-0.4-3.6c-0.2-0.3-0.5-0.5-0.8-0.5c-0.2-0.1-0.4-0.1-0.5,0c-0.1,0-0.2,0-0.2,0.1v7.2
			C113.7,30.5,114.4,29.5,115,27.9z"/>
		<path fill="#A3D291" d="M157.3,44.9c0.2,1.2,0.3,2.4,0.3,3.6c0,1.2-0.3,2.2-0.6,3.2c-0.4,1-1,1.8-1.7,2.6
			c-0.8,0.8-1.7,1.4-2.9,1.8c-0.1,0.4-0.3,0.9-0.7,1.5c-0.4,0.6-0.8,1.1-1.3,1.6c-0.5,0.5-1,0.9-1.5,1.3c-0.5,0.4-1,0.5-1.3,0.5
			c-0.3-0.5-0.6-1-1-1.4c-0.4-0.4-0.9-0.8-1.5-1.2c-0.6-0.4-1.4-0.8-2.3-1.3c-0.9-0.5-2-1.1-3.3-1.8c-2-1-3.5-2.1-4.6-3.3
			s-1.7-2.3-2-3.5c-0.1,0-0.1,0-0.1,0v0c-0.9,1.2-1.3,2.6-1.2,4v0.1c0.7,0.7,1.7,1.4,2.8,2s2.4,1.1,3.8,1.6c0.2-0.1,0.5-0.1,0.9,0
			c0.4,0.1,0.7,0.2,1,0.4c0.3,0.2,0.6,0.4,0.8,0.6c0.2,0.2,0.3,0.4,0.3,0.5c-0.4,0.1-0.7,0.2-1.1,0.1c-0.4,0-0.8-0.1-1.1-0.3
			c-0.3-0.1-0.6-0.3-0.8-0.5c-0.2-0.2-0.3-0.3-0.3-0.5c-1.3-0.4-2.5-0.9-3.5-1.5c-1-0.6-1.9-1.2-2.7-1.9c0.2,0.6,0.4,1.1,0.6,1.7
			c0.2,0.5,0.6,1.1,1,1.6c0.6,0.7,1.3,1.4,2.2,2.1c0.9,0.7,1.9,1.2,3,1.7c0.2-0.2,0.5-0.2,0.8-0.2c0.4,0,0.7,0.2,1,0.3
			s0.6,0.3,0.9,0.5c0.3,0.2,0.4,0.4,0.4,0.5c-0.4,0.2-0.7,0.2-1.1,0.2c-0.4,0-0.8-0.1-1.1-0.2s-0.6-0.2-0.8-0.4
			c-0.2-0.2-0.3-0.3-0.3-0.5c-2.3-1-4.1-2.3-5.3-3.9c-1-1.1-1.5-2.4-1.7-3.8c-0.1-0.1-0.2-0.2-0.3-0.3c-0.1-0.1-0.2-0.2-0.3-0.3
			c-0.4-0.6-0.8-1.2-1.1-1.8c-0.3-0.6-0.4-1.2-0.5-1.8c-0.1-1.3,0.3-2.6,1.1-3.7c0.4-0.5,0.9-1.1,1.5-1.5s1.3-0.9,2.2-1.3
			c0.1-0.3,0.4-0.6,0.7-1.2l3.3-4.5c0.4-0.5,0.9-1,1.6-1.4c0.7-0.4,1.6-0.7,2.5-0.8c2.1-0.5,4.8-0.4,8.1,0.3
			c0.5,0.1,0.9,0.1,1.2,0.2c0.3,0,0.7,0.2,1.3,0.3c1-0.4,1.8-1,2.4-1.6c1.3-1.1,2.4-2.4,3.3-4.1c0.9-1.6,1.3-3.3,1.3-5.2
			c0-1.4-0.3-3-1-4.7c-0.6-1.7-1.7-3.5-3.2-5.4c-0.6-0.8-1.2-1.4-1.8-1.8c-0.6-0.4-1.3-0.6-1.9-0.6c-0.4,0.8-0.6,1.8-0.5,3
			c0.1,1.2,0.4,2.2,1,3.1c0.5,0.9,1.2,1.5,2.1,1.8c0.9,0.3,1.9,0.1,3-0.7c-0.4,1-0.7,2-1.1,2.9c-0.4,1-0.9,1.8-1.7,2.6l-0.4,2.8
			c-0.9-0.6-1.8-1.2-2.5-1.7c-0.7-0.5-1.4-1-1.9-1.5c-0.6-0.7-1.1-1.4-1.5-2.1c-0.4-0.7-0.5-1.4-0.5-2.3c0-1.2,0.4-2.7,1.2-4.4
			c0.8-1.7,2-3.8,3.6-6.3c0.3-0.6,0.9-1,1.8-1.3c0.8-0.2,1.8-0.1,2.8,0.6c0.4,0.4,0.9,0.8,1.3,1.3c0.4,0.5,0.9,1.1,1.3,1.8
			c1.9,3.3,3.1,6.2,3.4,8.6c0.3,2.5,0.1,4.6-0.7,6.4l1.3-1.5c0-1.7,0-3.2,0-4.7c0-1.5,0-2.9,0-4.3c0-1.4,0.1-2.8,0.3-4.2
			c0.1-1.4,0.4-3,0.7-4.6c0.2,0.8,0.8,1.5,1.7,2.2c0.7,0.4,1.6,0.9,2.6,1.4c1,0.5,2,1.1,3.1,1.8c0.6,0.4,1.1,0.9,1.5,1.5
			c0.4,0.6,0.5,1.3,0.3,2.2l-1.2,5.4c0,0.2-0.1,0.3-0.1,0.4c-0.1,0.1-0.1,0.3-0.2,0.5c0.6,0.4,1.2,0.9,1.6,1.4
			c0.4,0.5,0.8,0.9,1,1.3c0.2,0.3,0.4,0.6,0.6,1c0.2,0.4,0.4,0.7,0.6,1.1c0.2,0.4,0.4,0.8,0.6,1.3c0.2,0.5,0.3,1,0.3,1.5
			c0,0.7-0.1,1.5-0.4,2.4c-0.3,0.8-0.8,1.7-1.5,2.6c-0.4,0.5-0.7,1-0.9,1.7c-0.2,0.6-0.5,1.2-0.7,1.8c-0.2,0.6-0.5,1.1-0.8,1.6
			c-0.3,0.4-0.8,0.7-1.4,0.9c-1.2,0.2-2.4,0.5-3.3,0.9c-1,0.4-1.8,0.8-2.6,1.3c-0.8,0.5-1.4,0.9-1.9,1.4c-0.5,0.5-1,0.9-1.3,1.4
			c-0.3,0.4-0.5,0.6-0.6,0.8c-0.1,0.2-0.2,0.3-0.2,0.5c-0.2-0.2-0.3-0.4-0.3-0.5c-0.4-0.5-1-0.9-1.8-1.2
			C158.8,45.4,158,45.1,157.3,44.9z M133.5,42.8c-0.6,0.4-1.2,0.8-1.7,1.2c-0.5,0.4-0.9,0.8-1.2,1.2c-0.8,1.1-1.2,2.3-1,3.4
			c0,1.1,0.6,2.3,1.6,3.4c0,0.1,0.1,0.2,0.2,0.3c0-0.7,0.1-1.4,0.3-2.1c0.2-0.7,0.5-1.3,0.9-1.9c0.1-0.1,0.1-0.1,0.1-0.1
			c0,0,0.1-0.1,0.1-0.1c-0.2-0.9-0.3-1.8-0.1-2.6C132.9,44.4,133.1,43.6,133.5,42.8z M147.2,41.1c-2-0.3-4-0.4-5.8-0.4
			c-1.9,0-3.6,0.3-5.1,0.9c-0.2,0-0.3,0.1-0.4,0.1c-0.1,0.1-0.2,0.1-0.4,0.2c-0.1,0.2-0.1,0.4-0.1,0.7c0,0.3,0,0.6,0,0.9
			c0,0.4,0,0.7,0.1,1c0.1,0.3,0.2,0.6,0.4,0.9c0.4-0.3,0.9-0.5,1.3-0.7c0.5-0.2,1-0.4,1.6-0.6c1.6-0.6,3.4-0.9,5.4-1.1s4-0.1,6,0
			c1.8,0.2,3.5,0.4,5.2,0.9c1.7,0.4,3.3,0.9,4.7,1.5c-0.6-0.5-1.2-1-2-1.3c-0.8-0.4-1.5-0.7-2.3-1c-1.4-0.5-2.8-0.9-4.2-1.3
			S148.6,41.2,147.2,41.1z M135.6,41.4c0.1-0.1,0.3-0.1,0.5-0.1c1.5-0.5,3.3-0.8,5.2-0.9c1.9,0,3.9,0.1,6,0.4
			c1.6,0.2,3.1,0.5,4.6,0.8c1.5,0.4,2.9,0.8,4.3,1.3c-0.4-0.2-0.8-0.4-1.2-0.7c-0.4-0.2-0.8-0.4-1.3-0.6c-1.1-0.5-2.2-0.9-3.4-1.3
			c-1.2-0.4-2.4-0.7-3.5-1c-0.9-0.2-1.8-0.3-2.7-0.4c-0.9-0.1-1.7-0.2-2.6-0.2c-0.4,0-0.9,0-1.3,0c-0.4,0-0.8,0.1-1.2,0.1
			C137.2,39.1,136.1,40,135.6,41.4z M157.3,44.9c-1.1-0.4-2.3-0.6-3.6-0.9c-1.3-0.2-2.6-0.4-3.9-0.5c-2-0.2-3.9-0.3-5.8-0.1
			c-1.9,0.1-3.7,0.5-5.4,1.1c-0.5,0.2-1,0.4-1.5,0.6c-0.5,0.2-1,0.5-1.4,0.7c0.4,0.7,0.9,1.4,1.6,2.1c0.9,1,2.1,1.9,3.6,2.6
			c1.5,0.7,3.1,1.1,4.7,1.2c1.1,0.1,2.2,0,3.3-0.2c1.1-0.2,2.2-0.6,3.2-1.1c1-0.5,2-1.2,2.9-2.2C155.9,47.4,156.6,46.2,157.3,44.9z
			 M164.6,30.9c0.4-0.1,0.8-0.1,1.2,0.1c0.4,0.2,0.9,0.4,1.2,0.8c0.4,0.3,0.7,0.6,0.9,1c0.2,0.3,0.2,0.6,0.1,0.8l-3.5,5
			c-0.5-0.6-1-1.1-1.3-1.5c-0.4-0.4-0.8-0.7-1.2-0.9c-0.4-0.3-0.7-0.3-1-0.2l1.7-2.5l1.2-1.5L164,26c-0.4,0-0.8,0.2-1.3,0.5
			c-0.3,0.5-0.5,1.1-0.8,1.6c-0.3,0.5-0.7,1-1.1,1.4c-0.3,0.4-0.6,0.8-1.1,1.3c-0.5,0.5-1,1-1.5,1.5c-0.7,0.6-1.4,1.2-2.1,1.6
			c-0.7,0.4-1.4,0.9-2.1,1.5c0.6,0.2,1.2,0.3,1.7,0.5c0.5,0.2,1.1,0.4,1.7,0.6c1.4,0.5,2.8,1.1,4.2,1.8c1.5,0.7,3,1.4,4.5,2.2
			l0.8,0.6c0.5-0.3,1-0.5,1.3-0.7c0.4-0.2,0.8-0.3,1.1-0.4c0.4-0.1,0.7-0.2,1.1-0.3c0.4-0.1,0.9-0.2,1.4-0.3
			c0.2-0.4,0.3-0.9,0.4-1.6c0.1-0.7,0.2-1.4,0.3-2.1s0-1.4,0-2.1c0-0.7-0.2-1.3-0.4-1.7c-0.4-0.7-0.8-1.4-1.3-2
			c-0.5-0.6-1-1.2-1.5-1.7c-0.3-0.3-0.6-0.6-0.9-0.8c-0.3-0.2-0.6-0.4-0.9-0.7c-0.5-0.3-1-0.5-1.5-0.7c-0.5-0.2-0.9-0.3-1.4-0.3
			L164.6,30.9z M166.7,21.5c0.4-0.3,0.9-0.5,1.3-0.5c0.5-0.1,1,0,1.5,0c0.5,0.1,1,0.3,1.5,0.5c0.5,0.2,1,0.5,1.4,0.8
			c0-0.4,0.1-0.8,0.1-1.1c0-0.4,0.1-0.7,0-1.1c0-0.4-0.1-0.7-0.3-1.1c-0.2-0.4-0.5-0.7-1-1.1c-1-0.8-2-1.5-3-1.9
			c-1-0.5-1.9-0.9-2.7-1.2c-0.2-0.1-0.3-0.2-0.4-0.3c-0.1-0.1-0.3-0.2-0.4-0.3l-0.1,9.9L166.7,21.5z"/>
		<path fill="#A3D291" d="M190.2,43.2c-1.4-0.7-2.3-1.8-2.6-3.2l-2.4,3.2c-1.9-1-2.8-2.5-2.8-4.5v-0.3c0-0.1,0-0.2,0-0.3
			c0-0.1,0-0.3,0-0.5v-1.7v-5.6l0.8-0.6c-0.7-1.8-0.9-3.3-0.6-4.7c0.4-1.4,1.3-2.5,2.8-3.2c0.8-0.2,2-0.7,3.5-1.4
			c0.3-0.2,0.5-0.3,0.6-0.4c0.1-0.1,0.2-0.1,0.3,0c1,0.3,1.5,2.1,1.4,5.5c0,0.3,0,1.4-0.1,3.4c0,2-0.1,5.1-0.2,9.1
			c0,1.2,0.6,1.8,1.8,1.6h0.2c0,0,0,0,0,0L190.2,43.2z M187.5,24.2l-2.1,0.5c-1.4,0.5-2.1,1.6-2.1,3.2c0,0.4,0,0.9,0.1,1.4
			c0.6-0.6,1.3-1.2,2-1.9c0.7-0.7,1.4-1.1,2.1-1.4V24.2z M187.5,39.7c0-0.3,0-0.6,0-1c0-0.4,0-0.9,0-1.5l0-10.1
			c-1.2,0.9-1.8,2.7-1.8,5.2V38h0.1v0.1C185.7,39.3,186.3,39.9,187.5,39.7z"/>
		<path fill="#A3D291" d="M199.8,22.7l3.7-2.7c0.2,0.1,0.3,0.2,0.5,0.3c0.1,0.2,0.2,0.3,0.3,0.5c0.1,0.3,0.2,0.7,0.3,1.4
			c0.1,0.7,0.1,1.5,0.2,2.5c0,0.5,0.2,1,0.6,1.5l-0.2,0.1c0,0.1-0.3,0.4-0.8,0.7c-0.5,0.4-0.9,0.8-1.4,1.2c-0.5,0.4-0.9,0.8-1.2,1.3
			c0-1.8,0-3.1-0.1-3.8c0-0.7-0.1-1.2-0.3-1.4c-0.2-0.3-0.5-0.5-0.8-0.5c-0.2,0-0.4,0-0.5,0h-0.1c0,1.7,0,3.6,0,5.8
			c-0.1,2.2-0.1,4.9-0.1,8.3c0.1,1.2,0.7,1.8,1.8,1.6h0.1c0.1,0,0.1,0,0.1,0l-2.6,3.4c-1.4-0.7-2.3-1.7-2.6-3.1
			c-0.1-0.5-0.1-1.5-0.1-2.9l0-11.9c0-0.8-0.1-1.3-0.3-1.7c-0.2-0.4-0.7-0.6-1.3-0.5c-0.1,0-0.2,0-0.2,0l3.9-2.8
			c0.6,0.3,1.1,0.9,1.3,1.8V22.7z"/>
		<path fill="#A3D291" d="M231.6,54.5c-0.2,0.1-0.3,0.1-0.5,0.1c-0.1,0-0.3,0-0.4,0.1c-1.3,0.1-2.7-0.2-4.1-0.9
			c-1.4-0.7-2.9-1.8-4.4-3.5c-1.2-1.3-2.3-2.7-3.2-4.1c-0.9-1.4-1.7-2.8-2.4-4.2c-0.4-0.9-1-2.1-1.7-3.5c-0.7-1.4-1.5-3.1-2.4-5.2
			v1.2c-0.1,0.3-0.1,0.5-0.1,0.7s0,0.3,0,0.4v2.4c0,1.2,0.6,1.8,1.8,1.6h0.2c0,0,0,0,0,0l-2.7,3.4c-1.3-0.7-2.2-1.8-2.6-3.1
			c-0.1-0.6-0.1-1.6-0.1-2.9v-1.8c0-1,0-1.8,0-2.2c0-0.5,0-0.6,0-0.6v-7.5c-0.1,0-0.1,0-0.1-0.1l0.1-0.1v-5.2l0-5.2
			c0.1-0.1,0.3-0.4,0.7-1.1c0.4-0.7,1-1.7,1.7-3c1-1.9,2.4-2.8,4.1-2.8c0.3,0,0.8,0.1,1.4,0.2c-2.3,0.6-3.7,1.8-4.3,3.6
			c-0.2,0.6-0.3,1.6-0.3,2.8c0,0.4,0,1.4,0,2.7c0,1.4,0,3.2,0.1,5.5l3.6-2.7c0.8,0.5,1.2,2.1,1.3,4.8c0,0.7,0.2,1.2,0.5,1.5l0,0.1
			c-0.5,0.4-1,0.8-1.6,1.2c-0.5,0.5-1,1-1.5,1.6l3.8,10.6c1.2,3.5,2.6,6.3,4.1,8.4c1.5,2.1,3,3.7,4.7,4.7c0.4,0.3,1,0.5,1.7,0.8
			C229.7,53.8,230.5,54.1,231.6,54.5z M214.1,27.9c0.1-2.7-0.3-4.1-1.2-4.2c-0.2,0-0.4,0-0.5,0.1h0V31c0.4-0.4,0.7-0.8,0.9-1.3
			C213.6,29.2,213.9,28.6,214.1,27.9z"/>
		<path fill="#A3D291" d="M230.6,26.3l-0.9,0.7c-2,1.6-3.4,3.7-4.5,6.1v2.7c0,2.5,0.6,3.6,1.9,3.2c0.7-0.2,1.4-0.7,2-1.7l0.5-1.1
			c0.3-0.6,0.3-1.4,0.3-2.3c-0.1-0.9-0.3-1.8-0.6-2.9l1.4,2.3v0c0.3,1,0.4,2.1,0.1,3.2c-0.4,2.1-1.6,4.2-3.6,6.2l-0.4,0.4l-1-0.5
			c-0.9-0.4-1.7-1-2.3-1.5c-0.6-0.6-1-1.3-1.2-2.1c0-0.3-0.1-0.6-0.1-1.1c0-0.5,0-1.1,0-1.9V25.1c-0.1-0.1-0.1-0.2,0-0.2l6.9-5
			c0.4,0.2,0.6,0.4,0.8,0.8c0.1,0.3,0.2,0.8,0.3,1.4c0.1,0.7,0.1,1.5,0.2,2.5c0,0.5,0.2,1,0.6,1.5L230.6,26.3z M227.2,27.9
			c0-1.7-0.1-2.9-0.4-3.6c-0.2-0.3-0.5-0.5-0.8-0.5c-0.2-0.1-0.4-0.1-0.5,0c-0.1,0-0.2,0-0.2,0.1v7.2
			C225.9,30.5,226.5,29.5,227.2,27.9z"/>
		<path fill="#A3D291" d="M238.9,22.7l3.7-2.7c0.2,0.1,0.3,0.2,0.5,0.3c0.1,0.2,0.2,0.3,0.3,0.5c0.1,0.3,0.2,0.7,0.3,1.4
			c0.1,0.7,0.1,1.5,0.2,2.5c0,0.5,0.2,1,0.6,1.5l-0.2,0.1c0,0.1-0.3,0.4-0.8,0.7c-0.5,0.4-0.9,0.8-1.4,1.2c-0.5,0.4-0.9,0.8-1.2,1.3
			c0-1.8,0-3.1-0.1-3.8c0-0.7-0.1-1.2-0.3-1.4c-0.2-0.3-0.5-0.5-0.8-0.5c-0.2,0-0.4,0-0.5,0h-0.1c0,1.7,0,3.6,0,5.8
			c-0.1,2.2-0.1,4.9-0.1,8.3c0.1,1.2,0.7,1.8,1.8,1.6h0.1c0.1,0,0.1,0,0.1,0l-2.6,3.4c-1.4-0.7-2.3-1.7-2.6-3.1
			c-0.1-0.5-0.1-1.5-0.1-2.9l0-11.9c0-0.8-0.1-1.3-0.3-1.7c-0.2-0.4-0.7-0.6-1.3-0.5c-0.1,0-0.2,0-0.2,0l3.9-2.8
			c0.6,0.3,1.1,0.9,1.3,1.8V22.7z"/>
	</g>
</g>
<g>
	<g>
		<path fill="#A3D291" d="M28.9,74.2c2.1-0.4,4.2-0.5,6.3-0.5c2.1,0,4.1,0.2,6.2,0.4c2.1,0.2,4.1,0.4,6.2,0.6
			c2.1,0.2,4.2,0.3,6.3,0.3c2.1,0,4.3-0.2,6.5-0.6c2.2-0.4,4.5-1,6.8-2l-6.1,6.6c-1.3,0.4-2.6,0.7-3.9,0.9c-1.3,0.2-2.5,0.3-3.7,0.4
			c-1.2,0.1-2.4,0.1-3.6,0c-1.2-0.1-2.4-0.1-3.5-0.2c0.1,2.5,0.2,5,0.4,7.7c0.2,2.7,0.2,5.3,0.2,7.9c0,2.6-0.3,5.1-0.7,7.5
			s-1.2,4.6-2.3,6.6l-5.2,6.1c0.7-1.2,1.2-2.6,1.6-4.1c0.4-1.5,0.7-3,0.9-4.6c0.2-1.6,0.3-3.3,0.3-5c0-1.7,0-3.4,0-5.2l-1.9,1.6
			c-0.1-0.1-0.2-0.1-0.3-0.1c0,1,0,1.9,0,2.9c0,0.9,0,1.8,0,2.7c0,0.5,0,1,0,1.6c0,0.6,0.1,1.2,0.1,1.7c0,0.6,0,1.1,0,1.7
			c0,0.6-0.1,1-0.2,1.5c-0.3,1.1-0.9,2.2-1.6,3.2c-0.8,1-1.6,1.9-2.4,2.7c-0.9,0.8-1.7,1.4-2.4,1.8c-0.8,0.4-1.3,0.6-1.6,0.5
			c-2.4-0.4-4.8-1.2-7.3-2.4c-2.5-1.2-4.7-2.8-6.7-4.9c-0.6-0.6-1.2-1.3-1.8-2.2c-0.6-0.8-1.1-1.7-1.5-2.6c-0.4-0.9-0.7-1.8-0.9-2.8
			c-0.2-0.9-0.1-1.8,0.2-2.6c0-0.1,0-0.2,0.1-0.2c0-0.1,0.1-0.1,0.2-0.2c-0.5-0.1-1-0.2-1.5-0.2c-0.5,0-1,0-1.5,0
			c-1.5,0.1-2.9,0.4-4,0.8c-1.1,0.4-2,1-2.8,1.6c-1.2,0.9-1.9,2.1-2.2,3.6c0,0,0,0.1,0,0.2c0.5,0.8,1.1,1.7,1.9,2.5
			c0.8,0.8,1.8,1.6,2.9,2.4c0.3-0.1,0.5,0,0.8,0.1c0.3,0.1,0.6,0.3,0.9,0.6c0.3,0.2,0.5,0.4,0.7,0.7c0.2,0.2,0.2,0.4,0.2,0.5
			c-0.4,0.1-0.8,0-1.2-0.1c-0.4-0.1-0.7-0.3-1-0.5c-0.3-0.2-0.5-0.4-0.7-0.6c-0.2-0.2-0.2-0.4-0.1-0.5c-2-1.4-3.5-2.9-4.6-4.4
			c0,0.5,0,1.1,0.1,1.7c0.1,0.6,0.3,1.2,0.5,1.8c0.4,1,1,2,1.8,2.9c0.8,0.9,1.7,1.8,3,2.6c0,0,0,0,0,0c0.2-0.1,0.5-0.1,0.8,0.1
			c0.3,0.1,0.6,0.3,0.9,0.6c0.3,0.2,0.5,0.5,0.7,0.8c0.2,0.3,0.3,0.5,0.3,0.6c-0.3,0-0.6,0-1-0.1c-0.3-0.1-0.6-0.3-0.9-0.4
			s-0.5-0.4-0.7-0.6c-0.2-0.2-0.3-0.4-0.3-0.6c-1.2-0.8-2.2-1.7-3-2.7c-0.8-1-1.4-2-1.8-3c-0.3-0.7-0.4-1.5-0.5-2.2
			c-0.1-0.7-0.1-1.4,0-2c-0.1-0.1-0.1-0.2-0.2-0.4c-0.1-0.1-0.1-0.2-0.2-0.4c-0.3-0.6-0.5-1.3-0.6-2c-0.1-0.7-0.1-1.3,0-1.9
			c0.2-1.2,0.8-2.3,2-3.2c0.7-0.6,1.6-1,2.7-1.4c1.1-0.4,2.4-0.6,3.9-0.7c2.1-0.1,4.4,0.2,6.9,1c0.2-0.2,0.4-0.4,0.4-0.6
			c0.1-0.3,0.2-0.6,0.3-0.9c0.1-0.3,0.4-0.6,0.8-0.9c0.4-0.3,1-0.6,1.8-0.8c0.3-0.1,1-0.2,1.9-0.3c1-0.1,2.2,0,3.7,0.2
			c1.5,0.3,3.2,0.9,5.1,1.8c1.9,0.9,4,2.4,6.2,4.4c-0.2,0.4-0.5,0.7-0.8,1c-0.4,0.3-0.6,0.6-0.8,1c-0.2,1.2-0.4,2.4-0.8,3.5
			c-0.4,1.1-0.9,2.2-1.5,3.1c0-0.2-0.1-0.3-0.2-0.5c-0.1-0.2-0.2-0.4-0.2-0.5c-1.2-1.1-2.7-2.1-4.4-3.1c-1.7-1-3.6-1.9-5.6-2.7
			c-0.8-0.3-1.7-0.5-2.5-0.8c-0.8-0.2-1.7-0.4-2.5-0.6c0.2,0.8,0.6,1.7,1.1,2.6c0.6,0.9,1.3,1.8,2.4,2.8c1,0.9,2.3,1.9,3.8,2.9
			c1.5,1,3.3,2,5.4,3.1c1.4,0.7,2.6,1.1,3.6,1.3c1,0.2,1.9,0.2,2.6,0c0.7-0.2,1.3-0.6,1.8-1.2c0.5-0.6,0.9-1.2,1.2-2
			c0.2-0.6,0.4-1.1,0.4-1.6c0-0.4,0-1,0-1.7v-9.4c-0.8-0.6-1.5-1.2-2.2-1.8c-0.6-0.6-1.1-1-1.3-1.3l3.5-3.1V80.9v-1.6
			c-2-0.2-4.1-0.2-6.1-0.2c-2.1,0-4.2,0.3-6.5,0.9c0.2,0.4,0.4,0.8,0.8,1.2c0.4,0.3,0.8,0.6,1.2,0.8c0.5,0.2,1,0.3,1.5,0.3
			c0.5,0,1-0.1,1.5-0.3c-0.4,0.7-0.9,1.3-1.3,1.7c-0.4,0.4-0.8,0.9-1.3,1.4c-0.4,0.5-0.9,1-1.4,1.6c-0.5,0.6-1,1.4-1.5,2.4
			c-0.7,0.1-1.4-0.1-2.2-0.6s-1.4-1-2-1.7c-0.5-0.7-0.9-1.4-1-2.2c-0.1-0.8,0.1-1.5,0.7-2c1.2-1.3,2.5-2.7,3.8-4.2
			C26.3,76.8,27.6,75.5,28.9,74.2z M13.7,100.5c0.3-0.4,0.5-0.8,0.8-1.2c0.3-0.4,0.6-0.8,0.9-1c-2.4-0.8-4.6-1.1-6.6-1
			C7.3,97.4,6,97.6,5,98c-1.1,0.4-1.9,0.8-2.6,1.3c-0.5,0.4-1,0.9-1.3,1.4c-0.3,0.5-0.5,1.1-0.6,1.7c-0.1,0.6-0.1,1.2,0,1.8
			c0.1,0.6,0.3,1.3,0.6,1.9c0,0,0,0.1,0,0.1c0,0,0,0.1,0,0.2c0.2-0.7,0.4-1.3,0.8-1.9c0.4-0.6,0.8-1.2,1.4-1.6
			c0.8-0.7,1.8-1.2,3-1.7c1.2-0.4,2.5-0.7,4-0.8c0.5,0,1,0,1.6,0C12.5,100.4,13.1,100.4,13.7,100.5z M31,107.6
			c-0.1-0.2-0.2-0.4-0.3-0.7c-0.1-0.2-0.2-0.4-0.4-0.7c-1.3-1.1-3-2.3-4.9-3.4c-1.9-1.2-3.9-2.2-6-3.1c-0.2-0.1-0.4-0.2-0.6-0.3
			c-0.2-0.1-0.4-0.2-0.6-0.3c-0.4,0-0.7,0.1-1,0.1c-0.3,0-0.6,0.1-1,0.2v1.3c0.9,0.2,1.8,0.4,2.6,0.6c0.8,0.3,1.7,0.5,2.5,0.9
			c1.8,0.7,3.6,1.6,5.2,2.5C28.4,105.7,29.8,106.7,31,107.6z M29.7,105.3c-0.8-1.1-1.6-2-2.4-2.8c-0.9-0.8-1.8-1.4-2.7-1.8
			c-0.9-0.5-1.8-0.8-2.7-1c-0.9-0.2-1.7-0.3-2.5-0.4c0,0,0.1,0.1,0.2,0.1c0.1,0,0.1,0.1,0.2,0.1c1.9,0.8,3.7,1.7,5.4,2.8
			C26.9,103.2,28.4,104.3,29.7,105.3z M39.3,92.3c0.5,0.6,1.2,1.2,2.1,2c-0.1-1.9-0.1-3.7-0.2-5.5c-0.1-1.8,0-3.5,0-5.2
			c0-0.7,0.1-1.2,0.3-1.4l2-2.3c-0.7-0.1-1.4-0.2-2.1-0.3c-0.7-0.1-1.4-0.2-2-0.2c-0.1,0.4-0.1,1.1-0.1,2c0,0.9,0,1.9,0,3
			c0,1.1,0,2.4,0,3.8C39.3,89.4,39.3,90.8,39.3,92.3z"/>
		<path fill="#A3D291" d="M57.3,85.7L61,83c0.2,0.1,0.3,0.2,0.5,0.3c0.1,0.2,0.2,0.3,0.3,0.5c0.1,0.3,0.2,0.7,0.3,1.4
			c0.1,0.7,0.1,1.5,0.2,2.5c0,0.5,0.2,1,0.6,1.5l-0.2,0.1c0,0.1-0.3,0.4-0.8,0.7c-0.5,0.4-0.9,0.8-1.4,1.2c-0.5,0.4-0.9,0.8-1.2,1.3
			c0-1.8,0-3.1-0.1-3.8c0-0.7-0.1-1.2-0.3-1.4C58.6,87.2,58.3,87,58,87c-0.2,0-0.4,0-0.5,0h-0.1c0,1.7,0,3.6,0,5.8
			c-0.1,2.2-0.1,4.9-0.1,8.3c0.1,1.2,0.7,1.8,1.8,1.6h0.1c0.1,0,0.1,0,0.1,0l-2.6,3.4c-1.4-0.7-2.3-1.7-2.6-3.1
			c-0.1-0.5-0.1-1.5-0.1-2.9l0-11.9c0-0.8-0.1-1.3-0.3-1.7C53.4,86.1,53,86,52.4,86c-0.1,0-0.2,0-0.2,0l3.9-2.8
			c0.6,0.3,1.1,0.9,1.3,1.8V85.7z"/>
		<path fill="#A3D291" d="M74.4,106.2c-1.4-0.7-2.3-1.8-2.6-3.2l-2.4,3.2c-1.9-1-2.8-2.5-2.8-4.5v-0.3c0-0.1,0-0.2,0-0.3
			c0-0.1,0-0.3,0-0.5v-1.7v-5.6l0.8-0.6c-0.7-1.8-0.9-3.3-0.6-4.7c0.4-1.4,1.3-2.5,2.8-3.2c0.8-0.2,2-0.7,3.5-1.4
			c0.3-0.2,0.5-0.3,0.6-0.4c0.1-0.1,0.2-0.1,0.3,0c1,0.3,1.5,2.1,1.4,5.5c0,0.3,0,1.4-0.1,3.4c0,2-0.1,5.1-0.2,9.1
			c0,1.2,0.6,1.8,1.8,1.6H77c0,0,0,0,0,0L74.4,106.2z M71.7,87.2l-2.1,0.5c-1.4,0.5-2.1,1.6-2.1,3.2c0,0.4,0,0.9,0.1,1.4
			c0.6-0.6,1.3-1.2,2-1.9c0.7-0.7,1.4-1.1,2.1-1.4V87.2z M71.7,102.7c0-0.3,0-0.6,0-1s0-0.9,0-1.5l0-10.1c-1.2,0.9-1.8,2.7-1.8,5.2
			v5.7H70v0.1C70,102.3,70.5,102.9,71.7,102.7z"/>
		<path fill="#A3D291" d="M80.7,88.2c0-1.6-0.5-2.3-1.5-2.3c0,0-0.1,0-0.2,0l3.8-2.8c0.9,0.4,1.4,2.3,1.4,5.4l-0.1,12
			c0,0.9,0.1,1.6,0.4,2.3c0.3,0.6,0.6,0.9,1.1,0.9c0.2,0,0.4,0,0.6-0.1c0.2,0,0.4-0.2,0.8-0.6c-0.2-0.2-0.3-0.4-0.4-0.6
			c-0.1-0.2-0.2-0.3-0.3-0.5c-0.1-0.2-0.1-0.4-0.1-0.7c0-0.3,0-0.6,0-1c0-0.2,0-0.6,0-1.1c0-0.5,0-1.2,0-2.1s0-2.1,0-3.5
			c0-1.4,0.1-3.2,0.1-5.4c0-1.6-0.5-2.3-1.5-2.3c0,0-0.1,0-0.2,0l3.8-2.8c0.7,0.2,1.1,0.9,1.3,2.2c0.1,0.5,0.1,1.6,0.1,3.2
			c0,0.2,0,0.4,0,0.8c0,0.4,0,1,0,1.9c0,0.9,0,2.1-0.1,3.6c0,1.5-0.1,3.5-0.1,5.9c0.1,0.5,0.3,1,0.6,1.4c-0.1,0-0.2,0.1-0.4,0.2
			c-0.1,0.1-0.4,0.3-0.9,0.6c-0.4,0.3-1.1,0.7-1.9,1.2c-0.8,0.5-2,1.2-3.5,2c-1.9-0.9-2.8-2.4-2.8-4.5V88.2z"/>
		<path fill="#A3D291" d="M98.5,84.9c0.1,1.2,0.1,2.3,0.1,3.4c0,1.1,0,2.2,0,3.4c0,1.2,0,2.5-0.1,3.8c0,1.4-0.1,2.9-0.2,4.6
			c0,0.3,0,0.6,0,1c0,0.4,0.1,0.7,0.3,0.9c0.4,0.5,0.8,0.8,1.1,0.7c0.3,0,0.5,0,0.6,0l-2.6,3.4c-1.5-0.7-2.4-1.8-2.6-3.1
			c-0.1-0.4-0.2-1.4-0.2-2.9l0.1-11.9c0-0.8-0.1-1.3-0.3-1.7c-0.2-0.4-0.6-0.6-1.3-0.5c-0.1,0-0.2,0-0.2,0l3.9-2.8
			C97.9,83.3,98.3,83.9,98.5,84.9z M96.8,80.9c-0.2-0.1-0.3-0.2-0.5-0.4c-0.2-0.2-0.4-0.5-0.6-0.7c-0.2-0.3-0.5-0.5-0.7-0.7
			c-0.3-0.2-0.5-0.4-0.8-0.4c-0.2,0-0.3,0-0.4,0.1h-0.2l3.6-2.9c0.2,0.1,0.4,0.2,0.6,0.4c0.2,0.2,0.5,0.5,0.7,0.7
			c0.2,0.3,0.5,0.5,0.7,0.7c0.3,0.2,0.5,0.4,0.8,0.4c0.1,0.1,0.2,0.1,0.3,0s0.2,0,0.3,0L96.8,80.9z"/>
		<path fill="#A3D291" d="M110,90.5c-0.3-0.7-0.5-1.3-0.7-1.8c-0.2-0.5-0.4-0.9-0.6-1.2c-0.2-0.3-0.4-0.5-0.6-0.7
			c-0.2-0.2-0.4-0.3-0.6-0.5c-0.4-0.1-0.7,0-0.9,0.3l0.1,5.3c0,0.8,0.2,1.4,0.4,1.7c0.3-0.4,0.5-0.6,0.7-0.9
			c0.2-0.2,0.4-0.4,0.5-0.6s0.3-0.4,0.4-0.6c0.1-0.2,0.3-0.4,0.4-0.7c0.7,0.2,1.3,0.5,1.8,0.9c0.5,0.4,0.8,1.1,1.1,2
			c0.1,0.3,0.2,0.6,0.2,0.9c0,0.4,0,0.9,0,1.7l0.1,4.6c0,0.1,0,0.1-0.1,0.1c-0.7,0.8-2.2,2.5-4.7,5.1c-0.4-0.2-0.8-0.4-1-0.5
			c-0.3-0.1-0.4-0.2-0.5-0.3c-0.4-0.2-1-0.9-1.7-2l-1.7-2.4c-0.1-0.1-0.1-0.1,0-0.2c0.2-0.4,0.4-0.7,0.8-1.1c0.3-0.4,0.7-1,1.2-1.7
			c0.6,0.6,1,1.1,1.3,1.4c0.3,0.4,0.6,0.9,0.9,1.5c0.5,0.9,1,1.5,1.3,1.7c0.2,0.2,0.5,0.1,0.8-0.4l-0.1-6c0-0.5-0.4-1.1-1.2-1.7
			c-0.2,0.3-0.5,0.7-0.9,1.3c-0.4,0.6-0.8,1.3-1.1,2.1c0,0-0.1,0-0.3-0.1c-0.2-0.1-0.4-0.3-0.7-0.5c-0.3-0.2-0.5-0.5-0.8-0.8
			c-0.3-0.3-0.4-0.7-0.5-1.1c-0.1-0.5-0.2-1.5-0.2-3l-0.1-4.6l0.1,0c0.4-0.4,1.1-1.1,1.8-2c0.8-0.9,1.7-1.9,2.8-3.2l1.5,0.8l1.2,1.2
			c0.9,1.4,1.7,2.5,2.3,3.2c0.1,0,0.1,0.1,0.1,0.1c0,0,0,0-0.1,0c-0.4,0.3-0.9,0.6-1.4,1C111.1,89.4,110.5,89.8,110,90.5z"/>
		<path fill="#A3D291" d="M175.7,74.6c0,0.1,0.2,0.4,0.6,1c0.4,0.6,0.9,1.2,1.4,1.8c0.5,0.7,1,1.3,1.5,1.8c0.5,0.6,0.9,0.9,1.1,1
			c-0.2,2-0.3,4.2-0.3,6.7c0,2.5,0,4.9,0,7.2c0,2.4,0.1,4.5,0.2,6.4c0.1,1.9,0.1,3.3,0.2,4.2c0,0.3,0,0.5,0.1,0.9
			c0.1,0.3,0.2,0.6,0.4,0.9c0.2,0.3,0.3,0.5,0.5,0.8c0.2,0.2,0.4,0.4,0.5,0.5c-0.3,0.2-0.7,0.5-1.2,0.9c-0.5,0.4-1.1,0.8-1.6,1.3
			c-0.6,0.5-1.2,1-1.8,1.6c-0.6,0.6-1.2,1.2-1.7,1.7c0-0.6,0-1.2,0-1.7c0-0.5,0-1-0.1-1.5c-0.1-0.5-0.3-1-0.6-1.4
			c-0.3-0.5-0.8-1-1.4-1.5c0.5,0,0.8-0.1,1.1-0.3c0.2-0.2,0.4-0.4,0.5-0.6c0.1-0.2,0.1-0.4,0.1-0.6c0-0.2,0-0.4,0-0.5
			c-0.1-0.8-0.1-2.1-0.1-3.9c0-1.8,0-3.7,0-5.9c0-2.2,0-4.4,0-6.6c0-2.2-0.1-4.2-0.1-6c0-0.4-0.2-0.9-0.6-1.4
			c-0.4-0.5-0.8-1.1-1.2-1.6c-0.2-0.2-0.4-0.3-0.6-0.4c-0.2,0-0.5,0-0.8,0.1c-0.3,0.1-0.5,0.2-0.8,0.4c-0.2,0.2-0.5,0.4-0.6,0.6h0.1
			c-0.1,1.3-0.2,2.7-0.3,4.3c-0.1,1.5-0.1,3.1-0.1,4.7c0,1.6,0,3.2,0,4.7s0,3,0,4.3c0,1.3,0.1,2.5,0.1,3.6c0,1.1,0,1.9,0.1,2.5
			c0,0.3,0.1,0.5,0.2,0.9c0.1,0.3,0.2,0.6,0.4,0.9s0.3,0.5,0.5,0.8c0.2,0.2,0.3,0.4,0.5,0.5c-0.3,0.2-0.7,0.5-1.2,0.8
			c-0.5,0.4-1.1,0.8-1.6,1.3c-0.6,0.5-1.2,1-1.8,1.6c-0.6,0.6-1.2,1.2-1.7,1.7c0-0.6,0-1.2,0-1.7c0-0.5,0-1-0.1-1.5
			c-0.1-0.5-0.3-1-0.6-1.4c-0.3-0.5-0.7-1-1.3-1.5c0.5,0,0.8-0.1,1-0.2c0.2-0.2,0.4-0.4,0.4-0.6c0.1-0.2,0.1-0.4,0.1-0.6
			c0-0.2,0-0.4,0.1-0.5c-0.1-0.5-0.1-1.3-0.1-2.3s0-2.1,0-3.3c0-1.2,0-2.6,0-4c0-1.4,0-2.8,0-4.2c0-1.4,0-2.8,0-4.2
			c0-1.4,0-2.6,0-3.8c-0.1-0.4-0.3-0.9-0.7-1.5c-0.4-0.6-0.8-1.1-1.2-1.6c-0.2-0.2-0.4-0.3-0.6-0.3c-0.3,0-0.5,0.1-0.8,0.2
			c-0.3,0.1-0.5,0.3-0.8,0.5c-0.3,0.2-0.5,0.4-0.6,0.5c0.1,2.5,0.2,5.1,0.4,7.7c0.2,2.6,0.2,5.2,0.2,7.8c0,2.6-0.3,5-0.7,7.4
			c-0.4,2.4-1.2,4.5-2.3,6.5l-5.1,6.2c0.7-1.2,1.2-2.6,1.6-4.1c0.4-1.5,0.6-3,0.8-4.6c0.2-1.6,0.3-3.3,0.3-5c0-1.7,0-3.4,0-5.2
			l-1.8,1.6v10c0,0.8-0.2,1.7-0.6,2.5c-0.4,0.8-0.8,1.7-1.3,2.4c-0.5,0.8-1.1,1.5-1.8,2.1c-0.7,0.7-1.3,1.2-1.9,1.7
			s-1.2,0.8-1.7,1.1c-0.5,0.3-0.9,0.4-1.2,0.3c-2.4-0.5-4.8-1.3-7.2-2.4c-2.4-1.1-4.7-2.8-6.7-4.9c-0.6-0.6-1.2-1.4-1.8-2.2
			c-0.6-0.8-1.1-1.7-1.5-2.6c-0.4-0.9-0.7-1.8-0.9-2.8c-0.2-0.9-0.1-1.8,0.2-2.7c0-0.1,0.1-0.2,0.1-0.3c0-0.1,0.1-0.2,0.1-0.3
			c-0.4-0.1-0.9-0.1-1.3-0.1c-0.4,0-0.8,0-1.3,0c-1.5,0.1-2.8,0.3-3.9,0.6c-1.1,0.4-2.1,0.9-2.9,1.5c-1.2,1-1.9,2.2-2.2,3.6
			c0,0-0.1,0-0.1,0c0,0,0,0.1,0,0.1c1.1,1.8,2.6,3.4,4.7,4.9c0.1,0,0.1,0,0.1,0c0,0,0,0,0.1,0c0.3-0.1,0.6,0,0.9,0.2
			c0.3,0.2,0.6,0.4,0.8,0.7c0.2,0.3,0.4,0.6,0.6,0.8c0.1,0.3,0.2,0.5,0.1,0.6c-0.6,0-1.2-0.2-1.8-0.6c-0.5-0.4-0.8-0.8-0.9-1.2
			c-1-0.7-1.9-1.5-2.7-2.3c-0.8-0.8-1.4-1.6-1.9-2.4c-0.1,1.2,0.1,2.4,0.5,3.6c0.4,0.9,0.9,1.9,1.6,2.8c0.7,0.9,1.6,1.8,2.8,2.6
			c0.2,0,0.5,0,0.8,0.1c0.3,0.1,0.6,0.3,0.9,0.5c0.3,0.2,0.5,0.4,0.7,0.6c0.2,0.2,0.3,0.4,0.3,0.5c-0.4,0.1-0.8,0.1-1.2,0
			c-0.4-0.1-0.8-0.2-1.1-0.4c-0.3-0.2-0.5-0.4-0.7-0.6c-0.2-0.2-0.2-0.4-0.1-0.6c-1.1-0.8-2-1.6-2.7-2.6c-0.7-1-1.3-1.9-1.6-2.9
			c-0.3-0.7-0.4-1.4-0.6-2.1c-0.1-0.7-0.1-1.4,0.1-2.1c0-0.1-0.1-0.2-0.2-0.3c-0.1-0.1-0.1-0.2-0.2-0.4c-0.6-1.4-0.8-2.7-0.5-3.9
			c0.1-0.6,0.4-1.1,0.7-1.7c0.3-0.5,0.8-1,1.3-1.4c1.6-1.2,3.8-1.9,6.7-1.9c2-0.1,4.1,0.2,6.5,1c0.2-0.2,0.3-0.4,0.3-0.7
			c0-0.3,0.1-0.5,0.3-0.8s0.4-0.6,0.8-0.9c0.4-0.3,1-0.6,1.8-0.8c0.3-0.1,1-0.2,1.9-0.3s2.2,0,3.6,0.2c1.5,0.3,3.2,0.9,5.1,1.8
			c1.9,0.9,4,2.4,6.2,4.4c-0.2,0.4-0.4,0.8-0.8,1.1c-0.4,0.3-0.6,0.7-0.8,1c-0.3,2.1-0.9,4.1-1.9,6c-0.1,0.1-0.1,0.2-0.2,0.4
			c-0.1,0.1-0.1,0.2-0.2,0.4c-0.1-0.2-0.1-0.3-0.2-0.5c-0.1-0.2-0.2-0.3-0.2-0.5c-1.2-1.1-2.6-2.1-4.3-3.1c-1.7-1-3.4-1.9-5.3-2.6
			c-0.9-0.4-1.8-0.7-2.7-1c-0.9-0.3-1.8-0.6-2.7-0.7c0.1,0.8,0.5,1.7,1,2.6c0.5,0.9,1.3,1.8,2.4,2.8c1,1,2.3,1.9,3.8,2.9
			c1.5,1,3.4,2,5.5,3.1c1.7,0.9,3.1,1.3,4.3,1.4c1.2,0.1,2.1-0.1,2.9-0.5s1.4-1.1,1.8-2c0.4-0.9,0.8-1.9,1-3.1V99.1
			c-0.9-0.6-1.7-1.2-2.4-1.9c-0.7-0.7-1.2-1.1-1.4-1.3l3.7-3.3l0.1,0.1V82.7c-1.4,0.3-2.7,0.3-3.8-0.1s-2.2-0.9-3.2-1.5
			c-1-0.6-1.9-1.3-2.7-2c-0.8-0.7-1.7-1.2-2.4-1.6c-0.3-0.1-0.6-0.1-1,0c-0.3,0.1-0.7,0.3-1.1,0.6c-0.8,0.5-1.4,1.3-1.8,2.4
			c-0.3,0.9-0.3,1.6-0.2,2.4c0.1,0.8,0.3,1.6,0.6,2.3s0.7,1.3,1.3,1.8c1,0.8,2.1,1.4,3.5,1.7c1.4,0.3,2.7,0.2,3.9-0.1
			c0.2-0.1,0.5-0.2,1-0.5c0.4-0.3,0.9-0.5,1.3-0.8c0.5-0.3,1-0.5,1.5-0.7c0.5-0.2,0.9-0.3,1.3-0.3c-0.1,0.3-0.3,0.6-0.6,1
			s-0.6,0.7-0.8,0.9c-0.2,0.1-0.4,0.2-0.6,0.3c-0.3,0.1-0.5,0.2-0.7,0.3c-0.8,0.2-1.7,0.3-2.8,0.5c-1.1,0.1-2.2,0.1-3.2-0.1
			c-1.4-0.2-2.6-0.7-3.8-1.6c-1.2-0.9-1.9-2.2-2.1-3.9c-0.2-0.8-0.1-1.7,0.1-2.6c0.2-0.9,0.6-1.7,1-2.5s1.1-1.5,1.8-2.2
			c0.8-0.6,1.6-1.1,2.5-1.4l1-0.4c0.5-0.4,1-0.6,1.5-0.6c0.5,0,0.9,0.1,1.4,0.3c0.4,0.2,0.9,0.6,1.4,1c0.5,0.4,1,0.8,1.6,1.2
			c0.6,0.4,1.2,0.8,1.9,1.2c0.7,0.4,1.5,0.6,2.4,0.8l-0.1-1.4c0-0.4,0.2-0.9,0.4-1.3c0.2-0.5,0.5-0.9,1-1.4c0.4-0.5,1.1-1,1.8-1.5
			c0.8-0.5,1.8-1,3-1.5c0.1,0.3,0.1,0.5,0,0.9c-0.1,0.3-0.1,0.6,0,1c0.2,0.7,0.2,1.3,0.1,1.8c-0.1,0.5-0.2,0.8-0.3,0.9
			c-0.3-0.3-0.5-0.4-0.7-0.4c-0.2,0-0.4,0-0.6,0.1c-0.9,0.3-1.7,0.7-2.3,1.2c-0.6,0.5-1,1.1-1.4,1.7c0.8,0,1.7-0.1,2.6-0.3
			c0.9-0.2,2-0.5,3.1-1.1l-6.1,5.4v11c0.2,0.2,0.4,0.4,0.7,0.7c0.3,0.3,0.6,0.6,1,0.9c-0.1-1.9-0.2-3.8-0.3-5.6
			c-0.1-1.8-0.1-3.5,0-5.2c0.1-0.7,0.2-1.2,0.5-1.4c0.8-1,1.7-2,2.6-3.1c0.9-1,1.8-2,2.6-3.1c0.5-0.7,1.4-0.9,2.4-0.6
			c-0.8,0.2-1.4,0.6-1.8,1.2c-0.4,0.6-0.8,1.1-1.1,1.6c0,0.3,0,0.5,0,0.6s0,0.4,0,0.6c0.2-0.5,0.6-0.9,1.1-1.3s1-0.7,1.5-1.1
			c0.5-0.4,1.1-0.8,1.6-1.2c0.5-0.4,0.9-0.9,1.2-1.5c0,0.1,0.2,0.4,0.6,0.8c0.3,0.4,0.7,1,1.2,1.5c0.4,0.6,0.9,1.1,1.4,1.7
			c0.5,0.6,0.9,1,1.2,1.3c0.1-0.6,0.4-1.1,0.8-1.5c0.5-0.4,1-0.8,1.6-1.2c0.6-0.4,1.2-0.8,1.8-1.3C174.8,75.8,175.3,75.3,175.7,74.6
			z M127.5,101.2c0.3-0.4,0.6-0.8,0.9-1.3c0.3-0.4,0.6-0.8,0.9-1.1c-1.1-0.3-2.1-0.6-3.2-0.7c-1-0.2-2-0.2-2.9-0.1
			c-1.5,0-2.8,0.2-3.8,0.6s-2,0.8-2.7,1.3c-1.1,0.8-1.7,1.8-2,2.9c-0.2,1.2,0,2.5,0.5,3.8c0,0,0,0.1,0,0.1c0,0,0,0.1,0,0.1
			c0.4-1.3,1.2-2.5,2.4-3.5c0.7-0.6,1.7-1.2,2.9-1.5c1.2-0.4,2.5-0.6,4.1-0.7c0.4-0.1,0.9-0.1,1.4,0
			C126.6,101.1,127,101.1,127.5,101.2z M145,108.6c-0.1-0.3-0.3-0.5-0.4-0.7c-0.1-0.2-0.3-0.5-0.4-0.7c-1.3-1.1-2.9-2.3-4.6-3.4
			c-1.8-1.2-3.7-2.2-5.6-3.1c-0.3-0.1-0.5-0.2-0.7-0.3c-0.2-0.1-0.4-0.2-0.7-0.3c-0.4,0-0.8,0-1.2,0.1c-0.4,0.1-0.8,0.1-1.1,0.2v1.3
			c0.9,0.2,1.9,0.4,2.9,0.7c1,0.3,1.9,0.6,2.9,1c1.7,0.7,3.3,1.6,4.9,2.4C142.4,106.7,143.8,107.6,145,108.6z M143.5,106.1
			c-1.5-2.1-3.1-3.6-4.9-4.5c-1.8-0.9-3.5-1.4-5.1-1.5c0.1,0,0.2,0.1,0.3,0.1c0.1,0,0.2,0.1,0.3,0.1c1.8,0.8,3.5,1.7,5.2,2.7
			C140.8,104.1,142.3,105.1,143.5,106.1z"/>
		<path fill="#A3D291" d="M190.3,84.9c0.1,1.2,0.1,2.3,0.1,3.4c0,1.1,0,2.2,0,3.4c0,1.2,0,2.5-0.1,3.8c0,1.4-0.1,2.9-0.2,4.6
			c0,0.3,0,0.6,0,1c0,0.4,0.1,0.7,0.3,0.9c0.4,0.5,0.8,0.8,1.1,0.7c0.3,0,0.5,0,0.6,0l-2.6,3.4c-1.5-0.7-2.4-1.8-2.6-3.1
			c-0.1-0.4-0.2-1.4-0.2-2.9l0.1-11.9c0-0.8-0.1-1.3-0.3-1.7c-0.2-0.4-0.6-0.6-1.3-0.5c-0.1,0-0.2,0-0.2,0l3.9-2.8
			C189.6,83.3,190.1,83.9,190.3,84.9z M188.5,80.9c-0.2-0.1-0.3-0.2-0.5-0.4c-0.2-0.2-0.4-0.5-0.6-0.7c-0.2-0.3-0.5-0.5-0.7-0.7
			c-0.3-0.2-0.5-0.4-0.8-0.4c-0.2,0-0.3,0-0.4,0.1h-0.2l3.6-2.9c0.2,0.1,0.4,0.2,0.6,0.4c0.2,0.2,0.5,0.5,0.7,0.7
			c0.2,0.3,0.5,0.5,0.7,0.7c0.3,0.2,0.5,0.4,0.8,0.4c0.1,0.1,0.2,0.1,0.3,0s0.2,0,0.3,0L188.5,80.9z"/>
		<path fill="#A3D291" d="M217.7,117.5c-0.2,0.1-0.3,0.1-0.5,0.1c-0.1,0-0.3,0-0.4,0.1c-1.3,0.1-2.7-0.2-4.1-0.9s-2.9-1.8-4.4-3.5
			c-1.2-1.3-2.3-2.7-3.2-4.1c-0.9-1.4-1.7-2.8-2.4-4.2c-0.4-0.9-1-2.1-1.7-3.5c-0.7-1.4-1.5-3.1-2.4-5.2v1.2
			c-0.1,0.3-0.1,0.5-0.1,0.7c0,0.2,0,0.3,0,0.4v2.4c0,1.2,0.6,1.8,1.8,1.6h0.2c0,0,0,0,0,0l-2.7,3.4c-1.3-0.7-2.2-1.8-2.6-3.1
			c-0.1-0.6-0.1-1.6-0.1-2.9v-1.8c0-1,0-1.8,0-2.2c0-0.5,0-0.6,0-0.6v-7.5c-0.1,0-0.1,0-0.1-0.1l0.1-0.1v-5.2l0-5.2
			c0.1-0.1,0.3-0.4,0.7-1.1c0.4-0.7,1-1.7,1.7-3c1-1.9,2.4-2.8,4.1-2.8c0.3,0,0.8,0.1,1.4,0.2c-2.3,0.6-3.7,1.8-4.3,3.6
			c-0.2,0.6-0.3,1.6-0.3,2.8c0,0.4,0,1.4,0,2.7c0,1.4,0,3.2,0.1,5.5l3.6-2.7c0.8,0.5,1.2,2.1,1.3,4.8c0,0.7,0.2,1.2,0.5,1.5l0,0.1
			c-0.5,0.4-1,0.8-1.6,1.2c-0.5,0.5-1,1-1.5,1.6l3.8,10.6c1.2,3.5,2.6,6.3,4.1,8.4c1.5,2.1,3,3.7,4.7,4.7c0.4,0.3,1,0.5,1.7,0.8
			C215.7,116.8,216.6,117.1,217.7,117.5z M200.2,90.9c0.1-2.7-0.3-4.1-1.2-4.2c-0.2,0-0.4,0-0.5,0.1h0V94c0.4-0.4,0.7-0.8,0.9-1.3
			C199.7,92.2,199.9,91.6,200.2,90.9z"/>
		<path fill="#A3D291" d="M217,98.1l0,3.4c0,0.5,0.2,1,0.6,1.3c-0.1,0.1-0.2,0.2-0.3,0.3c-0.1,0.1-0.4,0.3-0.8,0.6
			c-0.4,0.3-1,0.6-1.9,1.1c-0.8,0.5-2.1,1.1-3.6,2c-1.8-0.9-2.7-2.4-2.7-4.5L208,89.2v-1.9c1.1-0.4,2.2-1,3.2-1.7
			c1-0.7,1.9-1.6,2.8-2.6c0.1,0,0.3,0,0.6,0c0.6,0,1.2,0.2,1.6,0.6c0.4,0.4,0.7,1,0.7,1.7c0.1,1.1,0.2,2.2,0.1,3.3L217,98.1z
			 M212.5,85.9c-0.2,0-0.4,0.1-0.7,0.3s-0.4,0.6-0.4,1.2l0.1,13.8c0,0.9,0.1,1.6,0.4,2.2c0.3,0.6,0.6,0.9,1.2,0.9
			c0.2,0,0.4,0,0.6-0.1c0.2,0,0.4-0.2,0.7-0.5c-0.3-0.4-0.5-0.8-0.6-1.1c-0.1-0.3-0.2-0.9-0.2-1.7c0-1.2,0-2.2,0-2.9
			c0-0.7,0-1.4,0-2.1c0-0.7,0-1.5,0-2.5c0-0.9,0-2.3,0-4C213.6,87.1,213.3,85.9,212.5,85.9z"/>
		<path fill="#A3D291" d="M230.3,70.9c-2.5,0.6-3.9,1.8-4.3,3.6c-0.1,0.3-0.1,0.7-0.2,1.2c0,0.4-0.1,1-0.1,1.6l-0.1,23.8
			c0.1,1.2,0.7,1.8,1.8,1.6h0.2l0,0l-2.6,3.4c-1.5-0.7-2.4-1.8-2.6-3.1c-0.1-0.4-0.2-1.4-0.2-2.9V77.5c0.3-0.2,1.1-1.6,2.4-4
			c1-1.9,2.3-2.9,4-2.9C229.2,70.6,229.7,70.7,230.3,70.9z"/>
		<path fill="#A3D291" d="M238.5,106.2c-1.4-0.7-2.3-1.8-2.6-3.2l-2.4,3.2c-1.9-1-2.8-2.5-2.8-4.5v-0.3c0-0.1,0-0.2,0-0.3
			c0-0.1,0-0.3,0-0.5v-1.7v-5.6l0.8-0.6c-0.7-1.8-0.9-3.3-0.6-4.7c0.4-1.4,1.3-2.5,2.8-3.2c0.8-0.2,2-0.7,3.5-1.4
			c0.3-0.2,0.5-0.3,0.6-0.4c0.1-0.1,0.2-0.1,0.3,0c1,0.3,1.5,2.1,1.4,5.5c0,0.3,0,1.4-0.1,3.4c0,2-0.1,5.1-0.2,9.1
			c0,1.2,0.6,1.8,1.8,1.6h0.2c0,0,0,0,0,0L238.5,106.2z M235.8,87.2l-2.1,0.5c-1.4,0.5-2.1,1.6-2.1,3.2c0,0.4,0,0.9,0.1,1.4
			c0.6-0.6,1.3-1.2,2-1.9c0.7-0.7,1.4-1.1,2.1-1.4V87.2z M235.8,102.7c0-0.3,0-0.6,0-1s0-0.9,0-1.5l0-10.1c-1.2,0.9-1.8,2.7-1.8,5.2
			v5.7h0.1v0.1C234.1,102.3,234.7,102.9,235.8,102.7z"/>
		<path fill="#A3D291" d="M255.7,111c-0.5,0.4-1,0.7-1.5,1.1c-0.4,0.4-0.9,0.8-1.3,1.2l-2.2,2.3c-1.1,1.1-2.2,1.9-3.3,2.4
			c-1.1,0.5-2.3,0.7-3.5,0.7c-1.8,0-3.1-0.5-4-1.6c2,0.7,3.7,0.8,5.1,0.2c0.5-0.2,1.2-0.6,1.9-1.3c0.8-0.7,1.7-1.6,2.7-2.8l0.4-0.4
			l0.6-0.8c0.1-0.6,0.1-1.5,0.1-2.5v-6.9c-0.4,0.5-0.9,1-1.5,1.6c-0.6,0.6-1.2,1.2-1.8,1.9c-1.4-0.7-2.3-1.7-2.6-3.1
			c-0.1-0.5-0.1-1.5-0.1-2.9l0-12c0-0.7-0.1-1.3-0.3-1.7c-0.2-0.4-0.7-0.5-1.3-0.5c-0.1,0-0.2,0-0.2-0.1l3.9-2.9
			c0.6,0.4,1,1.2,1.3,2.3c0.1,0.3,0.1,0.7,0.1,1.2c0,0.5,0,1.2-0.1,2c0,0.6-0.1,2-0.1,4c0,2-0.1,4.8-0.1,8.4
			c0.1,0.8,0.4,1.3,0.9,1.5c0.3,0.1,0.9-0.4,1.8-1.2V88.1c0-0.6-0.1-1-0.2-1.3c-0.1-0.3-0.3-0.5-0.4-0.6c-0.2-0.1-0.4-0.2-0.6-0.2
			s-0.4-0.1-0.5-0.1l3.7-2.9c0.6,0.4,1,1.1,1.2,2.3v3.3c0,0.9,0,1.9,0,2.9c0,1,0,2,0,3.2v3.8c0,0.1,0,0.9,0,2.4c0,1.5,0,3.7,0,6.6
			v1.4C254,110.2,254.6,111,255.7,111z"/>
	</g>
</g>
<g>
	<g>
		<path fill="#A3D291" d="M102,73.7c-1.1-0.5-1.7-1.3-1.9-2.3l-1.8,2.3c-1.4-0.7-2-1.8-2-3.3v-0.2c0-0.1,0-0.1,0-0.2
			c0-0.1,0-0.2,0-0.3v-1.2v-4.1l0.6-0.4c-0.5-1.3-0.7-2.4-0.4-3.4c0.3-1,1-1.8,2-2.3c0.6-0.2,1.4-0.5,2.5-1c0.2-0.1,0.4-0.2,0.4-0.3
			c0.1-0.1,0.1-0.1,0.2,0c0.7,0.2,1.1,1.6,1,4c0,0.2,0,1-0.1,2.5c0,1.5-0.1,3.7-0.1,6.6c0,0.9,0.4,1.3,1.3,1.2h0.2c0,0,0,0,0,0
			L102,73.7z M100,59.9l-1.5,0.4c-1,0.4-1.6,1.2-1.6,2.3c0,0.3,0,0.7,0.1,1.1c0.5-0.4,0.9-0.9,1.4-1.4c0.5-0.5,1-0.8,1.5-1V59.9z
			 M100,71.2c0-0.2,0-0.5,0-0.8s0-0.7,0-1.1l0-7.3c-0.9,0.7-1.3,1.9-1.3,3.8v4.1h0.1V70C98.8,70.9,99.2,71.3,100,71.2z"/>
		<path fill="#A3D291" d="M113,73.7c-0.5-0.3-1-0.6-1.3-0.9c-0.3-0.4-0.5-0.8-0.7-1.3c0,0-0.1-0.8-0.1-2.1l-0.1-8.1
			c0.1-0.2,0.1-0.5,0-0.8c-0.1-0.4-0.3-0.6-0.6-0.6c-0.1-0.1-0.2-0.1-0.4,0l-0.4,0.2v0.9c0,0.1,0,0.9,0,2.4c0,1.5-0.1,3.7-0.2,6.8
			c0.1,0.9,0.5,1.3,1.3,1.2h0.1c0,0,0,0,0,0l-1.9,2.5c-1.1-0.5-1.7-1.3-1.9-2.2c-0.1-0.4-0.1-1.1-0.1-2.1l0.1-8.7
			c0-0.6-0.1-1-0.2-1.3c-0.2-0.3-0.5-0.4-0.9-0.4c-0.1,0-0.2,0-0.2,0l2.9-2.1c0.6,0.3,0.9,1,1,2.2l3-2.2c0.6,0.2,0.9,0.7,1,1.6
			c0,0.1,0.1,0.9,0.1,2.3c0,0.1,0,0.4,0,0.8c0,0.4,0,1.1-0.1,1.9l-0.1,6.4c0,0.5,0.1,0.8,0.3,1c0.2,0.2,0.6,0.3,1,0.2h0.1
			c0,0,0.1,0,0.1,0L113,73.7z"/>
		<path fill="#A3D291" d="M127.4,47.8c-0.7,0.2-1.2,0.4-1.7,0.6c-0.4,0.2-0.8,0.5-1,0.9c-0.3,0.4-0.4,0.8-0.5,1.3
			c-0.1,0.5-0.1,1.1-0.1,1.8V70c0,0.9,0.4,1.3,1.3,1.2h0.1c0,0,0,0,0,0l-1.9,2.5c-1.2-0.6-1.9-1.5-2-2.7l-2.1,2.7
			c-1.3-0.7-2-1.8-2-3.3v-2l-0.1-7.9c0.6-0.7,1.6-1.6,2.9-2.9c0.4-0.3,0.9-0.5,1.3-0.6v-1.4c0-0.7,0-1.2,0-1.5c0-0.3,0-0.4,0-0.2v-3
			c0.7-0.6,1.2-1.1,1.6-1.6c0.4-0.4,0.8-0.7,0.9-0.8C125.2,47.7,126.2,47.5,127.4,47.8z M121.6,57.6c-1.1,0.6-1.7,1.9-1.7,4v7.1h0.1
			v0.1c0,0.1,0,0.2,0,0.3c0,0.1,0,0.2,0.1,0.3c0.2,0.5,0.5,0.7,0.9,0.7c0.1,0,0.2,0,0.3,0c0.1,0,0.2-0.1,0.3-0.1V57.6z"/>
	</g>
	<g>
		<path fill="#A3D291" d="M102,73.7c-1.1-0.5-1.7-1.3-1.9-2.3l-1.8,2.3c-1.4-0.7-2-1.8-2-3.3v-0.2c0-0.1,0-0.1,0-0.2
			c0-0.1,0-0.2,0-0.3v-1.2v-4.1l0.6-0.4c-0.5-1.3-0.7-2.4-0.4-3.4c0.3-1,1-1.8,2-2.3c0.6-0.2,1.4-0.5,2.5-1c0.2-0.1,0.4-0.2,0.4-0.3
			c0.1-0.1,0.1-0.1,0.2,0c0.7,0.2,1.1,1.6,1,4c0,0.2,0,1-0.1,2.5c0,1.5-0.1,3.7-0.1,6.6c0,0.9,0.4,1.3,1.3,1.2h0.2c0,0,0,0,0,0
			L102,73.7z M100,59.9l-1.5,0.4c-1,0.4-1.6,1.2-1.6,2.3c0,0.3,0,0.7,0.1,1.1c0.5-0.4,0.9-0.9,1.4-1.4c0.5-0.5,1-0.8,1.5-1V59.9z
			 M100,71.2c0-0.2,0-0.5,0-0.8s0-0.7,0-1.1l0-7.3c-0.9,0.7-1.3,1.9-1.3,3.8v4.1h0.1V70C98.8,70.9,99.2,71.3,100,71.2z"/>
		<path fill="#A3D291" d="M113,73.7c-0.5-0.3-1-0.6-1.3-0.9c-0.3-0.4-0.5-0.8-0.7-1.3c0,0-0.1-0.8-0.1-2.1l-0.1-8.1
			c0.1-0.2,0.1-0.5,0-0.8c-0.1-0.4-0.3-0.6-0.6-0.6c-0.1-0.1-0.2-0.1-0.4,0l-0.4,0.2v0.9c0,0.1,0,0.9,0,2.4c0,1.5-0.1,3.7-0.2,6.8
			c0.1,0.9,0.5,1.3,1.3,1.2h0.1c0,0,0,0,0,0l-1.9,2.5c-1.1-0.5-1.7-1.3-1.9-2.2c-0.1-0.4-0.1-1.1-0.1-2.1l0.1-8.7
			c0-0.6-0.1-1-0.2-1.3c-0.2-0.3-0.5-0.4-0.9-0.4c-0.1,0-0.2,0-0.2,0l2.9-2.1c0.6,0.3,0.9,1,1,2.2l3-2.2c0.6,0.2,0.9,0.7,1,1.6
			c0,0.1,0.1,0.9,0.1,2.3c0,0.1,0,0.4,0,0.8c0,0.4,0,1.1-0.1,1.9l-0.1,6.4c0,0.5,0.1,0.8,0.3,1c0.2,0.2,0.6,0.3,1,0.2h0.1
			c0,0,0.1,0,0.1,0L113,73.7z"/>
		<path fill="#A3D291" d="M127.4,47.8c-0.7,0.2-1.2,0.4-1.7,0.6c-0.4,0.2-0.8,0.5-1,0.9c-0.3,0.4-0.4,0.8-0.5,1.3
			c-0.1,0.5-0.1,1.1-0.1,1.8V70c0,0.9,0.4,1.3,1.3,1.2h0.1c0,0,0,0,0,0l-1.9,2.5c-1.2-0.6-1.9-1.5-2-2.7l-2.1,2.7
			c-1.3-0.7-2-1.8-2-3.3v-2l-0.1-7.9c0.6-0.7,1.6-1.6,2.9-2.9c0.4-0.3,0.9-0.5,1.3-0.6v-1.4c0-0.7,0-1.2,0-1.5c0-0.3,0-0.4,0-0.2v-3
			c0.7-0.6,1.2-1.1,1.6-1.6c0.4-0.4,0.8-0.7,0.9-0.8C125.2,47.7,126.2,47.5,127.4,47.8z M121.6,57.6c-1.1,0.6-1.7,1.9-1.7,4v7.1h0.1
			v0.1c0,0.1,0,0.2,0,0.3c0,0.1,0,0.2,0.1,0.3c0.2,0.5,0.5,0.7,0.9,0.7c0.1,0,0.2,0,0.3,0c0.1,0,0.2-0.1,0.3-0.1V57.6z"/>
	</g>
</g>
</svg>
